<?xml version="1.0" encoding="UTF-8" standalone="no"?>
<!-- Created with Inkscape (http://www.inkscape.org/) -->

<svg
   xmlns:dc="http://purl.org/dc/elements/1.1/"
   xmlns:cc="http://creativecommons.org/ns#"
   xmlns:rdf="http://www.w3.org/1999/02/22-rdf-syntax-ns#"
   xmlns:svg="http://www.w3.org/2000/svg"
   xmlns="http://www.w3.org/2000/svg"
   xmlns:xlink="http://www.w3.org/1999/xlink"
   xmlns:sodipodi="http://sodipodi.sourceforge.net/DTD/sodipodi-0.dtd"
   xmlns:inkscape="http://www.inkscape.org/namespaces/inkscape"
   width="210mm"
   height="297mm"
   viewBox="0 0 210 297"
   version="1.1"
   id="svg8"
   inkscape:version="0.92.1 r15371"
   sodipodi:docname="gamelogo.svg">
  <defs
     id="defs2">
    <linearGradient
       id="Drk_blues-7"
       inkscape:collect="always">
      <stop
         id="stop6039"
         offset="0"
         style="stop-color:#0f0052;stop-opacity:1" />
      <stop
         style="stop-color:#dce1ff;stop-opacity:1"
         offset="0.80000001"
         id="stop6041" />
      <stop
         id="stop6043"
         offset="1"
         style="stop-color:#213977;stop-opacity:1" />
    </linearGradient>
    <linearGradient
       id="linearGradient4839"
       inkscape:collect="always">
      <stop
         id="stop4833"
         offset="0"
         style="stop-color:#004455;stop-opacity:1" />
      <stop
         style="stop-color:#aaeeff;stop-opacity:1"
         offset="0.30000001"
         id="stop4835" />
      <stop
         id="stop4837"
         offset="1"
         style="stop-color:#2c89a0;stop-opacity:1" />
    </linearGradient>
    <linearGradient
       inkscape:collect="always"
       id="linearGradient4507-0">
      <stop
         style="stop-color:#004455;stop-opacity:1"
         offset="0"
         id="stop4503" />
      <stop
         id="stop4511"
         offset="0.80000001"
         style="stop-color:#aaeeff;stop-opacity:1" />
      <stop
         style="stop-color:#2c89a0;stop-opacity:1"
         offset="1"
         id="stop4505" />
    </linearGradient>
    <linearGradient
       inkscape:collect="always"
       xlink:href="#linearGradient4507-0"
       id="linearGradient4509"
       x1="87.820709"
       y1="64.781937"
       x2="87.820709"
       y2="23.355169"
       gradientUnits="userSpaceOnUse" />
    <linearGradient
       inkscape:collect="always"
       xlink:href="#linearGradient4839"
       id="linearGradient4831"
       x1="76.839989"
       y1="92.271538"
       x2="76.839989"
       y2="36.813118"
       gradientUnits="userSpaceOnUse" />
    <linearGradient
       inkscape:collect="always"
       xlink:href="#linearGradient4507-0"
       id="linearGradient5150"
       gradientUnits="userSpaceOnUse"
       x1="87.820709"
       y1="64.781937"
       x2="87.820709"
       y2="23.355169" />
    <linearGradient
       inkscape:collect="always"
       xlink:href="#linearGradient4507-0"
       id="linearGradient5484"
       gradientUnits="userSpaceOnUse"
       x1="87.820709"
       y1="64.781937"
       x2="87.820709"
       y2="23.355169" />
    <linearGradient
       inkscape:collect="always"
       xlink:href="#linearGradient4839"
       id="linearGradient5486"
       gradientUnits="userSpaceOnUse"
       x1="76.839989"
       y1="92.271538"
       x2="76.839989"
       y2="36.813118" />
    <linearGradient
       inkscape:collect="always"
       xlink:href="#Drk_blues-7"
       id="linearGradient6037"
       gradientUnits="userSpaceOnUse"
       x1="159.4604"
       y1="50.334652"
       x2="159.4604"
       y2="77.773804" />
    <linearGradient
       inkscape:collect="always"
       xlink:href="#linearGradient4507-0"
       id="linearGradient5164"
       gradientUnits="userSpaceOnUse"
       x1="87.820709"
       y1="64.781937"
       x2="87.820709"
       y2="23.355169" />
    <linearGradient
       inkscape:collect="always"
       xlink:href="#linearGradient4507-0"
       id="linearGradient5166"
       gradientUnits="userSpaceOnUse"
       x1="87.820709"
       y1="64.781937"
       x2="87.820709"
       y2="23.355169" />
    <linearGradient
       inkscape:collect="always"
       xlink:href="#linearGradient4507-0"
       id="linearGradient5168"
       gradientUnits="userSpaceOnUse"
       x1="87.820709"
       y1="64.781937"
       x2="87.820709"
       y2="23.355169" />
    <linearGradient
       inkscape:collect="always"
       xlink:href="#linearGradient4507-0"
       id="linearGradient5170"
       gradientUnits="userSpaceOnUse"
       x1="87.820709"
       y1="64.781937"
       x2="87.820709"
       y2="23.355169" />
    <linearGradient
       inkscape:collect="always"
       xlink:href="#linearGradient4507-0"
       id="linearGradient5172"
       gradientUnits="userSpaceOnUse"
       x1="87.820709"
       y1="64.781937"
       x2="87.820709"
       y2="23.355169" />
    <linearGradient
       inkscape:collect="always"
       xlink:href="#linearGradient4507-0"
       id="linearGradient5174"
       gradientUnits="userSpaceOnUse"
       x1="87.820709"
       y1="64.781937"
       x2="87.820709"
       y2="23.355169" />
    <linearGradient
       inkscape:collect="always"
       xlink:href="#linearGradient4507-0"
       id="linearGradient5176"
       gradientUnits="userSpaceOnUse"
       x1="87.820709"
       y1="64.781937"
       x2="87.820709"
       y2="23.355169" />
    <linearGradient
       inkscape:collect="always"
       xlink:href="#linearGradient4507-0"
       id="linearGradient5178"
       gradientUnits="userSpaceOnUse"
       x1="87.820709"
       y1="64.781937"
       x2="87.820709"
       y2="23.355169" />
    <linearGradient
       inkscape:collect="always"
       xlink:href="#linearGradient4507-0"
       id="linearGradient5180"
       gradientUnits="userSpaceOnUse"
       x1="87.820709"
       y1="64.781937"
       x2="87.820709"
       y2="23.355169" />
    <linearGradient
       inkscape:collect="always"
       xlink:href="#linearGradient4507-0"
       id="linearGradient5182"
       gradientUnits="userSpaceOnUse"
       x1="87.820709"
       y1="64.781937"
       x2="87.820709"
       y2="23.355169" />
    <linearGradient
       inkscape:collect="always"
       xlink:href="#linearGradient4507-0"
       id="linearGradient5184"
       gradientUnits="userSpaceOnUse"
       x1="87.820709"
       y1="64.781937"
       x2="87.820709"
       y2="23.355169" />
    <linearGradient
       inkscape:collect="always"
       xlink:href="#linearGradient4839"
       id="linearGradient5186"
       gradientUnits="userSpaceOnUse"
       x1="76.839989"
       y1="92.271538"
       x2="76.839989"
       y2="36.813118" />
    <linearGradient
       inkscape:collect="always"
       xlink:href="#linearGradient4839"
       id="linearGradient5188"
       gradientUnits="userSpaceOnUse"
       x1="76.839989"
       y1="92.271538"
       x2="76.839989"
       y2="36.813118" />
    <linearGradient
       inkscape:collect="always"
       xlink:href="#linearGradient4839"
       id="linearGradient5190"
       gradientUnits="userSpaceOnUse"
       x1="76.839989"
       y1="92.271538"
       x2="76.839989"
       y2="36.813118" />
    <linearGradient
       inkscape:collect="always"
       xlink:href="#linearGradient4839"
       id="linearGradient5192"
       gradientUnits="userSpaceOnUse"
       x1="76.839989"
       y1="92.271538"
       x2="76.839989"
       y2="36.813118" />
    <linearGradient
       inkscape:collect="always"
       xlink:href="#linearGradient4839"
       id="linearGradient5194"
       gradientUnits="userSpaceOnUse"
       x1="76.839989"
       y1="92.271538"
       x2="76.839989"
       y2="36.813118" />
    <linearGradient
       inkscape:collect="always"
       xlink:href="#linearGradient4839"
       id="linearGradient5196"
       gradientUnits="userSpaceOnUse"
       x1="76.839989"
       y1="92.271538"
       x2="76.839989"
       y2="36.813118" />
    <linearGradient
       inkscape:collect="always"
       xlink:href="#linearGradient4839"
       id="linearGradient5198"
       gradientUnits="userSpaceOnUse"
       x1="76.839989"
       y1="92.271538"
       x2="76.839989"
       y2="36.813118" />
    <linearGradient
       inkscape:collect="always"
       xlink:href="#linearGradient4839"
       id="linearGradient5200"
       gradientUnits="userSpaceOnUse"
       x1="76.839989"
       y1="92.271538"
       x2="76.839989"
       y2="36.813118" />
    <linearGradient
       inkscape:collect="always"
       xlink:href="#linearGradient4839"
       id="linearGradient5202"
       gradientUnits="userSpaceOnUse"
       x1="76.839989"
       y1="92.271538"
       x2="76.839989"
       y2="36.813118" />
  </defs>
  <sodipodi:namedview
     id="base"
     pagecolor="#ffffff"
     bordercolor="#666666"
     borderopacity="1.0"
     inkscape:pageopacity="0.0"
     inkscape:pageshadow="2"
     inkscape:zoom="1.4"
     inkscape:cx="339.94302"
     inkscape:cy="881.25803"
     inkscape:document-units="mm"
     inkscape:current-layer="layer1"
     showgrid="false"
     inkscape:window-width="1920"
     inkscape:window-height="1001"
     inkscape:window-x="-9"
     inkscape:window-y="-9"
     inkscape:window-maximized="1"
     showguides="true"
     inkscape:guide-bbox="true">
    <sodipodi:guide
       position="131.25223,219.2262"
       orientation="0,1"
       id="guide6027"
       inkscape:locked="false" />
  </sodipodi:namedview>
  <metadata
     id="metadata5">
    <rdf:RDF>
      <cc:Work
         rdf:about="">
        <dc:format>image/svg+xml</dc:format>
        <dc:type
           rdf:resource="http://purl.org/dc/dcmitype/StillImage" />
        <dc:title></dc:title>
      </cc:Work>
    </rdf:RDF>
  </metadata>
  <g
     inkscape:label="Layer 1"
     inkscape:groupmode="layer"
     id="layer1">
    <text
       xml:space="preserve"
       style="font-style:normal;font-variant:normal;font-weight:normal;font-stretch:normal;font-size:7.49600124px;line-height:1;font-family:DINPro;-inkscape-font-specification:DINPro;letter-spacing:0px;word-spacing:0px;fill:#000000;fill-opacity:1;stroke:#000000;stroke-width:0.46850008;stroke-opacity:1"
       x="13.206868"
       y="21.115854"
       id="text4487"
       inkscape:export-xdpi="234.31"
       inkscape:export-ydpi="234.31"><tspan
         sodipodi:role="line"
         id="tspan4485"
         x="13.206868"
         y="21.115854"
         style="font-style:oblique;font-variant:normal;font-weight:normal;font-stretch:normal;font-family:'Helvetica LT Std';-inkscape-font-specification:'Helvetica LT Std Oblique';letter-spacing:-0.40291008px;stroke:none;stroke-width:0.46850008;stroke-opacity:1">Giant Scam's</tspan></text>
    <ellipse
       style="opacity:1;fill:#ffffff;fill-opacity:1;stroke:none;stroke-width:2.1469388;stroke-linecap:square;stroke-linejoin:miter;stroke-miterlimit:4;stroke-dasharray:none;stroke-opacity:1;paint-order:stroke fill markers"
       id="path5220"
       cx="69.925598"
       cy="55.945683"
       rx="24.851934"
       ry="25.663424"
       inkscape:export-xdpi="234.31"
       inkscape:export-ydpi="234.31" />
    <g
       id="g5218"
       style="fill:#b2b2b2;fill-opacity:1"
       transform="matrix(0.72163757,-0.21913093,0.21913093,0.72163757,7.0491665,30.997719)"
       inkscape:export-xdpi="234.31"
       inkscape:export-ydpi="234.31">
      <path
         inkscape:connector-curvature="0"
         id="rect4516"
         d="M 93.111049,-0.24832013 76.656283,18.064772 A 39.021351,39.021351 0 0 0 40.730973,30.363449 39.021351,39.021351 0 0 0 32.348735,67.376212 L 15.877394,85.70775 46.402938,113.13571 62.857697,94.822631 A 39.021351,39.021351 0 0 0 98.782276,82.523983 39.021351,39.021351 0 0 0 107.1649,45.511563 L 123.63659,27.179637 Z M 90.450642,33.412621 A 30.962193,30.962193 0 0 1 92.788087,77.137334 30.962193,30.962193 0 0 1 49.062974,79.47443 30.962193,30.962193 0 0 1 46.726269,35.749667 30.962193,30.962193 0 0 1 90.450642,33.412623 Z"
         style="opacity:1;fill:#b2b2b2;fill-opacity:1;stroke:none;stroke-width:0.67449486;stroke-linecap:square;stroke-linejoin:miter;stroke-miterlimit:4;stroke-dasharray:none;stroke-opacity:1;paint-order:stroke fill markers" />
      <path
         sodipodi:nodetypes="ccccc"
         inkscape:connector-curvature="0"
         id="rect4634"
         d="M 71.204067,52.117644 89.340617,34.960695 73.668464,54.533475 67.29921,59.491356 Z"
         style="opacity:1;fill:#b2b2b2;fill-opacity:1;stroke:none;stroke-width:0.79318172;stroke-linecap:square;stroke-linejoin:miter;stroke-miterlimit:4;stroke-dasharray:none;stroke-opacity:1;paint-order:stroke fill markers" />
      <path
         sodipodi:nodetypes="ccccc"
         inkscape:connector-curvature="0"
         id="rect4634-5"
         d="M 75.548151,55.150306 91.974692,56.49963 75.582496,58.601151 67.573,57.603153 Z"
         style="opacity:1;fill:#b2b2b2;fill-opacity:1;stroke:none;stroke-width:0.79318172;stroke-linecap:square;stroke-linejoin:miter;stroke-miterlimit:4;stroke-dasharray:none;stroke-opacity:1;paint-order:stroke fill markers" />
      <circle
         transform="rotate(41.940478)"
         r="4.572484"
         cy="-4.6376185"
         cx="89.61235"
         id="path4652"
         style="opacity:1;fill:#b2b2b2;fill-opacity:1;stroke:none;stroke-width:0.5;stroke-linecap:square;stroke-linejoin:miter;stroke-miterlimit:4;stroke-dasharray:none;stroke-opacity:1;paint-order:stroke fill markers" />
    </g>
    <g
       id="g5286"
       inkscape:export-xdpi="234.31"
       inkscape:export-ydpi="234.31">
      <text
         id="text4491"
         y="50.652462"
         x="7.5525789"
         style="font-style:normal;font-variant:normal;font-weight:normal;font-stretch:normal;font-size:6.00209236px;line-height:1;font-family:DINPro;-inkscape-font-specification:DINPro;letter-spacing:0px;word-spacing:0px;fill:url(#linearGradient5150);fill-opacity:1;stroke:#181818;stroke-width:0.37513077;stroke-opacity:1"
         xml:space="preserve"><tspan
           dy="0 0 0 0 0 0 2.4102893"
           style="font-style:oblique;font-variant:normal;font-weight:bold;font-stretch:condensed;font-size:36.01255798px;font-family:'Helvetica LT Std';-inkscape-font-specification:'Helvetica LT Std Bold Oblique Condensed';letter-spacing:-1.59430599px;fill:url(#linearGradient5150);fill-opacity:1;stroke:#181818;stroke-width:0.37513077;stroke-opacity:1"
           y="50.652462"
           x="7.5525789"
           id="tspan4489"
           sodipodi:role="line">W<tspan
   dy="-2.4102893"
   id="tspan4497"
   style="font-size:28.00976563px;letter-spacing:-1.59430599px;fill:url(#linearGradient5150);fill-opacity:1;stroke:#181818;stroke-width:0.37513077;stroke-opacity:1">atch </tspan><tspan
   id="tspan4513"
   style="letter-spacing:-6.49287462px;fill:url(#linearGradient5150);stroke:#181818;stroke-opacity:1" />R<tspan
   dy="-2.4102893"
   id="tspan4499"
   style="font-size:28.00976563px;letter-spacing:-1.59430599px;fill:url(#linearGradient5150);fill-opacity:1;stroke:#181818;stroke-width:0.37513077;stroke-opacity:1">epair</tspan></tspan></text>
      <text
         xml:space="preserve"
         style="font-style:normal;font-variant:normal;font-weight:normal;font-stretch:normal;font-size:6.00209236px;line-height:1;font-family:DINPro;-inkscape-font-specification:DINPro;letter-spacing:0px;word-spacing:0px;fill:url(#linearGradient4831);fill-opacity:1;stroke:#181818;stroke-width:0.37513077;stroke-opacity:1;"
         x="17.82585"
         y="80.020264"
         id="text4495"><tspan
           sodipodi:role="line"
           id="tspan4493"
           x="17.82585"
           y="80.020264"
           style="font-style:oblique;font-variant:normal;font-weight:bold;font-stretch:condensed;font-size:36.01255798px;font-family:'Helvetica LT Std';-inkscape-font-specification:'Helvetica LT Std Bold Oblique Condensed';letter-spacing:-1.59430599px;fill:url(#linearGradient4831);fill-opacity:1;stroke:#181818;stroke-width:0.37513077;stroke-opacity:1;">S<tspan
   dy="-2.4102893"
   id="tspan4501"
   style="font-size:28.00976563px;letter-spacing:-1.59430599px;fill:url(#linearGradient4831);fill-opacity:1;stroke:#181818;stroke-width:0.37513077;stroke-opacity:1;">imulator</tspan></tspan></text>
    </g>
    <g
       aria-label="Giant Scam's"
       style="font-style:normal;font-variant:normal;font-weight:normal;font-stretch:normal;font-size:7.49600124px;line-height:1;font-family:DINPro;-inkscape-font-specification:DINPro;letter-spacing:0px;word-spacing:0px;fill:#000000;fill-opacity:1;stroke:#000000;stroke-width:0.46850008;stroke-opacity:1"
       id="text5464"
       transform="translate(0,27.78125)">
      <path
         d="m 18.603989,107.04566 c 0,-0.23987 -0.08995,-0.73461 -0.314832,-1.04944 -0.254864,-0.45726 -0.929504,-0.79458 -1.6866,-0.79458 -1.836521,0 -2.908449,1.62664 -2.908449,3.33572 0,1.76156 1.131896,2.29378 2.068897,2.29378 0.877032,0 1.394256,-0.31483 1.784048,-0.79458 l -0.07496,0.65965 h 0.532216 l 0.584688,-2.79601 h -2.346248 l -0.14992,0.59968 h 1.701592 c -0.119936,0.77209 -0.7496,1.73158 -1.829024,1.73158 -1.049441,0 -1.536681,-0.60718 -1.536681,-1.67161 0,-1.24433 0.734608,-2.74353 2.053905,-2.74353 0.929504,0 1.401752,0.53971 1.446728,1.22934 z"
         style="font-style:oblique;font-variant:normal;font-weight:normal;font-stretch:normal;font-family:'Helvetica LT Std';-inkscape-font-specification:'Helvetica LT Std Oblique';letter-spacing:-0.40291008px;stroke:none;stroke-width:0.46850008;stroke-opacity:1"
         id="path5488"
         inkscape:connector-curvature="0" />
      <path
         d="m 18.623432,110.69621 h 0.67464 l 0.832056,-3.92041 h -0.67464 z m 0.981976,-4.61753 h 0.67464 l 0.164912,-0.7646 h -0.67464 z"
         style="font-style:oblique;font-variant:normal;font-weight:normal;font-stretch:normal;font-family:'Helvetica LT Std';-inkscape-font-specification:'Helvetica LT Std Oblique';letter-spacing:-0.40291008px;stroke:none;stroke-width:0.46850008;stroke-opacity:1"
         id="path5490"
         inkscape:connector-curvature="0" />
      <path
         d="m 21.396249,110.27644 c -0.382296,0 -0.689632,-0.1949 -0.689632,-0.62967 0,-0.42727 0.33732,-0.71212 0.892024,-0.76459 0.509728,-0.045 0.929504,-0.0675 1.131896,-0.15742 -0.142424,0.92201 -0.502232,1.55168 -1.334288,1.55168 z m 2.061401,-1.92648 c 0.08246,-0.3598 0.127432,-0.5547 0.127432,-0.75709 0,-0.77959 -0.794577,-0.937 -1.424241,-0.937 -0.832056,0 -1.559168,0.35981 -1.6866,1.25183 h 0.652152 c 0.05997,-0.47974 0.404784,-0.71212 0.951992,-0.71212 0.547208,0 0.847048,0.14242 0.847048,0.54721 0,0.32233 -0.11244,0.53221 -0.629664,0.56969 l -0.914512,0.06 c -0.734608,0.0525 -1.34928,0.42727 -1.34928,1.30431 0,0.50972 0.329824,1.13939 1.229344,1.13939 0.7496,0 1.154384,-0.41978 1.206856,-0.5622 h 0.01499 c 0.02998,0.19489 0.134928,0.49473 0.59968,0.49473 0.119936,0 0.247369,-0.015 0.367305,-0.03 l 0.09745,-0.47974 c -0.05247,0.007 -0.104944,0.015 -0.157416,0.015 -0.179905,0 -0.277353,-0.10495 -0.277353,-0.23987 0,-0.0675 0.02249,-0.17991 0.05997,-0.35232 z"
         style="font-style:oblique;font-variant:normal;font-weight:normal;font-stretch:normal;font-family:'Helvetica LT Std';-inkscape-font-specification:'Helvetica LT Std Oblique';letter-spacing:-0.40291008px;stroke:none;stroke-width:0.46850008;stroke-opacity:1"
         id="path5492"
         inkscape:connector-curvature="0" />
      <path
         d="m 23.666718,110.69621 h 0.652152 l 0.464752,-2.14385 c 0.142424,-0.64466 0.71212,-1.26683 1.34928,-1.26683 0.434768,0 0.59968,0.1874 0.59968,0.50973 0,0.11244 -0.02998,0.26236 -0.08246,0.50223 l -0.517224,2.39872 h 0.67464 l 0.509728,-2.41371 c 0.05997,-0.28485 0.09745,-0.5547 0.09745,-0.71962 0,-0.65215 -0.577192,-0.86953 -1.004464,-0.86953 -0.584688,0 -0.996968,0.26985 -1.401752,0.70462 l 0.127432,-0.62217 h -0.63716 z"
         style="font-style:oblique;font-variant:normal;font-weight:normal;font-stretch:normal;font-family:'Helvetica LT Std';-inkscape-font-specification:'Helvetica LT Std Oblique';letter-spacing:-0.40291008px;stroke:none;stroke-width:0.46850008;stroke-opacity:1"
         id="path5494"
         inkscape:connector-curvature="0" />
      <path
         d="m 27.676259,109.86416 c -0.01499,0.0825 -0.02249,0.1799 -0.02249,0.24736 0,0.44227 0.322328,0.63716 0.817064,0.63716 0.1874,0 0.322328,-0.03 0.442264,-0.0525 l 0.11244,-0.53221 c -0.119936,0.0225 -0.26236,0.0375 -0.404784,0.0375 -0.179904,0 -0.29984,-0.0675 -0.29984,-0.23238 0,-0.075 0.02249,-0.17241 0.05997,-0.3823 l 0.472248,-2.25629 h 0.742104 l 0.08995,-0.53971 h -0.71212 l 0.232376,-1.04944 h -0.629664 l -0.254864,1.04944 h -0.539712 l -0.11244,0.53971 h 0.539712 z"
         style="font-style:oblique;font-variant:normal;font-weight:normal;font-stretch:normal;font-family:'Helvetica LT Std';-inkscape-font-specification:'Helvetica LT Std Oblique';letter-spacing:-0.40291008px;stroke:none;stroke-width:0.46850008;stroke-opacity:1"
         id="path5496"
         inkscape:connector-curvature="0" />
      <path
         d="m 31.155809,108.90467 c -0.01499,0.11244 -0.02249,0.19489 -0.02249,0.28485 0,1.03444 0.847048,1.64162 2.02392,1.64162 1.04944,0 2.053904,-0.50223 2.053904,-1.71658 0,-0.73461 -0.547208,-1.08692 -1.169376,-1.34179 l -0.929504,-0.38229 c -0.307336,-0.12744 -0.59968,-0.34482 -0.59968,-0.70463 0,-0.65215 0.63716,-0.87703 1.109408,-0.87703 1.056936,0 1.27432,0.5547 1.281816,1.07942 h 0.719616 c -0.0075,-1.15438 -0.727112,-1.70908 -1.918976,-1.70908 -1.476712,0 -1.91148,0.90701 -1.91148,1.57416 0,1.6716 2.69856,1.3118 2.69856,2.49616 0,0.65216 -0.644656,0.952 -1.304304,0.952 -0.667144,0 -1.334288,-0.35232 -1.334288,-1.07943 0,-0.075 0.01499,-0.14242 0.02249,-0.21738 z"
         style="font-style:oblique;font-variant:normal;font-weight:normal;font-stretch:normal;font-family:'Helvetica LT Std';-inkscape-font-specification:'Helvetica LT Std Oblique';letter-spacing:-0.40291008px;stroke:none;stroke-width:0.46850008;stroke-opacity:1"
         id="path5498"
         inkscape:connector-curvature="0" />
      <path
         d="m 38.286144,109.24948 c -0.14992,0.49474 -0.539712,0.98198 -1.169376,0.98198 -0.629664,0 -0.914512,-0.48724 -0.914512,-1.02695 0,-0.80207 0.464752,-1.96395 1.439232,-1.96395 0.547208,0 0.892024,0.3598 0.892024,0.85454 h 0.67464 c -0.05247,-0.97448 -0.644656,-1.43923 -1.4992,-1.43923 -1.416744,0 -2.181336,1.22934 -2.181336,2.53365 0,1.20685 0.772088,1.62663 1.53668,1.62663 1.01196,0 1.679104,-0.71962 1.896488,-1.56667 z"
         style="font-style:oblique;font-variant:normal;font-weight:normal;font-stretch:normal;font-family:'Helvetica LT Std';-inkscape-font-specification:'Helvetica LT Std Oblique';letter-spacing:-0.40291008px;stroke:none;stroke-width:0.46850008;stroke-opacity:1"
         id="path5500"
         inkscape:connector-curvature="0" />
      <path
         d="m 40.544432,110.27644 c -0.382296,0 -0.689632,-0.1949 -0.689632,-0.62967 0,-0.42727 0.33732,-0.71212 0.892024,-0.76459 0.509728,-0.045 0.929504,-0.0675 1.131896,-0.15742 -0.142424,0.92201 -0.502232,1.55168 -1.334288,1.55168 z m 2.0614,-1.92648 c 0.08246,-0.3598 0.127432,-0.5547 0.127432,-0.75709 0,-0.77959 -0.794576,-0.937 -1.42424,-0.937 -0.832056,0 -1.559168,0.35981 -1.6866,1.25183 h 0.652152 c 0.05997,-0.47974 0.404784,-0.71212 0.951992,-0.71212 0.547208,0 0.847048,0.14242 0.847048,0.54721 0,0.32233 -0.11244,0.53221 -0.629664,0.56969 l -0.914512,0.06 c -0.734608,0.0525 -1.34928,0.42727 -1.34928,1.30431 0,0.50972 0.329824,1.13939 1.229344,1.13939 0.7496,0 1.154384,-0.41978 1.206856,-0.5622 h 0.01499 c 0.02998,0.19489 0.134928,0.49473 0.59968,0.49473 0.119936,0 0.247368,-0.015 0.367304,-0.03 l 0.09745,-0.47974 c -0.05247,0.007 -0.104944,0.015 -0.157416,0.015 -0.179904,0 -0.277352,-0.10495 -0.277352,-0.23987 0,-0.0675 0.02249,-0.17991 0.05997,-0.35232 z"
         style="font-style:oblique;font-variant:normal;font-weight:normal;font-stretch:normal;font-family:'Helvetica LT Std';-inkscape-font-specification:'Helvetica LT Std Oblique';letter-spacing:-0.40291008px;stroke:none;stroke-width:0.46850008;stroke-opacity:1"
         id="path5502"
         inkscape:connector-curvature="0" />
      <path
         d="m 42.807404,110.69621 h 0.637161 l 0.502232,-2.27878 c 0.09745,-0.45726 0.63716,-1.13939 1.23684,-1.13939 0.307336,0 0.479744,0.16491 0.479744,0.47974 0,0.10494 -0.02249,0.26986 -0.07496,0.50973 l -0.517224,2.4287 h 0.652152 l 0.494736,-2.27878 c 0.08995,-0.43477 0.614672,-1.13939 1.259328,-1.13939 0.277352,0 0.464752,0.11244 0.464752,0.41228 0,0.11993 -0.02249,0.30733 -0.07496,0.5472 l -0.52472,2.45869 h 0.67464 l 0.52472,-2.44369 c 0.05247,-0.23238 0.104944,-0.51723 0.104944,-0.72712 0,-0.49473 -0.397288,-0.83955 -0.959488,-0.83955 -0.622168,0 -1.19936,0.44227 -1.379264,0.72711 0,-0.27735 -0.314832,-0.71961 -0.922008,-0.71961 -0.592184,0 -1.131896,0.44976 -1.3118,0.76459 l 0.157416,-0.68214 h -0.59968 z"
         style="font-style:oblique;font-variant:normal;font-weight:normal;font-stretch:normal;font-family:'Helvetica LT Std';-inkscape-font-specification:'Helvetica LT Std Oblique';letter-spacing:-0.40291008px;stroke:none;stroke-width:0.46850008;stroke-opacity:1"
         id="path5504"
         inkscape:connector-curvature="0" />
      <path
         d="m 49.368161,107.20308 h 0.67464 v -1.889 h -0.67464 z"
         style="font-style:oblique;font-variant:normal;font-weight:normal;font-stretch:normal;font-family:'Helvetica LT Std';-inkscape-font-specification:'Helvetica LT Std Oblique';letter-spacing:-0.40291008px;stroke:none;stroke-width:0.46850008;stroke-opacity:1"
         id="path5506"
         inkscape:connector-curvature="0" />
      <path
         d="m 53.735285,108.02764 c 0,-0.937 -0.554704,-1.37177 -1.4992,-1.37177 -1.01196,0 -1.379264,0.73461 -1.379264,1.13189 0,0.61468 0.382296,0.84705 0.86204,1.06444 l 0.704624,0.30733 c 0.22488,0.10495 0.404784,0.23238 0.404784,0.52472 0,0.38979 -0.404784,0.59219 -0.832056,0.59219 -0.794576,0 -1.01196,-0.28485 -1.01196,-0.952 h -0.629664 c 0,1.05694 0.577192,1.49171 1.57416,1.49171 0.779584,0 1.529184,-0.36731 1.529184,-1.29681 0,-0.41978 -0.29984,-0.7421 -0.659648,-0.89202 l -0.7496,-0.32233 c -0.239872,-0.11244 -0.5622,-0.23987 -0.5622,-0.54721 0,-0.42727 0.457256,-0.5622 0.779584,-0.5622 0.517224,0 0.839552,0.26986 0.839552,0.83206 z"
         style="font-style:oblique;font-variant:normal;font-weight:normal;font-stretch:normal;font-family:'Helvetica LT Std';-inkscape-font-specification:'Helvetica LT Std Oblique';letter-spacing:-0.40291008px;stroke:none;stroke-width:0.46850008;stroke-opacity:1"
         id="path5508"
         inkscape:connector-curvature="0" />
    </g>
    <g
       id="g5482"
       transform="translate(0,117.36161)">
      <g
         aria-label="Watch Repair"
         style="font-style:normal;font-variant:normal;font-weight:normal;font-stretch:normal;font-size:6.00209236px;line-height:1;font-family:DINPro;-inkscape-font-specification:DINPro;letter-spacing:0px;word-spacing:0px;fill:url(#linearGradient5484);fill-opacity:1;stroke:#181818;stroke-width:0.37513077;stroke-opacity:1"
         id="text5474">
        <path
           d="M 30.384541,23.643044 H 26.207084 L 20.8052,37.615916 c -1.080376,2.700942 -2.052716,6.158147 -3.205117,9.615353 h -0.07203 c 0.108038,-0.648226 0.216076,-1.296452 0.288101,-1.944678 0.2881,-2.304804 0.576201,-4.609608 0.684239,-6.914411 l 0.864301,-14.729136 h -5.221821 l -0.576201,27.009418 h 6.05011 l 4.069419,-10.659717 c 1.152402,-2.844992 1.944678,-5.725997 2.917017,-8.607002 h 0.07203 c -0.252088,2.881005 -0.684238,5.76201 -0.756264,8.607002 l -0.252087,10.659717 h 6.050109 L 42.448748,23.643044 H 37.226927 L 32.077131,38.37218 c -0.828289,2.304803 -1.54854,4.609607 -2.196766,6.914411 -0.216075,0.648226 -0.396138,1.296452 -0.612214,1.944678 h -0.07203 c 0.396138,-3.457206 0.864302,-6.914411 0.936327,-9.615353 z"
           style="font-style:oblique;font-variant:normal;font-weight:bold;font-stretch:condensed;font-size:36.01255798px;font-family:'Helvetica LT Std';-inkscape-font-specification:'Helvetica LT Std Bold Oblique Condensed';letter-spacing:-1.59430599px;fill:url(#linearGradient5164);fill-opacity:1;stroke:#181818;stroke-width:0.37513077;stroke-opacity:1"
           id="path5511"
           inkscape:connector-curvature="0" />
        <path
           d="m 48.316482,48.242173 c -0.02801,-0.728254 0,-1.456508 0.168058,-2.212772 l 1.988693,-9.327252 c 0.476166,-2.072722 0.728254,-4.677631 -4.229474,-4.677631 -4.565592,0 -5.99409,2.100733 -6.610305,5.097778 h 3.473211 c 0.280098,-1.428498 0.756264,-2.296801 2.40884,-2.296801 0.980342,0 1.512527,0.112039 1.540537,0.812283 0.02801,1.288449 -0.672234,1.988694 -2.35282,2.632918 -3.109084,1.17641 -5.854041,2.044713 -6.610305,5.657973 -0.700244,3.249133 0.280098,4.73365 3.221123,4.73365 0.616215,0 1.23243,-0.196068 1.848645,-0.532185 0.616214,-0.336118 1.20442,-0.868303 1.764615,-1.512528 h 0.05602 c -0.168058,0.560196 -0.252087,1.120391 -0.112039,1.624567 z m -2.548889,-6.610305 c -0.392137,1.512527 -0.588205,4.229475 -2.744957,4.229475 -1.344469,0 -1.540537,-0.812284 -1.288449,-2.016703 0.140048,-0.672235 0.392136,-1.456508 1.036361,-1.904665 1.120391,-0.784273 2.32481,-1.400488 3.361172,-2.016703 z"
           style="font-size:28.00976563px;letter-spacing:-1.59430599px;fill:url(#linearGradient5166);fill-opacity:1;stroke:#181818;stroke-width:0.37513077;stroke-opacity:1"
           id="path5513"
           inkscape:connector-curvature="0" />
        <path
           d="m 56.049427,45.441196 c -0.448157,0.05602 -1.484518,0.140049 -1.428499,-0.532185 l 2.100733,-9.803418 h 1.540537 l 0.560195,-2.660928 h -1.540537 l 0.924322,-4.341514 h -3.669279 l -0.924322,4.341514 h -1.456508 l -0.560195,2.660928 h 1.484517 l -2.2968,10.69973 c -0.616215,2.941025 2.464859,2.744957 4.67763,2.492869 z"
           style="font-size:28.00976563px;letter-spacing:-1.59430599px;fill:url(#linearGradient5168);fill-opacity:1;stroke:#181818;stroke-width:0.37513077;stroke-opacity:1"
           id="path5515"
           inkscape:connector-curvature="0" />
        <path
           d="m 68.049484,37.934579 0.280098,-1.260439 c 0.532185,-2.352821 -0.336117,-4.649622 -4.005397,-4.649622 -2.772966,0 -5.209816,1.176411 -6.106128,5.601954 l -1.092381,5.125787 c -1.036362,4.201464 0.448156,5.91006 3.669279,5.91006 3.61326,0 5.377875,-1.820635 6.078119,-5.125787 l 0.308108,-1.456508 h -3.64127 l -0.308107,1.456508 c -0.392137,1.26044 -0.644225,2.296801 -1.764616,2.324811 -1.064371,-0.140049 -1.316459,-0.700245 -0.560195,-3.781319 l 0.784273,-3.725299 c 0.392137,-1.932673 0.728254,-3.52923 2.128743,-3.52923 0.784273,0 1.092381,0.476166 0.980341,1.344469 l -0.392136,1.764615 z"
           style="font-size:28.00976563px;letter-spacing:-1.59430599px;fill:url(#linearGradient5170);fill-opacity:1;stroke:#181818;stroke-width:0.37513077;stroke-opacity:1"
           id="path5517"
           inkscape:connector-curvature="0" />
        <path
           d="m 70.750741,48.242173 2.240782,-10.503662 c 0.280097,-1.680586 1.036361,-2.969036 2.408839,-2.913016 1.344469,0.05602 1.316459,1.064371 0.980342,2.604908 l -2.296801,10.81177 h 3.64127 l 2.576898,-12.184248 c 0.728254,-2.828987 -0.700244,-4.033407 -2.772966,-4.033407 -0.392137,0 -0.952332,0.05602 -1.596557,0.336118 -0.644225,0.280097 -1.372479,0.784273 -2.100733,1.708595 h -0.05602 l 1.428498,-6.834383 h -3.64127 l -4.453552,21.007325 z"
           style="font-size:28.00976563px;letter-spacing:-1.59430599px;fill:url(#linearGradient5172);fill-opacity:1;stroke:#181818;stroke-width:0.37513077;stroke-opacity:1"
           id="path5519"
           inkscape:connector-curvature="0" />
        <path
           d="m 91.125481,39.020406 c 1.440502,0 2.917017,-0.03601 4.213469,0.360125 1.620565,0.504176 1.080377,2.772967 0.756264,4.429545 -0.324113,1.800628 -1.152402,5.113783 -0.900314,6.842386 h 5.54593 l 0.10804,-0.504176 c -1.044363,-0.792276 0.50418,-7.418587 0.72025,-8.534976 0.5762,-2.592904 0.072,-4.50157 -2.844989,-4.897708 l 0.03601,-0.07202 c 3.457209,-0.468163 4.897709,-3.565243 5.509919,-6.518273 1.04437,-4.969733 -1.94467,-6.48226 -6.302195,-6.48226 H 88.424539 L 82.698542,50.652462 H 87.7403 l 2.484867,-11.632056 z m 1.512527,-11.415981 h 3.745306 c 1.908666,0.03601 3.061068,0.540188 2.412842,3.565243 -0.576201,2.700942 -2.088729,3.781319 -3.781319,3.889356 h -3.961381 z"
           style="font-style:oblique;font-variant:normal;font-weight:bold;font-stretch:condensed;font-size:36.01255798px;font-family:'Helvetica LT Std';-inkscape-font-specification:'Helvetica LT Std Bold Oblique Condensed';letter-spacing:-1.59430599px;fill:url(#linearGradient5174);fill-opacity:1;stroke:#181818;stroke-width:0.37513077;stroke-opacity:1"
           id="path5521"
           inkscape:connector-curvature="0" />
        <path
           d="m 103.54388,42.024005 c -1.06437,4.649621 0.22408,6.638314 4.42554,6.638314 3.7253,0 5.65797,-2.240781 6.27419,-5.770012 h -3.64127 c -0.36413,1.988694 -0.98034,2.969036 -2.32481,2.969036 -1.09238,0 -1.79263,-0.392137 -1.37248,-2.46486 l 0.47617,-2.296801 h 7.28254 l 0.44815,-2.128742 c 0.92432,-4.313504 0.95233,-6.946422 -4.11743,-6.946422 -3.58525,0 -5.93807,2.128743 -6.55429,5.854041 z m 4.42554,-3.725299 0.14005,-0.644225 c 0.30811,-1.428498 0.53219,-2.828986 2.35282,-2.828986 1.45651,0 1.76462,0.504176 1.45651,2.100732 l -0.30811,1.372479 z"
           style="font-size:28.00976563px;letter-spacing:-1.59430599px;fill:url(#linearGradient5176);fill-opacity:1;stroke:#181818;stroke-width:0.37513077;stroke-opacity:1"
           id="path5523"
           inkscape:connector-curvature="0" />
        <path
           d="m 120.52005,38.326716 c 0.22407,-1.26044 0.75626,-3.501221 2.46486,-3.501221 1.70859,0 1.23243,1.484518 1.00835,3.053064 l -1.12039,5.265836 c -0.42015,1.512528 -1.06437,2.716948 -2.18477,2.716948 -1.17641,0 -1.54053,-0.980342 -1.17641,-2.800977 z m 1.26044,-5.882051 h -3.64127 l -4.48157,21.091353 h 3.47321 l 1.45651,-6.918412 h 0.056 c 0.5602,1.596557 1.48452,1.960684 2.91302,2.044713 3.08107,0 4.28549,-2.744957 4.90171,-5.265836 l 1.20442,-5.713992 c 0.84029,-4.341514 -0.22408,-5.601953 -2.5769,-5.657973 -1.51253,-0.02801 -2.60491,0.532186 -3.61326,2.072723 h -0.056 z"
           style="font-size:28.00976563px;letter-spacing:-1.59430599px;fill:url(#linearGradient5178);fill-opacity:1;stroke:#181818;stroke-width:0.37513077;stroke-opacity:1"
           id="path5525"
           inkscape:connector-curvature="0" />
        <path
           d="m 137.88835,48.242173 c -0.028,-0.728254 0,-1.456508 0.16806,-2.212772 l 1.98869,-9.327252 c 0.47617,-2.072722 0.72826,-4.677631 -4.22947,-4.677631 -4.56559,0 -5.99409,2.100733 -6.61031,5.097778 h 3.47321 c 0.2801,-1.428498 0.75627,-2.296801 2.40884,-2.296801 0.98035,0 1.51253,0.112039 1.54054,0.812283 0.028,1.288449 -0.67223,1.988694 -2.35282,2.632918 -3.10908,1.17641 -5.85404,2.044713 -6.6103,5.657973 -0.70025,3.249133 0.28009,4.73365 3.22112,4.73365 0.61621,0 1.23243,-0.196068 1.84864,-0.532185 0.61622,-0.336118 1.20442,-0.868303 1.76462,-1.512528 h 0.056 c -0.16806,0.560196 -0.25209,1.120391 -0.11204,1.624567 z m -2.54889,-6.610305 c -0.39213,1.512527 -0.5882,4.229475 -2.74496,4.229475 -1.34446,0 -1.54053,-0.812284 -1.28844,-2.016703 0.14004,-0.672235 0.39213,-1.456508 1.03636,-1.904665 1.12039,-0.784273 2.32481,-1.400488 3.36117,-2.016703 z"
           style="font-size:28.00976563px;letter-spacing:-1.59430599px;fill:url(#linearGradient5180);fill-opacity:1;stroke:#181818;stroke-width:0.37513077;stroke-opacity:1"
           id="path5527"
           inkscape:connector-curvature="0" />
        <path
           d="m 143.68863,48.242173 3.36117,-15.797508 h -3.64127 l -3.36117,15.797508 z m 3.75331,-17.702172 0.70024,-3.305153 h -3.64127 l -0.70024,3.305153 z"
           style="font-size:28.00976563px;letter-spacing:-1.59430599px;fill:url(#linearGradient5182);fill-opacity:1;stroke:#181818;stroke-width:0.37513077;stroke-opacity:1"
           id="path5529"
           inkscape:connector-curvature="0" />
        <path
           d="m 152.69164,32.444665 h -3.50122 l -3.36117,15.797508 h 3.64127 l 1.93267,-9.131184 c 0.5602,-2.32481 2.21277,-2.828986 4.17346,-2.632918 l 0.92432,-4.313504 c -0.53219,0.02801 -1.23243,-0.02801 -2.43685,0.840293 -0.64422,0.448156 -1.23243,1.092381 -1.90466,2.240781 h -0.056 z"
           style="font-size:28.00976563px;letter-spacing:-1.59430599px;fill:url(#linearGradient5184);fill-opacity:1;stroke:#181818;stroke-width:0.37513077;stroke-opacity:1"
           id="path5531"
           inkscape:connector-curvature="0" />
      </g>
      <g
         aria-label="Simulator"
         style="font-style:normal;font-variant:normal;font-weight:normal;font-stretch:normal;font-size:6.00209236px;line-height:1;font-family:DINPro;-inkscape-font-specification:DINPro;letter-spacing:0px;word-spacing:0px;fill:url(#linearGradient5486);fill-opacity:1;stroke:#181818;stroke-width:0.37513077;stroke-opacity:1"
         id="text5480">
        <path
           d="m 39.433384,61.221708 c 0.540189,-2.664929 2.052716,-8.859089 -5.978084,-8.859089 -5.329859,0 -8.462951,2.520879 -9.43529,7.130487 -0.288101,1.440502 -0.144051,2.917017 0.43215,4.141444 1.476515,2.700942 4.429545,4.177457 6.626311,6.230172 1.116389,0.900314 1.584552,1.980691 1.260439,3.565244 -0.43215,2.052715 -1.69259,3.169105 -3.817331,3.169105 -2.484866,0 -2.881004,-1.908666 -2.196766,-4.537583 l 0.324113,-1.584552 h -5.041758 l -0.396138,1.98069 c -1.044364,4.825683 0.396138,8.210864 6.446248,8.210864 4.93372,0 8.895102,-2.66493 9.975478,-7.778713 0.504176,-2.340816 0.288101,-3.961381 -1.080376,-5.653971 -1.080377,-1.368478 -3.745306,-3.385181 -5.149796,-4.429545 -1.368477,-1.008352 -2.520879,-1.800628 -2.088728,-3.853344 0.396138,-1.83664 1.620565,-2.520879 3.313155,-2.520879 2.772967,0 2.484866,2.376829 1.944678,4.78967 z"
           style="font-style:oblique;font-variant:normal;font-weight:bold;font-stretch:condensed;font-size:36.01255798px;font-family:'Helvetica LT Std';-inkscape-font-specification:'Helvetica LT Std Bold Oblique Condensed';letter-spacing:-1.59430599px;fill:url(#linearGradient5186);fill-opacity:1;stroke:#181818;stroke-width:0.37513077;stroke-opacity:1"
           id="path5534"
           inkscape:connector-curvature="0" />
        <path
           d="M 41.99159,77.609974 45.352761,61.812467 H 41.711492 L 38.35032,77.609974 Z m 3.753308,-17.702171 0.700244,-3.305153 h -3.641269 l -0.700244,3.305153 z"
           style="font-size:28.00976563px;letter-spacing:-1.59430599px;fill:url(#linearGradient5188);fill-opacity:1;stroke:#181818;stroke-width:0.37513077;stroke-opacity:1"
           id="path5536"
           inkscape:connector-curvature="0" />
        <path
           d="m 51.30271,61.812467 h -3.64127 l -3.361172,15.797507 h 3.64127 l 2.212771,-10.391623 c 0.364127,-1.736605 0.728254,-2.997045 2.43685,-3.025054 1.680586,-0.02801 1.540537,1.1484 1.23243,2.548888 l -2.296801,10.867789 h 3.64127 l 2.212771,-10.391623 c 0.392137,-1.848644 0.896312,-2.941025 2.492869,-3.025054 1.596557,-0.08403 1.456508,1.316459 1.148401,2.744957 l -2.268791,10.67172 h 3.641269 l 2.744957,-12.856482 c 0.336117,-1.680586 -0.476166,-3.361172 -3.165103,-3.361172 -0.896313,0 -1.652577,0.168059 -2.324811,0.504176 -0.672234,0.336117 -1.23243,0.840293 -1.736605,1.540537 h -0.05602 c 0.08403,-1.484518 -1.596557,-2.072723 -2.941025,-2.044713 -1.176411,0.05602 -2.716948,0.308108 -3.893358,2.044713 h -0.05602 z"
           style="font-size:28.00976563px;letter-spacing:-1.59430599px;fill:url(#linearGradient5190);fill-opacity:1;stroke:#181818;stroke-width:0.37513077;stroke-opacity:1"
           id="path5538"
           inkscape:connector-curvature="0" />
        <path
           d="m 71.229531,77.609974 h 3.473211 l 3.361172,-15.797507 h -3.641269 l -2.184762,10.251574 c -0.252088,1.232429 -0.644225,3.165103 -2.35282,3.165103 -0.476167,0 -0.784274,-0.168058 -1.008352,-0.504175 -0.252088,-0.616215 -0.05602,-1.400489 0.08403,-2.100733 l 2.296801,-10.811769 h -3.64127 l -2.576898,12.100218 c -0.560195,2.632918 -0.224078,4.117436 2.660928,4.117436 1.764615,-0.02801 3.025054,-0.896313 3.977387,-2.772967 h 0.05602 z"
           style="font-size:28.00976563px;letter-spacing:-1.59430599px;fill:url(#linearGradient5192);fill-opacity:1;stroke:#181818;stroke-width:0.37513077;stroke-opacity:1"
           id="path5540"
           inkscape:connector-curvature="0" />
        <path
           d="M 80.755105,77.609974 85.208658,56.60265 h -3.64127 l -4.453552,21.007324 z"
           style="font-size:28.00976563px;letter-spacing:-1.59430599px;fill:url(#linearGradient5194);fill-opacity:1;stroke:#181818;stroke-width:0.37513077;stroke-opacity:1"
           id="path5542"
           inkscape:connector-curvature="0" />
        <path
           d="m 93.539436,77.609974 c -0.02801,-0.728254 0,-1.456507 0.168059,-2.212771 l 1.988693,-9.327252 c 0.476166,-2.072723 0.728254,-4.677631 -4.229474,-4.677631 -4.565592,0 -5.99409,2.100733 -6.610305,5.097777 h 3.473211 c 0.280098,-1.428498 0.756264,-2.2968 2.40884,-2.2968 0.980341,0 1.512527,0.112039 1.540537,0.812283 0.02801,1.288449 -0.672235,1.988693 -2.352821,2.632918 -3.109083,1.17641 -5.854041,2.044713 -6.610304,5.657972 -0.700244,3.249133 0.280097,4.733651 3.221123,4.733651 0.616215,0 1.23243,-0.196068 1.848644,-0.532186 0.616215,-0.336117 1.20442,-0.868302 1.764616,-1.512527 h 0.05602 c -0.168058,0.560195 -0.252088,1.120391 -0.112039,1.624566 z M 90.990548,70.99967 c -0.392137,1.512527 -0.588205,4.229474 -2.744957,4.229474 -1.344469,0 -1.540538,-0.812283 -1.28845,-2.016703 0.140049,-0.672234 0.392137,-1.456508 1.036362,-1.904664 1.12039,-0.784273 2.32481,-1.400488 3.361172,-2.016703 z"
           style="font-size:28.00976563px;letter-spacing:-1.59430599px;fill:url(#linearGradient5196);fill-opacity:1;stroke:#181818;stroke-width:0.37513077;stroke-opacity:1"
           id="path5544"
           inkscape:connector-curvature="0" />
        <path
           d="m 101.27238,74.808998 c -0.44815,0.05602 -1.484516,0.140049 -1.428497,-0.532186 l 2.100737,-9.803418 h 1.54053 l 0.5602,-2.660927 h -1.54054 l 0.92432,-4.341514 h -3.669276 l -0.924322,4.341514 h -1.456508 l -0.560195,2.660927 h 1.484517 l -2.296801,10.699731 c -0.616215,2.941025 2.46486,2.744957 4.677635,2.492869 z"
           style="font-size:28.00976563px;letter-spacing:-1.59430599px;fill:url(#linearGradient5198);fill-opacity:1;stroke:#181818;stroke-width:0.37513077;stroke-opacity:1"
           id="path5546"
           inkscape:connector-curvature="0" />
        <path
           d="m 107.1383,67.190342 c 0.30811,-1.484518 0.64422,-2.997045 2.5769,-2.997045 1.82063,0 1.48452,1.512527 1.17641,2.997045 l -1.12039,5.265836 c -0.42015,1.932673 -0.72826,2.772966 -2.40884,2.772966 -1.76462,0 -1.76462,-0.840293 -1.34447,-2.772966 z m -0.36413,10.839779 c 4.67763,0.08403 5.96608,-2.268791 7.11448,-7.758705 1.12039,-5.405885 1.82064,-8.879096 -3.58525,-8.879096 -5.48991,0 -6.27418,3.473211 -7.45059,8.879096 -1.20442,5.489914 -0.89632,7.842734 3.92136,7.758705 z"
           style="font-size:28.00976563px;letter-spacing:-1.59430599px;fill:url(#linearGradient5200);fill-opacity:1;stroke:#181818;stroke-width:0.37513077;stroke-opacity:1"
           id="path5548"
           inkscape:connector-curvature="0" />
        <path
           d="m 120.7533,61.812467 h -3.50122 l -3.36118,15.797507 h 3.64127 l 1.93268,-9.131183 c 0.56019,-2.324811 2.21277,-2.828987 4.17345,-2.632918 l 0.92432,-4.313504 c -0.53218,0.02801 -1.23243,-0.02801 -2.43685,0.840293 -0.64422,0.448156 -1.23243,1.092381 -1.90466,2.240781 h -0.056 z"
           style="font-size:28.00976563px;letter-spacing:-1.59430599px;fill:url(#linearGradient5202);fill-opacity:1;stroke:#181818;stroke-width:0.37513077;stroke-opacity:1"
           id="path5550"
           inkscape:connector-curvature="0" />
      </g>
    </g>
    <text
       xml:space="preserve"
       style="font-style:normal;font-variant:normal;font-weight:normal;font-stretch:normal;font-size:6.79286861px;line-height:1;font-family:DINPro;-inkscape-font-specification:DINPro;letter-spacing:0px;word-spacing:0px;fill:url(#linearGradient6037);fill-opacity:1;stroke:#181818;stroke-width:0.42455429;stroke-opacity:1"
       x="125.16347"
       y="77.692802"
       id="text5835"
       inkscape:export-xdpi="234.31"
       inkscape:export-ydpi="234.31"><tspan
         sodipodi:role="line"
         id="tspan5833"
         x="125.16347"
         y="77.692802"
         style="font-style:oblique;font-variant:normal;font-weight:900;font-stretch:condensed;font-size:36.22863388px;font-family:'Helvetica LT Std';-inkscape-font-specification:'Helvetica LT Std Heavy Oblique Condensed';letter-spacing:-0.98921162px;stroke-width:0.42455429;stroke:#181818;stroke-opacity:1;fill-opacity:1;fill:url(#linearGradient6037)"><tspan
           style="letter-spacing:0px;stroke-width:0.42455429;stroke:#181818;stroke-opacity:1;fill-opacity:1;fill:url(#linearGradient6037)"
           id="tspan6023">2</tspan><tspan
           style="font-style:oblique;font-variant:normal;font-weight:900;font-stretch:condensed;font-family:'Helvetica LT Std';-inkscape-font-specification:'Helvetica LT Std Heavy Oblique Condensed';letter-spacing:0px;stroke-width:0.42455429;stroke:#181818;stroke-opacity:1;fill-opacity:1;fill:url(#linearGradient6037)"
           id="tspan6017">0<tspan
   style="letter-spacing:-3.82948041px;stroke-width:0.42455429;stroke:#181818;stroke-opacity:1;fill-opacity:1;fill:url(#linearGradient6037)"
   id="tspan6025">1</tspan></tspan><tspan
           style="letter-spacing:0px;stroke-width:0.42455429;stroke:#181818;stroke-opacity:1;fill-opacity:1;fill:url(#linearGradient6037)"
           id="tspan6021">6</tspan></tspan></text>
  </g>
</svg>
