<?xml version="1.0" encoding="UTF-8" standalone="no"?>
<!-- Created with Inkscape (http://www.inkscape.org/) -->

<svg
   xmlns:dc="http://purl.org/dc/elements/1.1/"
   xmlns:cc="http://creativecommons.org/ns#"
   xmlns:rdf="http://www.w3.org/1999/02/22-rdf-syntax-ns#"
   xmlns:svg="http://www.w3.org/2000/svg"
   xmlns="http://www.w3.org/2000/svg"
   xmlns:sodipodi="http://sodipodi.sourceforge.net/DTD/sodipodi-0.dtd"
   xmlns:inkscape="http://www.inkscape.org/namespaces/inkscape"
   width="260mm"
   height="145mm"
   viewBox="0 0 260 145"
   version="1.1"
   id="svg8"
   inkscape:version="0.92.1 r15371"
   sodipodi:docname="Poster-textpaths.svg">
  <defs
     id="defs2" />
  <sodipodi:namedview
     id="base"
     pagecolor="#ffffff"
     bordercolor="#666666"
     borderopacity="1.0"
     inkscape:pageopacity="0.0"
     inkscape:pageshadow="2"
     inkscape:zoom="0.98994949"
     inkscape:cx="477.75478"
     inkscape:cy="231.61904"
     inkscape:document-units="mm"
     inkscape:current-layer="layer1"
     showgrid="false"
     showguides="true"
     inkscape:guide-bbox="true"
     inkscape:window-width="1920"
     inkscape:window-height="1001"
     inkscape:window-x="-9"
     inkscape:window-y="-9"
     inkscape:window-maximized="1">
    <sodipodi:guide
       position="-99.029761,156.86012"
       orientation="1,0"
       id="guide4508"
       inkscape:locked="false" />
    <sodipodi:guide
       position="-81.642857,138.52827"
       orientation="1,0"
       id="guide4512"
       inkscape:locked="false" />
  </sodipodi:namedview>
  <metadata
     id="metadata5">
    <rdf:RDF>
      <cc:Work
         rdf:about="">
        <dc:format>image/svg+xml</dc:format>
        <dc:type
           rdf:resource="http://purl.org/dc/dcmitype/StillImage" />
        <dc:title></dc:title>
      </cc:Work>
    </rdf:RDF>
  </metadata>
  <g
     inkscape:label="Layer 1"
     inkscape:groupmode="layer"
     id="layer1"
     transform="translate(0,-152)">
    <rect
       style="opacity:1;fill:#ffffff;fill-opacity:1;stroke:none;stroke-width:0.5;stroke-linecap:square;stroke-linejoin:miter;stroke-miterlimit:4;stroke-dasharray:none;stroke-opacity:1;paint-order:stroke fill markers"
       id="rect4904"
       width="280.36572"
       height="154.48178"
       x="-7.7508163"
       y="145.1909" />
    <path
       style="opacity:1;fill:#000000;fill-opacity:1;stroke:none;stroke-width:0.6744948;stroke-linecap:square;stroke-linejoin:miter;stroke-miterlimit:4;stroke-dasharray:none;stroke-opacity:1;paint-order:stroke fill markers"
       d="m 26.559248,164.11451 v 24.61968 A 39.02135,39.02135 0 0 0 8.056503,221.89341 39.02135,39.02135 0 0 0 26.559248,255.0273 v 24.64449 h 41.037806 v -24.61968 a 39.02135,39.02135 0 0 0 18.502231,-33.1587 39.02135,39.02135 0 0 0 -18.502231,-33.1339 v -24.645 z m 20.518644,26.81645 a 30.962192,30.962192 0 0 1 30.962452,30.96193 30.962192,30.962192 0 0 1 -30.962452,30.96245 30.962192,30.962192 0 0 1 -30.961933,-30.96245 30.962192,30.962192 0 0 1 30.961933,-30.96193 z"
       id="rect4516"
       inkscape:connector-curvature="0" />
    <text
       id="text4537"
       y="233.51685"
       x="179.94031"
       style="font-style:normal;font-variant:normal;font-weight:normal;font-stretch:normal;font-size:4.23333311px;line-height:1;font-family:DINPro;-inkscape-font-specification:DINPro;letter-spacing:0px;word-spacing:0px;fill:#000000;fill-opacity:1;stroke:none;stroke-width:0.26458332"
       xml:space="preserve"><tspan
         style="font-style:normal;font-variant:normal;font-weight:bold;font-stretch:normal;font-size:11.28888893px;font-family:'Helvetica Neue LT Std';-inkscape-font-specification:'Helvetica Neue LT Std Bold';text-align:center;text-anchor:middle;stroke-width:0.26458332"
         y="236.75111"
         x="179.94031"
         id="tspan4535"
         sodipodi:role="line" /></text>
    <g
       id="g4632"
       transform="translate(-0.30819306)">
      <g
         aria-label="THESE ARE NOT WATCH PARTS"
         transform="matrix(0.26458333,0,0,0.26458333,0.56696429,170.52083)"
         style="font-style:normal;font-variant:normal;font-weight:normal;font-stretch:normal;font-size:16px;line-height:1;font-family:DINPro;-inkscape-font-specification:DINPro;letter-spacing:0px;word-spacing:0px;fill:#000000;fill-opacity:1;stroke:none"
         id="flowRoot4539">
        <path
           d="m 399.89366,253.49525 h 6.69867 v -24.832 h 9.13066 v -5.632 h -24.96 v 5.632 h 9.13067 z"
           style="font-style:normal;font-variant:normal;font-weight:bold;font-stretch:normal;font-size:42.66666794px;font-family:'Helvetica Neue LT Std';-inkscape-font-specification:'Helvetica Neue LT Std Bold';text-align:center;text-anchor:middle"
           id="path4782" />
        <path
           d="m 419.23566,253.49525 h 6.69867 v -13.14133 h 12.33066 v 13.14133 h 6.69867 v -30.464 h -6.69867 v 11.69067 h -12.33066 v -11.69067 h -6.69867 z"
           style="font-style:normal;font-variant:normal;font-weight:bold;font-stretch:normal;font-size:42.66666794px;font-family:'Helvetica Neue LT Std';-inkscape-font-specification:'Helvetica Neue LT Std Bold';text-align:center;text-anchor:middle"
           id="path4784" />
        <path
           d="m 450.81899,253.49525 h 23.12534 v -5.632 h -16.42667 v -7.46667 h 14.76267 v -5.20533 h -14.76267 v -6.528 h 16.08533 v -5.632 h -22.784 z"
           style="font-style:normal;font-variant:normal;font-weight:bold;font-stretch:normal;font-size:42.66666794px;font-family:'Helvetica Neue LT Std';-inkscape-font-specification:'Helvetica Neue LT Std Bold';text-align:center;text-anchor:middle"
           id="path4786" />
        <path
           d="m 476.56566,243.38325 c -0.0853,7.50933 6.22934,10.83733 12.97067,10.83733 8.27733,0 12.672,-4.18133 12.672,-9.77066 0,-6.912 -6.82667,-8.32 -9.04533,-8.87467 -7.63734,-1.96267 -9.088,-2.26133 -9.088,-4.608 0,-2.56 2.47466,-3.456 4.608,-3.456 3.2,0 5.80266,0.93867 6.016,4.608 h 6.48533 c 0,-7.04 -5.84533,-9.81333 -12.20267,-9.81333 -5.504,0 -11.392,2.98666 -11.392,9.216 0,5.71733 4.56534,7.46666 9.088,8.66133 4.48,1.19467 9.04534,1.74933 9.04534,5.03467 0,3.11466 -3.584,3.79733 -5.93067,3.79733 -3.584,0 -6.74133,-1.57867 -6.74133,-5.632 z"
           style="font-style:normal;font-variant:normal;font-weight:bold;font-stretch:normal;font-size:42.66666794px;font-family:'Helvetica Neue LT Std';-inkscape-font-specification:'Helvetica Neue LT Std Bold';text-align:center;text-anchor:middle"
           id="path4788" />
        <path
           d="m 506.15233,253.49525 h 23.12533 v -5.632 h -16.42667 v -7.46667 h 14.76267 v -5.20533 h -14.76267 v -6.528 h 16.08534 v -5.632 h -22.784 z"
           style="font-style:normal;font-variant:normal;font-weight:bold;font-stretch:normal;font-size:42.66666794px;font-family:'Helvetica Neue LT Std';-inkscape-font-specification:'Helvetica Neue LT Std Bold';text-align:center;text-anchor:middle"
           id="path4790" />
        <path
           d="m 542.40966,253.49525 h 6.784 l 2.38933,-6.784 h 11.392 l 2.304,6.784 h 6.95467 l -11.392,-30.464 h -6.86933 z m 14.89067,-22.95467 h 0.0853 l 3.84,11.17867 h -7.89333 z"
           style="font-style:normal;font-variant:normal;font-weight:bold;font-stretch:normal;font-size:42.66666794px;font-family:'Helvetica Neue LT Std';-inkscape-font-specification:'Helvetica Neue LT Std Bold';text-align:center;text-anchor:middle"
           id="path4792" />
        <path
           d="m 574.90233,253.49525 h 6.69866 v -11.904 h 6.69867 c 3.37067,0 4.608,1.408 5.07733,4.608 0.34134,2.432 0.256,5.376 1.06667,7.296 h 6.69867 c -1.19467,-1.70667 -1.152,-5.29067 -1.28,-7.21067 -0.21334,-3.072 -1.152,-6.272 -4.43734,-7.12533 v -0.0853 c 3.37067,-1.36534 4.82134,-4.05334 4.82134,-7.63734 0,-4.608 -3.456,-8.40533 -8.91734,-8.40533 h -16.42666 z m 6.69866,-25.25867 h 7.33867 c 2.98667,0 4.608,1.28 4.608,4.224 0,3.072 -1.62133,4.352 -4.608,4.352 h -7.33867 z"
           style="font-style:normal;font-variant:normal;font-weight:bold;font-stretch:normal;font-size:42.66666794px;font-family:'Helvetica Neue LT Std';-inkscape-font-specification:'Helvetica Neue LT Std Bold';text-align:center;text-anchor:middle"
           id="path4794" />
        <path
           d="M 605.73567,253.49525 H 628.861 v -5.632 h -16.42666 v -7.46667 H 627.197 v -5.20533 h -14.76266 v -6.528 h 16.08533 v -5.632 h -22.784 z"
           style="font-style:normal;font-variant:normal;font-weight:bold;font-stretch:normal;font-size:42.66666794px;font-family:'Helvetica Neue LT Std';-inkscape-font-specification:'Helvetica Neue LT Std Bold';text-align:center;text-anchor:middle"
           id="path4796" />
        <path
           d="m 645.23567,253.49525 h 6.272 v -20.39467 h 0.0853 l 12.672,20.39467 h 6.69867 v -30.464 h -6.272 v 20.43733 h -0.0853 l -12.71467,-20.43733 h -6.656 z"
           style="font-style:normal;font-variant:normal;font-weight:bold;font-stretch:normal;font-size:42.66666794px;font-family:'Helvetica Neue LT Std';-inkscape-font-specification:'Helvetica Neue LT Std Bold';text-align:center;text-anchor:middle"
           id="path4798" />
        <path
           d="m 675.49635,238.39125 c 0,8.78933 5.54666,15.82933 14.976,15.82933 9.42933,0 14.976,-7.04 14.976,-15.82933 0,-9.04533 -5.54667,-16.08533 -14.976,-16.08533 -9.42934,0 -14.976,7.04 -14.976,16.08533 z m 6.69866,0 c 0,-5.33333 2.26134,-10.45333 8.27734,-10.45333 6.016,0 8.27733,5.12 8.27733,10.45333 0,5.07733 -2.26133,10.19733 -8.27733,10.19733 -6.016,0 -8.27734,-5.12 -8.27734,-10.19733 z"
           style="font-style:normal;font-variant:normal;font-weight:bold;font-stretch:normal;font-size:42.66666794px;font-family:'Helvetica Neue LT Std';-inkscape-font-specification:'Helvetica Neue LT Std Bold';text-align:center;text-anchor:middle"
           id="path4800" />
        <path
           d="m 716.727,253.49525 h 6.69867 v -24.832 h 9.13067 v -5.632 h -24.96 v 5.632 h 9.13066 z"
           style="font-style:normal;font-variant:normal;font-weight:bold;font-stretch:normal;font-size:42.66666794px;font-family:'Helvetica Neue LT Std';-inkscape-font-specification:'Helvetica Neue LT Std Bold';text-align:center;text-anchor:middle"
           id="path4802" />
        <path
           d="m 785.10766,223.03125 h -6.57067 l -4.992,20.992 h -0.0853 l -5.20533,-20.992 h -6.272 l -5.29067,20.736 h -0.0853 l -4.82134,-20.736 h -6.69866 l 8.064,30.464 h 6.784 l 5.07733,-20.736 h 0.0853 l 5.16267,20.736 h 6.656 z"
           style="font-style:normal;font-variant:normal;font-weight:bold;font-stretch:normal;font-size:42.66666794px;font-family:'Helvetica Neue LT Std';-inkscape-font-specification:'Helvetica Neue LT Std Bold';text-align:center;text-anchor:middle"
           id="path4804" />
        <path
           d="m 784.15966,253.49525 h 6.784 l 2.38933,-6.784 h 11.392 l 2.304,6.784 h 6.95467 l -11.392,-30.464 h -6.86933 z m 14.89067,-22.95467 h 0.0853 l 3.84,11.17867 h -7.89333 z"
           style="font-style:normal;font-variant:normal;font-weight:bold;font-stretch:normal;font-size:42.66666794px;font-family:'Helvetica Neue LT Std';-inkscape-font-specification:'Helvetica Neue LT Std Bold';text-align:center;text-anchor:middle"
           id="path4806" />
        <path
           d="m 820.227,253.49525 h 6.69867 v -24.832 h 9.13067 v -5.632 h -24.96 v 5.632 h 9.13066 z"
           style="font-style:normal;font-variant:normal;font-weight:bold;font-stretch:normal;font-size:42.66666794px;font-family:'Helvetica Neue LT Std';-inkscape-font-specification:'Helvetica Neue LT Std Bold';text-align:center;text-anchor:middle"
           id="path4808" />
        <path
           d="m 866.36368,233.27125 c -0.81067,-7.04 -6.44267,-10.96533 -13.14133,-10.96533 -9.42934,0 -14.976,7.04 -14.976,16.08533 0,8.78933 5.54666,15.82933 14.976,15.82933 7.46666,0 12.71466,-4.864 13.39733,-12.45866 h -6.48533 c -0.512,4.01066 -2.816,6.82666 -6.912,6.82666 -6.016,0 -8.27734,-5.12 -8.27734,-10.19733 0,-5.33333 2.26134,-10.45333 8.27734,-10.45333 3.328,0 6.22933,2.304 6.656,5.33333 z"
           style="font-style:normal;font-variant:normal;font-weight:bold;font-stretch:normal;font-size:42.66666794px;font-family:'Helvetica Neue LT Std';-inkscape-font-specification:'Helvetica Neue LT Std Bold';text-align:center;text-anchor:middle"
           id="path4810" />
        <path
           d="m 871.15233,253.49525 h 6.69866 v -13.14133 h 12.33067 v 13.14133 h 6.69867 v -30.464 h -6.69867 v 11.69067 h -12.33067 v -11.69067 h -6.69866 z"
           style="font-style:normal;font-variant:normal;font-weight:bold;font-stretch:normal;font-size:42.66666794px;font-family:'Helvetica Neue LT Std';-inkscape-font-specification:'Helvetica Neue LT Std Bold';text-align:center;text-anchor:middle"
           id="path4812" />
        <path
           d="m 578.73566,296.16191 h 6.69867 v -10.92267 h 7.04 c 7.59467,0 10.53867,-4.82133 10.53867,-9.77067 0,-4.94933 -2.944,-9.77066 -10.53867,-9.77066 h -13.73867 z m 6.69867,-25.25867 h 5.20534 c 3.11466,0 5.888,0.68267 5.888,4.56533 0,3.88267 -2.77334,4.56534 -5.888,4.56534 h -5.20534 z"
           style="font-style:normal;font-variant:normal;font-weight:bold;font-stretch:normal;font-size:42.66666794px;font-family:'Helvetica Neue LT Std';-inkscape-font-specification:'Helvetica Neue LT Std Bold';text-align:center;text-anchor:middle"
           id="path4814" />
        <path
           d="m 600.82633,296.16191 h 6.784 l 2.38934,-6.784 h 11.392 l 2.304,6.784 h 6.95466 l -11.392,-30.464 H 612.389 Z M 615.717,273.20724 h 0.0853 l 3.84,11.17867 H 611.749 Z"
           style="font-style:normal;font-variant:normal;font-weight:bold;font-stretch:normal;font-size:42.66666794px;font-family:'Helvetica Neue LT Std';-inkscape-font-specification:'Helvetica Neue LT Std Bold';text-align:center;text-anchor:middle"
           id="path4816" />
        <path
           d="m 633.319,296.16191 h 6.69867 v -11.904 h 6.69866 c 3.37067,0 4.608,1.408 5.07734,4.608 0.34133,2.432 0.256,5.376 1.06666,7.296 h 6.69867 c -1.19467,-1.70667 -1.152,-5.29067 -1.28,-7.21067 -0.21333,-3.072 -1.152,-6.272 -4.43733,-7.12533 v -0.0853 c 3.37066,-1.36533 4.82133,-4.05333 4.82133,-7.63733 0,-4.608 -3.456,-8.40533 -8.91733,-8.40533 H 633.319 Z m 6.69867,-25.25867 h 7.33866 c 2.98667,0 4.608,1.28 4.608,4.224 0,3.072 -1.62133,4.352 -4.608,4.352 h -7.33866 z"
           style="font-style:normal;font-variant:normal;font-weight:bold;font-stretch:normal;font-size:42.66666794px;font-family:'Helvetica Neue LT Std';-inkscape-font-specification:'Helvetica Neue LT Std Bold';text-align:center;text-anchor:middle"
           id="path4818" />
        <path
           d="m 670.14367,296.16191 h 6.69867 v -24.832 h 9.13066 v -5.632 h -24.96 v 5.632 h 9.13067 z"
           style="font-style:normal;font-variant:normal;font-weight:bold;font-stretch:normal;font-size:42.66666794px;font-family:'Helvetica Neue LT Std';-inkscape-font-specification:'Helvetica Neue LT Std Bold';text-align:center;text-anchor:middle"
           id="path4820" />
        <path
           d="m 687.56566,286.04991 c -0.0853,7.50933 6.22934,10.83733 12.97067,10.83733 8.27734,0 12.672,-4.18133 12.672,-9.77067 0,-6.912 -6.82666,-8.32 -9.04533,-8.87466 -7.63734,-1.96267 -9.088,-2.26134 -9.088,-4.608 0,-2.56 2.47466,-3.456 4.608,-3.456 3.2,0 5.80267,0.93866 6.016,4.608 h 6.48533 c 0,-7.04 -5.84533,-9.81334 -12.20266,-9.81334 -5.50401,0 -11.39201,2.98667 -11.39201,9.216 0,5.71734 4.56534,7.46667 9.088,8.66134 4.48001,1.19466 9.04534,1.74933 9.04534,5.03466 0,3.11467 -3.584,3.79734 -5.93067,3.79734 -3.584,0 -6.74133,-1.57867 -6.74133,-5.632 z"
           style="font-style:normal;font-variant:normal;font-weight:bold;font-stretch:normal;font-size:42.66666794px;font-family:'Helvetica Neue LT Std';-inkscape-font-specification:'Helvetica Neue LT Std Bold';text-align:center;text-anchor:middle"
           id="path4822" />
      </g>
      <g
         aria-label="Hair
Dark matter
Drywall
Pieces of human brain"
         style="font-style:normal;font-variant:normal;font-weight:normal;font-stretch:normal;font-size:4.23333311px;line-height:1;font-family:DINPro;-inkscape-font-specification:DINPro;text-align:center;letter-spacing:0px;word-spacing:0px;text-anchor:middle;fill:#000000;fill-opacity:1;stroke:none;stroke-width:0.26458332"
         id="text4549">
        <path
           d="m 164.21098,257.87946 h 0.80434 v -2.7686 h 3.18346 v 2.7686 h 0.80434 v -6.0452 h -0.80434 v 2.59926 h -3.18346 v -2.59926 h -0.80434 z"
           style="font-style:normal;font-variant:normal;font-weight:normal;font-stretch:normal;font-size:8.46666622px;font-family:'Helvetica Neue LT Std';-inkscape-font-specification:'Helvetica Neue LT Std';text-align:center;text-anchor:middle;stroke-width:0.26458332"
           id="path4825" />
        <path
           d="m 172.92027,256.35546 c 0,0.39793 -0.38946,0.9906 -1.33773,0.9906 -0.44027,0 -0.84667,-0.16934 -0.84667,-0.64347 0,-0.5334 0.4064,-0.70273 0.88054,-0.7874 0.4826,-0.0847 1.02446,-0.0931 1.30386,-0.29633 z m 1.1684,0.94826 c -0.0931,0.0339 -0.16086,0.0423 -0.22013,0.0423 -0.2286,0 -0.2286,-0.1524 -0.2286,-0.49107 v -2.25213 c 0,-1.02447 -0.85513,-1.20227 -1.64253,-1.20227 -0.97367,0 -1.81187,0.381 -1.8542,1.46473 h 0.71966 c 0.0339,-0.64346 0.4826,-0.82973 1.0922,-0.82973 0.4572,0 0.97367,0.1016 0.97367,0.72813 0,0.54187 -0.67733,0.49107 -1.4732,0.64347 -0.74507,0.14393 -1.48167,0.3556 -1.48167,1.3462 0,0.87207 0.65194,1.22767 1.4478,1.22767 0.6096,0 1.143,-0.21167 1.54094,-0.67734 0,0.47414 0.23706,0.67734 0.6096,0.67734 0.2286,0 0.38946,-0.0423 0.51646,-0.11854 z"
           style="font-style:normal;font-variant:normal;font-weight:normal;font-stretch:normal;font-size:8.46666622px;font-family:'Helvetica Neue LT Std';-inkscape-font-specification:'Helvetica Neue LT Std';text-align:center;text-anchor:middle;stroke-width:0.26458332"
           id="path4827" />
        <path
           d="m 174.8008,257.87946 h 0.71967 v -4.37727 h -0.71967 z m 0.71967,-6.0452 h -0.71967 v 0.88053 h 0.71967 z"
           style="font-style:normal;font-variant:normal;font-weight:normal;font-stretch:normal;font-size:8.46666622px;font-family:'Helvetica Neue LT Std';-inkscape-font-specification:'Helvetica Neue LT Std';text-align:center;text-anchor:middle;stroke-width:0.26458332"
           id="path4829" />
        <path
           d="m 176.61822,257.87946 h 0.71967 v -1.94734 c 0,-1.10913 0.42333,-1.76953 1.58326,-1.76953 v -0.762 c -0.77893,-0.0254 -1.26153,0.32173 -1.60866,1.02447 h -0.0169 v -0.92287 h -0.67733 z"
           style="font-style:normal;font-variant:normal;font-weight:normal;font-stretch:normal;font-size:8.46666622px;font-family:'Helvetica Neue LT Std';-inkscape-font-specification:'Helvetica Neue LT Std';text-align:center;text-anchor:middle;stroke-width:0.26458332"
           id="path4831" />
        <path
           d="m 149.62583,266.34612 h 2.07433 c 2.01507,0 2.90407,-1.143 2.90407,-3.16653 0,-1.94733 -1.0414,-2.87867 -2.90407,-2.87867 h -2.07433 z m 0.80433,-5.36786 h 1.35467 c 1.48166,0 2.01506,0.87206 2.01506,2.3114 0,2.22673 -1.48166,2.37913 -2.032,2.37913 h -1.33773 z"
           style="font-style:normal;font-variant:normal;font-weight:normal;font-stretch:normal;font-size:8.46666622px;font-family:'Helvetica Neue LT Std';-inkscape-font-specification:'Helvetica Neue LT Std';text-align:center;text-anchor:middle;stroke-width:0.26458332"
           id="path4833" />
        <path
           d="m 158.16975,264.82212 c 0,0.39794 -0.38946,0.9906 -1.33773,0.9906 -0.44027,0 -0.84667,-0.16933 -0.84667,-0.64346 0,-0.5334 0.4064,-0.70274 0.88054,-0.7874 0.4826,-0.0847 1.02446,-0.0931 1.30386,-0.29634 z m 1.1684,0.94827 c -0.0931,0.0339 -0.16086,0.0423 -0.22013,0.0423 -0.2286,0 -0.2286,-0.1524 -0.2286,-0.49106 v -2.25214 c 0,-1.02446 -0.85513,-1.20226 -1.64253,-1.20226 -0.97367,0 -1.81187,0.381 -1.8542,1.46473 h 0.71966 c 0.0339,-0.64347 0.4826,-0.82973 1.0922,-0.82973 0.4572,0 0.97367,0.1016 0.97367,0.72813 0,0.54187 -0.67733,0.49107 -1.4732,0.64347 -0.74507,0.14393 -1.48167,0.3556 -1.48167,1.3462 0,0.87206 0.65194,1.22766 1.4478,1.22766 0.6096,0 1.143,-0.21166 1.54094,-0.67733 0,0.47413 0.23706,0.67733 0.6096,0.67733 0.2286,0 0.38946,-0.0423 0.51646,-0.11853 z"
           style="font-style:normal;font-variant:normal;font-weight:normal;font-stretch:normal;font-size:8.46666622px;font-family:'Helvetica Neue LT Std';-inkscape-font-specification:'Helvetica Neue LT Std';text-align:center;text-anchor:middle;stroke-width:0.26458332"
           id="path4835" />
        <path
           d="m 159.98254,266.34612 h 0.71967 v -1.94733 c 0,-1.10913 0.42333,-1.76953 1.58327,-1.76953 v -0.762 c -0.77894,-0.0254 -1.26154,0.32173 -1.60867,1.02446 h -0.0169 v -0.92286 h -0.67734 z"
           style="font-style:normal;font-variant:normal;font-weight:normal;font-stretch:normal;font-size:8.46666622px;font-family:'Helvetica Neue LT Std';-inkscape-font-specification:'Helvetica Neue LT Std';text-align:center;text-anchor:middle;stroke-width:0.26458332"
           id="path4837" />
        <path
           d="m 162.87801,266.34612 h 0.71967 v -1.65946 l 0.67733,-0.62654 1.4986,2.286 h 0.9144 l -1.86266,-2.78553 1.73566,-1.59173 h -0.9652 l -1.99813,1.91346 v -3.5814 h -0.71967 z"
           style="font-style:normal;font-variant:normal;font-weight:normal;font-stretch:normal;font-size:8.46666622px;font-family:'Helvetica Neue LT Std';-inkscape-font-specification:'Helvetica Neue LT Std';text-align:center;text-anchor:middle;stroke-width:0.26458332"
           id="path4839" />
        <path
           d="m 169.58255,266.34612 h 0.71967 v -2.72626 c 0,-0.3302 0.31327,-1.1176 1.1684,-1.1176 0.64347,0 0.82127,0.4064 0.82127,0.97366 v 2.8702 h 0.71966 v -2.72626 c 0,-0.67734 0.44874,-1.1176 1.143,-1.1176 0.70274,0 0.84667,0.4318 0.84667,0.97366 v 2.8702 h 0.71967 v -3.20886 c 0,-0.90594 -0.5842,-1.27 -1.45627,-1.27 -0.5588,0 -1.07527,0.2794 -1.3716,0.74506 -0.1778,-0.5334 -0.66887,-0.74506 -1.20227,-0.74506 -0.60113,0 -1.0922,0.254 -1.41393,0.74506 h -0.0169 v -0.64346 h -0.67734 z"
           style="font-style:normal;font-variant:normal;font-weight:normal;font-stretch:normal;font-size:8.46666622px;font-family:'Helvetica Neue LT Std';-inkscape-font-specification:'Helvetica Neue LT Std';text-align:center;text-anchor:middle;stroke-width:0.26458332"
           id="path4841" />
        <path
           d="m 179.51832,264.82212 c 0,0.39794 -0.38947,0.9906 -1.33773,0.9906 -0.44027,0 -0.84667,-0.16933 -0.84667,-0.64346 0,-0.5334 0.4064,-0.70274 0.88053,-0.7874 0.4826,-0.0847 1.02447,-0.0931 1.30387,-0.29634 z m 1.1684,0.94827 c -0.0931,0.0339 -0.16087,0.0423 -0.22013,0.0423 -0.2286,0 -0.2286,-0.1524 -0.2286,-0.49106 v -2.25214 c 0,-1.02446 -0.85514,-1.20226 -1.64254,-1.20226 -0.97366,0 -1.81186,0.381 -1.8542,1.46473 h 0.71967 c 0.0339,-0.64347 0.4826,-0.82973 1.0922,-0.82973 0.4572,0 0.97367,0.1016 0.97367,0.72813 0,0.54187 -0.67734,0.49107 -1.4732,0.64347 -0.74507,0.14393 -1.48167,0.3556 -1.48167,1.3462 0,0.87206 0.65193,1.22766 1.4478,1.22766 0.6096,0 1.143,-0.21166 1.54093,-0.67733 0,0.47413 0.23707,0.67733 0.6096,0.67733 0.2286,0 0.38947,-0.0423 0.51647,-0.11853 z"
           style="font-style:normal;font-variant:normal;font-weight:normal;font-stretch:normal;font-size:8.46666622px;font-family:'Helvetica Neue LT Std';-inkscape-font-specification:'Helvetica Neue LT Std';text-align:center;text-anchor:middle;stroke-width:0.26458332"
           id="path4843" />
        <path
           d="m 182.35558,260.65652 h -0.71967 v 1.31234 h -0.74507 v 0.635 h 0.74507 v 2.78553 c 0,0.80433 0.29633,0.95673 1.0414,0.95673 h 0.55033 v -0.635 h -0.3302 c -0.44873,0 -0.54186,-0.0593 -0.54186,-0.38946 v -2.7178 h 0.87206 v -0.635 h -0.87206 z"
           style="font-style:normal;font-variant:normal;font-weight:normal;font-stretch:normal;font-size:8.46666622px;font-family:'Helvetica Neue LT Std';-inkscape-font-specification:'Helvetica Neue LT Std';text-align:center;text-anchor:middle;stroke-width:0.26458332"
           id="path4845" />
        <path
           d="m 185.01795,260.65652 h -0.71967 v 1.31234 h -0.74507 v 0.635 h 0.74507 v 2.78553 c 0,0.80433 0.29633,0.95673 1.0414,0.95673 h 0.55033 v -0.635 h -0.3302 c -0.44873,0 -0.54186,-0.0593 -0.54186,-0.38946 v -2.7178 h 0.87206 v -0.635 h -0.87206 z"
           style="font-style:normal;font-variant:normal;font-weight:normal;font-stretch:normal;font-size:8.46666622px;font-family:'Helvetica Neue LT Std';-inkscape-font-specification:'Helvetica Neue LT Std';text-align:center;text-anchor:middle;stroke-width:0.26458332"
           id="path4847" />
        <path
           d="m 189.70385,264.95759 c -0.127,0.56727 -0.54186,0.85513 -1.13453,0.85513 -0.95673,0 -1.38853,-0.67733 -1.36313,-1.43933 h 3.2766 c 0.0423,-1.05833 -0.4318,-2.50613 -1.9812,-2.50613 -1.1938,0 -2.0574,0.9652 -2.0574,2.27753 0.0423,1.33773 0.70273,2.30293 2.09973,2.30293 0.98213,0 1.6764,-0.52493 1.87113,-1.49013 z m -2.49766,-1.2192 c 0.0508,-0.66887 0.49953,-1.23613 1.25306,-1.23613 0.7112,0 1.22767,0.55033 1.26154,1.23613 z"
           style="font-style:normal;font-variant:normal;font-weight:normal;font-stretch:normal;font-size:8.46666622px;font-family:'Helvetica Neue LT Std';-inkscape-font-specification:'Helvetica Neue LT Std';text-align:center;text-anchor:middle;stroke-width:0.26458332"
           id="path4849" />
        <path
           d="m 191.20338,266.34612 h 0.71966 v -1.94733 c 0,-1.10913 0.42334,-1.76953 1.58327,-1.76953 v -0.762 c -0.77893,-0.0254 -1.26153,0.32173 -1.60867,1.02446 h -0.0169 v -0.92286 h -0.67733 z"
           style="font-style:normal;font-variant:normal;font-weight:normal;font-stretch:normal;font-size:8.46666622px;font-family:'Helvetica Neue LT Std';-inkscape-font-specification:'Helvetica Neue LT Std';text-align:center;text-anchor:middle;stroke-width:0.26458332"
           id="path4851" />
        <path
           d="m 158.02635,274.81279 h 2.07433 c 2.01507,0 2.90407,-1.143 2.90407,-3.16654 0,-1.94733 -1.0414,-2.87866 -2.90407,-2.87866 h -2.07433 z m 0.80433,-5.36787 h 1.35467 c 1.48166,0 2.01506,0.87207 2.01506,2.3114 0,2.22673 -1.48166,2.37913 -2.032,2.37913 h -1.33773 z"
           style="font-style:normal;font-variant:normal;font-weight:normal;font-stretch:normal;font-size:8.46666622px;font-family:'Helvetica Neue LT Std';-inkscape-font-specification:'Helvetica Neue LT Std';text-align:center;text-anchor:middle;stroke-width:0.26458332"
           id="path4853" />
        <path
           d="m 163.83554,274.81279 h 0.71967 v -1.94734 c 0,-1.10913 0.42333,-1.76953 1.58326,-1.76953 v -0.762 c -0.77893,-0.0254 -1.26153,0.32173 -1.60866,1.02447 h -0.0169 v -0.92287 h -0.67733 z"
           style="font-style:normal;font-variant:normal;font-weight:normal;font-stretch:normal;font-size:8.46666622px;font-family:'Helvetica Neue LT Std';-inkscape-font-specification:'Helvetica Neue LT Std';text-align:center;text-anchor:middle;stroke-width:0.26458332"
           id="path4855" />
        <path
           d="m 170.31241,270.43552 h -0.762 l -1.22767,3.5814 h -0.0169 l -1.27847,-3.5814 h -0.8128 l 1.73567,4.35187 -0.29634,0.74506 c -0.13546,0.254 -0.29633,0.39794 -0.59266,0.39794 -0.14394,0 -0.28787,-0.0593 -0.42334,-0.1016 v 0.6604 c 0.16087,0.0593 0.3302,0.0762 0.49954,0.0762 0.64346,0 0.9398,-0.31327 1.27,-1.1684 z"
           style="font-style:normal;font-variant:normal;font-weight:normal;font-stretch:normal;font-size:8.46666622px;font-family:'Helvetica Neue LT Std';-inkscape-font-specification:'Helvetica Neue LT Std';text-align:center;text-anchor:middle;stroke-width:0.26458332"
           id="path4857" />
        <path
           d="m 176.65394,270.43552 h -0.74507 l -0.98213,3.5814 h -0.0169 l -0.9144,-3.5814 h -0.7874 l -0.88054,3.5814 h -0.0169 l -0.9906,-3.5814 h -0.79587 l 1.40547,4.37727 h 0.77893 l 0.88054,-3.4798 h 0.0169 l 0.889,3.4798 h 0.762 z"
           style="font-style:normal;font-variant:normal;font-weight:normal;font-stretch:normal;font-size:8.46666622px;font-family:'Helvetica Neue LT Std';-inkscape-font-specification:'Helvetica Neue LT Std';text-align:center;text-anchor:middle;stroke-width:0.26458332"
           id="path4859" />
        <path
           d="m 180.04749,273.28879 c 0,0.39793 -0.38947,0.9906 -1.33774,0.9906 -0.44026,0 -0.84666,-0.16934 -0.84666,-0.64347 0,-0.5334 0.4064,-0.70273 0.88053,-0.7874 0.4826,-0.0847 1.02447,-0.0931 1.30387,-0.29633 z m 1.1684,0.94826 c -0.0931,0.0339 -0.16087,0.0423 -0.22014,0.0423 -0.2286,0 -0.2286,-0.1524 -0.2286,-0.49107 v -2.25213 c 0,-1.02447 -0.85513,-1.20227 -1.64253,-1.20227 -0.97367,0 -1.81187,0.381 -1.8542,1.46473 h 0.71967 c 0.0339,-0.64346 0.4826,-0.82973 1.0922,-0.82973 0.4572,0 0.97366,0.1016 0.97366,0.72813 0,0.54187 -0.67733,0.49107 -1.4732,0.64347 -0.74506,0.14393 -1.48166,0.3556 -1.48166,1.3462 0,0.87207 0.65193,1.22767 1.4478,1.22767 0.6096,0 1.143,-0.21167 1.54093,-0.67734 0,0.47414 0.23707,0.67734 0.6096,0.67734 0.2286,0 0.38947,-0.0423 0.51647,-0.11854 z"
           style="font-style:normal;font-variant:normal;font-weight:normal;font-stretch:normal;font-size:8.46666622px;font-family:'Helvetica Neue LT Std';-inkscape-font-specification:'Helvetica Neue LT Std';text-align:center;text-anchor:middle;stroke-width:0.26458332"
           id="path4861" />
        <path
           d="m 181.92801,274.81279 h 0.71967 v -6.0452 h -0.71967 z"
           style="font-style:normal;font-variant:normal;font-weight:normal;font-stretch:normal;font-size:8.46666622px;font-family:'Helvetica Neue LT Std';-inkscape-font-specification:'Helvetica Neue LT Std';text-align:center;text-anchor:middle;stroke-width:0.26458332"
           id="path4863" />
        <path
           d="m 183.81317,274.81279 h 0.71966 v -6.0452 h -0.71966 z"
           style="font-style:normal;font-variant:normal;font-weight:normal;font-stretch:normal;font-size:8.46666622px;font-family:'Helvetica Neue LT Std';-inkscape-font-specification:'Helvetica Neue LT Std';text-align:center;text-anchor:middle;stroke-width:0.26458332"
           id="path4865" />
        <path
           d="m 129.60845,283.27945 h 0.80433 v -2.47226 h 1.84573 c 1.20227,0.008 1.8542,-0.66887 1.8542,-1.78647 0,-1.1176 -0.65193,-1.78647 -1.8542,-1.78647 h -2.65006 z m 0.80433,-5.36786 h 1.5748 c 0.90593,0 1.3208,0.38946 1.3208,1.10913 0,0.71967 -0.41487,1.1176 -1.3208,1.10913 h -1.5748 z"
           style="font-style:normal;font-variant:normal;font-weight:normal;font-stretch:normal;font-size:8.46666622px;font-family:'Helvetica Neue LT Std';-inkscape-font-specification:'Helvetica Neue LT Std';text-align:center;text-anchor:middle;stroke-width:0.26458332"
           id="path4867" />
        <path
           d="m 135.02235,283.27945 h 0.71967 v -4.37726 h -0.71967 z m 0.71967,-6.0452 h -0.71967 v 0.88054 h 0.71967 z"
           style="font-style:normal;font-variant:normal;font-weight:normal;font-stretch:normal;font-size:8.46666622px;font-family:'Helvetica Neue LT Std';-inkscape-font-specification:'Helvetica Neue LT Std';text-align:center;text-anchor:middle;stroke-width:0.26458332"
           id="path4869" />
        <path
           d="m 139.88777,281.89092 c -0.127,0.56727 -0.54186,0.85513 -1.13453,0.85513 -0.95673,0 -1.38853,-0.67733 -1.36313,-1.43933 h 3.2766 c 0.0423,-1.05833 -0.4318,-2.50613 -1.9812,-2.50613 -1.1938,0 -2.0574,0.9652 -2.0574,2.27753 0.0423,1.33773 0.70273,2.30293 2.09973,2.30293 0.98213,0 1.6764,-0.52493 1.87113,-1.49013 z m -2.49766,-1.2192 c 0.0508,-0.66887 0.49953,-1.23613 1.25306,-1.23613 0.7112,0 1.22767,0.55033 1.26154,1.23613 z"
           style="font-style:normal;font-variant:normal;font-weight:normal;font-stretch:normal;font-size:8.46666622px;font-family:'Helvetica Neue LT Std';-inkscape-font-specification:'Helvetica Neue LT Std';text-align:center;text-anchor:middle;stroke-width:0.26458332"
           id="path4871" />
        <path
           d="m 145.12956,280.30765 c -0.1016,-1.0414 -0.89746,-1.50706 -1.88806,-1.50706 -1.38853,0 -2.06587,1.03293 -2.06587,2.34526 0,1.30387 0.7112,2.2352 2.04894,2.2352 1.10066,0 1.76953,-0.635 1.93039,-1.7018 h -0.7366 c -0.0931,0.6604 -0.508,1.0668 -1.20226,1.0668 -0.9144,0 -1.27847,-0.79586 -1.27847,-1.6002 0,-0.889 0.32174,-1.71026 1.36314,-1.71026 0.59266,0 0.97366,0.32173 1.08373,0.87206 z"
           style="font-style:normal;font-variant:normal;font-weight:normal;font-stretch:normal;font-size:8.46666622px;font-family:'Helvetica Neue LT Std';-inkscape-font-specification:'Helvetica Neue LT Std';text-align:center;text-anchor:middle;stroke-width:0.26458332"
           id="path4873" />
        <path
           d="m 148.98282,281.89092 c -0.127,0.56727 -0.54186,0.85513 -1.13453,0.85513 -0.95673,0 -1.38853,-0.67733 -1.36313,-1.43933 h 3.2766 c 0.0423,-1.05833 -0.4318,-2.50613 -1.9812,-2.50613 -1.1938,0 -2.0574,0.9652 -2.0574,2.27753 0.0423,1.33773 0.70273,2.30293 2.09973,2.30293 0.98213,0 1.6764,-0.52493 1.87113,-1.49013 z m -2.49766,-1.2192 c 0.0508,-0.66887 0.49953,-1.23613 1.25306,-1.23613 0.7112,0 1.22767,0.55033 1.26154,1.23613 z"
           style="font-style:normal;font-variant:normal;font-weight:normal;font-stretch:normal;font-size:8.46666622px;font-family:'Helvetica Neue LT Std';-inkscape-font-specification:'Helvetica Neue LT Std';text-align:center;text-anchor:middle;stroke-width:0.26458332"
           id="path4875" />
        <path
           d="m 150.22835,281.89939 c 0.0423,1.08373 0.87207,1.48166 1.8542,1.48166 0.889,0 1.86267,-0.33866 1.86267,-1.38006 0,-0.84667 -0.7112,-1.08374 -1.43087,-1.2446 -0.66887,-0.16087 -1.43087,-0.24554 -1.43087,-0.762 0,-0.44027 0.49954,-0.5588 0.93134,-0.5588 0.47413,0 0.9652,0.1778 1.016,0.7366 h 0.71966 c -0.0593,-1.0668 -0.82973,-1.3716 -1.79493,-1.3716 -0.762,0 -1.63407,0.36406 -1.63407,1.2446 0,0.8382 0.71967,1.07526 1.43087,1.23613 0.71967,0.16087 1.43087,0.254 1.43087,0.8128 0,0.55033 -0.6096,0.65193 -1.05834,0.65193 -0.59266,0 -1.15146,-0.2032 -1.17686,-0.84666 z"
           style="font-style:normal;font-variant:normal;font-weight:normal;font-stretch:normal;font-size:8.46666622px;font-family:'Helvetica Neue LT Std';-inkscape-font-specification:'Helvetica Neue LT Std';text-align:center;text-anchor:middle;stroke-width:0.26458332"
           id="path4877" />
        <path
           d="m 156.85219,281.09505 c 0,1.27847 0.7366,2.286 2.12514,2.286 1.38853,0 2.12513,-1.00753 2.12513,-2.286 0,-1.28693 -0.7366,-2.29446 -2.12513,-2.29446 -1.38854,0 -2.12514,1.00753 -2.12514,2.29446 z m 0.762,0 c 0,-1.0668 0.6096,-1.65946 1.36314,-1.65946 0.75353,0 1.36313,0.59266 1.36313,1.65946 0,1.05834 -0.6096,1.651 -1.36313,1.651 -0.75354,0 -1.36314,-0.59266 -1.36314,-1.651 z"
           style="font-style:normal;font-variant:normal;font-weight:normal;font-stretch:normal;font-size:8.46666622px;font-family:'Helvetica Neue LT Std';-inkscape-font-specification:'Helvetica Neue LT Std';text-align:center;text-anchor:middle;stroke-width:0.26458332"
           id="path4879" />
        <path
           d="m 162.24731,283.27945 h 0.71967 v -3.74226 h 0.84667 v -0.635 h -0.84667 v -0.6096 c 0,-0.381 0.2032,-0.49107 0.55033,-0.49107 0.127,0 0.2794,0.0169 0.4064,0.0593 v -0.62654 c -0.13546,-0.0423 -0.3302,-0.0677 -0.46566,-0.0677 -0.7874,0 -1.21074,0.37253 -1.21074,1.08373 v 0.65194 h -0.7366 v 0.635 h 0.7366 z"
           style="font-style:normal;font-variant:normal;font-weight:normal;font-stretch:normal;font-size:8.46666622px;font-family:'Helvetica Neue LT Std';-inkscape-font-specification:'Helvetica Neue LT Std';text-align:center;text-anchor:middle;stroke-width:0.26458332"
           id="path4881" />
        <path
           d="m 166.8127,283.27945 h 0.71966 v -2.47226 c 0,-0.7874 0.42334,-1.3716 1.2954,-1.3716 0.55034,0 0.889,0.34713 0.889,0.88053 v 2.96333 h 0.71967 v -2.87866 c 0,-0.9398 -0.3556,-1.6002 -1.50707,-1.6002 -0.52493,0 -1.143,0.22013 -1.38006,0.74506 h -0.0169 v -2.3114 h -0.71966 z"
           style="font-style:normal;font-variant:normal;font-weight:normal;font-stretch:normal;font-size:8.46666622px;font-family:'Helvetica Neue LT Std';-inkscape-font-specification:'Helvetica Neue LT Std';text-align:center;text-anchor:middle;stroke-width:0.26458332"
           id="path4883" />
        <path
           d="m 175.14932,278.90219 h -0.71967 v 2.47226 c 0,0.7874 -0.42333,1.3716 -1.2954,1.3716 -0.55033,0 -0.889,-0.34713 -0.889,-0.88053 v -2.96333 h -0.71966 v 2.87866 c 0,0.9398 0.3556,1.6002 1.50706,1.6002 0.62654,0 1.1176,-0.254 1.4224,-0.79586 h 0.0169 v 0.69426 h 0.67733 z"
           style="font-style:normal;font-variant:normal;font-weight:normal;font-stretch:normal;font-size:8.46666622px;font-family:'Helvetica Neue LT Std';-inkscape-font-specification:'Helvetica Neue LT Std';text-align:center;text-anchor:middle;stroke-width:0.26458332"
           id="path4885" />
        <path
           d="m 176.23848,283.27945 h 0.71966 v -2.72626 c 0,-0.3302 0.31327,-1.1176 1.1684,-1.1176 0.64347,0 0.82127,0.4064 0.82127,0.97366 v 2.8702 h 0.71967 v -2.72626 c 0,-0.67734 0.44873,-1.1176 1.143,-1.1176 0.70273,0 0.84666,0.4318 0.84666,0.97366 v 2.8702 h 0.71967 v -3.20886 c 0,-0.90594 -0.5842,-1.27 -1.45627,-1.27 -0.5588,0 -1.07526,0.2794 -1.3716,0.74506 -0.1778,-0.5334 -0.66886,-0.74506 -1.20226,-0.74506 -0.60114,0 -1.0922,0.254 -1.41394,0.74506 h -0.0169 v -0.64346 h -0.67733 z"
           style="font-style:normal;font-variant:normal;font-weight:normal;font-stretch:normal;font-size:8.46666622px;font-family:'Helvetica Neue LT Std';-inkscape-font-specification:'Helvetica Neue LT Std';text-align:center;text-anchor:middle;stroke-width:0.26458332"
           id="path4887" />
        <path
           d="m 186.17424,281.75545 c 0,0.39794 -0.38946,0.9906 -1.33773,0.9906 -0.44027,0 -0.84667,-0.16933 -0.84667,-0.64346 0,-0.5334 0.4064,-0.70274 0.88054,-0.7874 0.4826,-0.0847 1.02446,-0.0931 1.30386,-0.29634 z m 1.1684,0.94827 c -0.0931,0.0339 -0.16086,0.0423 -0.22013,0.0423 -0.2286,0 -0.2286,-0.1524 -0.2286,-0.49106 v -2.25214 c 0,-1.02446 -0.85513,-1.20226 -1.64253,-1.20226 -0.97367,0 -1.81187,0.381 -1.8542,1.46473 h 0.71966 c 0.0339,-0.64347 0.4826,-0.82973 1.0922,-0.82973 0.4572,0 0.97367,0.1016 0.97367,0.72813 0,0.54187 -0.67733,0.49107 -1.4732,0.64347 -0.74507,0.14393 -1.48167,0.3556 -1.48167,1.3462 0,0.87206 0.65194,1.22766 1.4478,1.22766 0.6096,0 1.143,-0.21166 1.54094,-0.67733 0,0.47413 0.23706,0.67733 0.6096,0.67733 0.2286,0 0.38946,-0.0423 0.51646,-0.11853 z"
           style="font-style:normal;font-variant:normal;font-weight:normal;font-stretch:normal;font-size:8.46666622px;font-family:'Helvetica Neue LT Std';-inkscape-font-specification:'Helvetica Neue LT Std';text-align:center;text-anchor:middle;stroke-width:0.26458332"
           id="path4889" />
        <path
           d="m 188.01243,283.27945 h 0.71967 v -2.47226 c 0,-0.7874 0.42333,-1.3716 1.2954,-1.3716 0.55033,0 0.889,0.34713 0.889,0.88053 v 2.96333 h 0.71967 v -2.87866 c 0,-0.9398 -0.3556,-1.6002 -1.50707,-1.6002 -0.62653,0 -1.1176,0.254 -1.4224,0.79586 h -0.0169 v -0.69426 h -0.67734 z"
           style="font-style:normal;font-variant:normal;font-weight:normal;font-stretch:normal;font-size:8.46666622px;font-family:'Helvetica Neue LT Std';-inkscape-font-specification:'Helvetica Neue LT Std';text-align:center;text-anchor:middle;stroke-width:0.26458332"
           id="path4891" />
        <path
           d="m 198.48557,281.05272 c 0,0.85513 -0.3302,1.69333 -1.31234,1.69333 -0.9906,0 -1.38006,-0.79586 -1.38006,-1.65946 0,-0.82127 0.37253,-1.651 1.33773,-1.651 0.93133,0 1.35467,0.79586 1.35467,1.61713 z m -3.38667,2.22673 h 0.71967 v -0.5842 h 0.0169 c 0.32173,0.51647 0.9652,0.6858 1.41393,0.6858 1.33774,0 1.99814,-1.0414 1.99814,-2.27753 0,-1.23613 -0.66887,-2.30293 -2.01507,-2.30293 -0.60113,0 -1.15993,0.21166 -1.397,0.69426 h -0.0169 v -2.2606 h -0.71967 z"
           style="font-style:normal;font-variant:normal;font-weight:normal;font-stretch:normal;font-size:8.46666622px;font-family:'Helvetica Neue LT Std';-inkscape-font-specification:'Helvetica Neue LT Std';text-align:center;text-anchor:middle;stroke-width:0.26458332"
           id="path4893" />
        <path
           d="m 200.07518,283.27945 h 0.71967 v -1.94733 c 0,-1.10913 0.42333,-1.76953 1.58327,-1.76953 v -0.762 c -0.77894,-0.0254 -1.26154,0.32173 -1.60867,1.02446 h -0.0169 v -0.92286 h -0.67734 z"
           style="font-style:normal;font-variant:normal;font-weight:normal;font-stretch:normal;font-size:8.46666622px;font-family:'Helvetica Neue LT Std';-inkscape-font-specification:'Helvetica Neue LT Std';text-align:center;text-anchor:middle;stroke-width:0.26458332"
           id="path4895" />
        <path
           d="m 205.63765,281.75545 c 0,0.39794 -0.38946,0.9906 -1.33773,0.9906 -0.44027,0 -0.84667,-0.16933 -0.84667,-0.64346 0,-0.5334 0.4064,-0.70274 0.88054,-0.7874 0.4826,-0.0847 1.02446,-0.0931 1.30386,-0.29634 z m 1.1684,0.94827 c -0.0931,0.0339 -0.16086,0.0423 -0.22013,0.0423 -0.2286,0 -0.2286,-0.1524 -0.2286,-0.49106 v -2.25214 c 0,-1.02446 -0.85513,-1.20226 -1.64253,-1.20226 -0.97367,0 -1.81187,0.381 -1.8542,1.46473 h 0.71966 c 0.0339,-0.64347 0.4826,-0.82973 1.0922,-0.82973 0.4572,0 0.97367,0.1016 0.97367,0.72813 0,0.54187 -0.67733,0.49107 -1.4732,0.64347 -0.74507,0.14393 -1.48167,0.3556 -1.48167,1.3462 0,0.87206 0.65194,1.22766 1.4478,1.22766 0.6096,0 1.143,-0.21166 1.54094,-0.67733 0,0.47413 0.23706,0.67733 0.6096,0.67733 0.2286,0 0.38946,-0.0423 0.51646,-0.11853 z"
           style="font-style:normal;font-variant:normal;font-weight:normal;font-stretch:normal;font-size:8.46666622px;font-family:'Helvetica Neue LT Std';-inkscape-font-specification:'Helvetica Neue LT Std';text-align:center;text-anchor:middle;stroke-width:0.26458332"
           id="path4897" />
        <path
           d="m 207.51818,283.27945 h 0.71966 v -4.37726 h -0.71966 z m 0.71966,-6.0452 h -0.71966 v 0.88054 h 0.71966 z"
           style="font-style:normal;font-variant:normal;font-weight:normal;font-stretch:normal;font-size:8.46666622px;font-family:'Helvetica Neue LT Std';-inkscape-font-specification:'Helvetica Neue LT Std';text-align:center;text-anchor:middle;stroke-width:0.26458332"
           id="path4899" />
        <path
           d="m 209.361,283.27945 h 0.71967 v -2.47226 c 0,-0.7874 0.42333,-1.3716 1.2954,-1.3716 0.55033,0 0.889,0.34713 0.889,0.88053 v 2.96333 h 0.71966 v -2.87866 c 0,-0.9398 -0.3556,-1.6002 -1.50706,-1.6002 -0.62654,0 -1.1176,0.254 -1.4224,0.79586 h -0.0169 v -0.69426 H 209.361 Z"
           style="font-style:normal;font-variant:normal;font-weight:normal;font-stretch:normal;font-size:8.46666622px;font-family:'Helvetica Neue LT Std';-inkscape-font-specification:'Helvetica Neue LT Std';text-align:center;text-anchor:middle;stroke-width:0.26458332"
           id="path4901" />
      </g>
    </g>
    <g
       id="g4621">
      <g
         aria-label="KNOW YOUR WATCH PARTS"
         style="font-style:normal;font-variant:normal;font-weight:normal;font-stretch:normal;font-size:4.23333311px;line-height:1;font-family:DINPro;-inkscape-font-specification:DINPro;letter-spacing:0px;word-spacing:0px;fill:#000000;fill-opacity:1;stroke:none;stroke-width:0.26458332"
         id="text4533">
        <path
           d="m 93.634463,178.33232 h 1.772356 v -2.59644 l 1.016,-1.02729 2.427111,3.62373 h 2.22391 l -3.454399,-4.8768 3.149599,-3.18347 h -2.212621 l -3.1496,3.34152 v -3.34152 h -1.772356 z"
           style="font-style:normal;font-variant:normal;font-weight:bold;font-stretch:normal;font-size:11.28888893px;font-family:'Helvetica Neue LT Std';-inkscape-font-specification:'Helvetica Neue LT Std Bold';stroke-width:0.26458332"
           id="path4656" />
        <path
           d="m 101.79245,178.33232 h 1.65947 v -5.39609 h 0.0226 l 3.3528,5.39609 h 1.77236 v -8.06027 h -1.65947 v 5.40738 h -0.0226 l -3.36408,-5.40738 h -1.76107 z"
           style="font-style:normal;font-variant:normal;font-weight:bold;font-stretch:normal;font-size:11.28888893px;font-family:'Helvetica Neue LT Std';-inkscape-font-specification:'Helvetica Neue LT Std Bold';stroke-width:0.26458332"
           id="path4658" />
        <path
           d="m 109.79892,174.33605 c 0,2.32552 1.46755,4.18818 3.9624,4.18818 2.49484,0 3.9624,-1.86266 3.9624,-4.18818 0,-2.39324 -1.46756,-4.25591 -3.9624,-4.25591 -2.49485,0 -3.9624,1.86267 -3.9624,4.25591 z m 1.77235,0 c 0,-1.41111 0.59831,-2.76577 2.19005,-2.76577 1.59173,0 2.19004,1.35466 2.19004,2.76577 0,1.34338 -0.59831,2.69805 -2.19004,2.69805 -1.59174,0 -2.19005,-1.35467 -2.19005,-2.69805 z"
           style="font-style:normal;font-variant:normal;font-weight:bold;font-stretch:normal;font-size:11.28888893px;font-family:'Helvetica Neue LT Std';-inkscape-font-specification:'Helvetica Neue LT Std Bold';stroke-width:0.26458332"
           id="path4660" />
        <path
           d="m 128.76813,170.27205 h -1.73849 l -1.3208,5.55414 h -0.0226 l -1.37724,-5.55414 h -1.65947 l -1.39982,5.4864 h -0.0226 l -1.27564,-5.4864 h -1.77236 l 2.1336,8.06027 h 1.79494 l 1.34337,-5.4864 h 0.0226 l 1.36596,5.4864 h 1.76106 z"
           style="font-style:normal;font-variant:normal;font-weight:bold;font-stretch:normal;font-size:11.28888893px;font-family:'Helvetica Neue LT Std';-inkscape-font-specification:'Helvetica Neue LT Std Bold';stroke-width:0.26458332"
           id="path4662" />
        <path
           d="m 134.79304,178.33232 h 1.77236 v -3.09315 l 2.99156,-4.96712 h -1.97556 l -1.87396,3.18347 -1.88524,-3.18347 h -1.99813 l 2.96897,4.92196 z"
           style="font-style:normal;font-variant:normal;font-weight:bold;font-stretch:normal;font-size:11.28888893px;font-family:'Helvetica Neue LT Std';-inkscape-font-specification:'Helvetica Neue LT Std Bold';stroke-width:0.26458332"
           id="path4664" />
        <path
           d="m 139.89527,174.33605 c 0,2.32552 1.46756,4.18818 3.9624,4.18818 2.49485,0 3.9624,-1.86266 3.9624,-4.18818 0,-2.39324 -1.46755,-4.25591 -3.9624,-4.25591 -2.49484,0 -3.9624,1.86267 -3.9624,4.25591 z m 1.77236,0 c 0,-1.41111 0.59831,-2.76577 2.19004,-2.76577 1.59173,0 2.19005,1.35466 2.19005,2.76577 0,1.34338 -0.59832,2.69805 -2.19005,2.69805 -1.59173,0 -2.19004,-1.35467 -2.19004,-2.69805 z"
           style="font-style:normal;font-variant:normal;font-weight:bold;font-stretch:normal;font-size:11.28888893px;font-family:'Helvetica Neue LT Std';-inkscape-font-specification:'Helvetica Neue LT Std Bold';stroke-width:0.26458332"
           id="path4666" />
        <path
           d="m 155.86164,170.27205 h -1.77235 v 5.01227 c 0,1.19662 -0.4064,1.74978 -1.67076,1.74978 -1.43369,0 -1.65947,-0.86925 -1.65947,-1.74978 v -5.01227 h -1.77235 v 5.01227 c 0,2.19005 1.26435,3.23991 3.43182,3.23991 2.15618,0 3.44311,-1.06115 3.44311,-3.23991 z"
           style="font-style:normal;font-variant:normal;font-weight:bold;font-stretch:normal;font-size:11.28888893px;font-family:'Helvetica Neue LT Std';-inkscape-font-specification:'Helvetica Neue LT Std Bold';stroke-width:0.26458332"
           id="path4668" />
        <path
           d="m 157.377,178.33232 h 1.77235 v -3.1496 h 1.77236 c 0.89182,0 1.2192,0.37253 1.34338,1.2192 0.0903,0.64347 0.0677,1.4224 0.28222,1.9304 h 1.77235 c -0.31608,-0.45155 -0.3048,-1.39982 -0.33866,-1.90782 -0.0564,-0.8128 -0.3048,-1.65947 -1.17405,-1.88525 v -0.0226 c 0.89183,-0.36125 1.27565,-1.07245 1.27565,-2.02071 0,-1.2192 -0.9144,-2.22392 -2.35938,-2.22392 H 157.377 Z m 1.77235,-6.68302 h 1.94169 c 0.79022,0 1.2192,0.33867 1.2192,1.1176 0,0.8128 -0.42898,1.15147 -1.2192,1.15147 h -1.94169 z"
           style="font-style:normal;font-variant:normal;font-weight:bold;font-stretch:normal;font-size:11.28888893px;font-family:'Helvetica Neue LT Std';-inkscape-font-specification:'Helvetica Neue LT Std Bold';stroke-width:0.26458332"
           id="path4670" />
        <path
           d="m 178.5098,170.27205 h -1.73849 l -1.3208,5.55414 h -0.0226 l -1.37724,-5.55414 h -1.65947 l -1.39982,5.4864 h -0.0226 l -1.27564,-5.4864 h -1.77236 l 2.1336,8.06027 h 1.79494 l 1.34337,-5.4864 h 0.0226 l 1.36596,5.4864 h 1.76106 z"
           style="font-style:normal;font-variant:normal;font-weight:bold;font-stretch:normal;font-size:11.28888893px;font-family:'Helvetica Neue LT Std';-inkscape-font-specification:'Helvetica Neue LT Std Bold';stroke-width:0.26458332"
           id="path4672" />
        <path
           d="m 178.25898,178.33232 h 1.79493 l 0.63218,-1.79493 h 3.01413 l 0.6096,1.79493 h 1.84009 l -3.01413,-8.06027 h -1.81752 z m 3.93982,-6.07342 h 0.0226 l 1.016,2.95769 h -2.08845 z"
           style="font-style:normal;font-variant:normal;font-weight:bold;font-stretch:normal;font-size:11.28888893px;font-family:'Helvetica Neue LT Std';-inkscape-font-specification:'Helvetica Neue LT Std Bold';stroke-width:0.26458332"
           id="path4674" />
        <path
           d="m 187.80179,178.33232 h 1.77236 v -6.57013 h 2.41582 v -1.49014 h -6.604 v 1.49014 h 2.41582 z"
           style="font-style:normal;font-variant:normal;font-weight:bold;font-stretch:normal;font-size:11.28888893px;font-family:'Helvetica Neue LT Std';-inkscape-font-specification:'Helvetica Neue LT Std Bold';stroke-width:0.26458332"
           id="path4676" />
        <path
           d="m 200.00878,172.98139 c -0.21449,-1.86267 -1.70462,-2.90125 -3.47698,-2.90125 -2.49484,0 -3.9624,1.86267 -3.9624,4.25591 0,2.32552 1.46756,4.18818 3.9624,4.18818 1.97556,0 3.36409,-1.28693 3.54472,-3.29635 h -1.71592 c -0.13546,1.06115 -0.74506,1.80622 -1.8288,1.80622 -1.59173,0 -2.19004,-1.35467 -2.19004,-2.69805 0,-1.41111 0.59831,-2.76577 2.19004,-2.76577 0.88054,0 1.64818,0.6096 1.76107,1.41111 z"
           style="font-style:normal;font-variant:normal;font-weight:bold;font-stretch:normal;font-size:11.28888893px;font-family:'Helvetica Neue LT Std';-inkscape-font-specification:'Helvetica Neue LT Std Bold';stroke-width:0.26458332"
           id="path4678" />
        <path
           d="m 201.27578,178.33232 h 1.77236 v -3.47698 h 3.26249 v 3.47698 h 1.77235 v -8.06027 h -1.77235 v 3.09316 h -3.26249 v -3.09316 h -1.77236 z"
           style="font-style:normal;font-variant:normal;font-weight:bold;font-stretch:normal;font-size:11.28888893px;font-family:'Helvetica Neue LT Std';-inkscape-font-specification:'Helvetica Neue LT Std Bold';stroke-width:0.26458332"
           id="path4680" />
        <path
           d="m 212.76311,178.33232 h 1.77236 v -2.88995 h 1.86266 c 2.00942,0 2.78836,-1.27565 2.78836,-2.58516 0,-1.30951 -0.77894,-2.58516 -2.78836,-2.58516 h -3.63502 z m 1.77236,-6.68302 h 1.37724 c 0.82409,0 1.55787,0.18062 1.55787,1.20791 0,1.02729 -0.73378,1.20791 -1.55787,1.20791 h -1.37724 z"
           style="font-style:normal;font-variant:normal;font-weight:bold;font-stretch:normal;font-size:11.28888893px;font-family:'Helvetica Neue LT Std';-inkscape-font-specification:'Helvetica Neue LT Std Bold';stroke-width:0.26458332"
           id="path4682" />
        <path
           d="m 218.60793,178.33232 h 1.79493 l 0.63218,-1.79493 h 3.01413 l 0.6096,1.79493 h 1.84009 l -3.01413,-8.06027 h -1.81751 z m 3.93982,-6.07342 h 0.0226 l 1.016,2.95769 h -2.08845 z"
           style="font-style:normal;font-variant:normal;font-weight:bold;font-stretch:normal;font-size:11.28888893px;font-family:'Helvetica Neue LT Std';-inkscape-font-specification:'Helvetica Neue LT Std Bold';stroke-width:0.26458332"
           id="path4684" />
        <path
           d="m 227.20494,178.33232 h 1.77236 v -3.1496 h 1.77235 c 0.89183,0 1.2192,0.37253 1.34338,1.2192 0.0903,0.64347 0.0677,1.4224 0.28222,1.9304 h 1.77236 c -0.31609,-0.45155 -0.3048,-1.39982 -0.33867,-1.90782 -0.0564,-0.8128 -0.3048,-1.65947 -1.17404,-1.88525 v -0.0226 c 0.89182,-0.36125 1.27564,-1.07245 1.27564,-2.02071 0,-1.2192 -0.9144,-2.22392 -2.35937,-2.22392 h -4.34623 z m 1.77236,-6.68302 h 1.94169 c 0.79022,0 1.2192,0.33867 1.2192,1.1176 0,0.8128 -0.42898,1.15147 -1.2192,1.15147 h -1.94169 z"
           style="font-style:normal;font-variant:normal;font-weight:bold;font-stretch:normal;font-size:11.28888893px;font-family:'Helvetica Neue LT Std';-inkscape-font-specification:'Helvetica Neue LT Std Bold';stroke-width:0.26458332"
           id="path4686" />
        <path
           d="m 236.94814,178.33232 h 1.77235 v -6.57013 h 2.41582 v -1.49014 h -6.604 v 1.49014 h 2.41583 z"
           style="font-style:normal;font-variant:normal;font-weight:bold;font-stretch:normal;font-size:11.28888893px;font-family:'Helvetica Neue LT Std';-inkscape-font-specification:'Helvetica Neue LT Std Bold';stroke-width:0.26458332"
           id="path4688" />
        <path
           d="m 241.55771,175.65685 c -0.0226,1.98685 1.64817,2.86738 3.43182,2.86738 2.19004,0 3.3528,-1.10631 3.3528,-2.58515 0,-1.8288 -1.80622,-2.20134 -2.39325,-2.34809 -2.02071,-0.51929 -2.40453,-0.59831 -2.40453,-1.2192 0,-0.67734 0.65476,-0.9144 1.2192,-0.9144 0.84667,0 1.53529,0.24835 1.59173,1.2192 h 1.71592 c 0,-1.86267 -1.54658,-2.59645 -3.22863,-2.59645 -1.45626,0 -3.01413,0.79023 -3.01413,2.4384 0,1.51271 1.20791,1.97556 2.40453,2.29165 1.18534,0.31609 2.39325,0.46284 2.39325,1.33209 0,0.82409 -0.94827,1.00471 -1.56916,1.00471 -0.94826,0 -1.78364,-0.41769 -1.78364,-1.49014 z"
           style="font-style:normal;font-variant:normal;font-weight:bold;font-stretch:normal;font-size:11.28888893px;font-family:'Helvetica Neue LT Std';-inkscape-font-specification:'Helvetica Neue LT Std Bold';stroke-width:0.26458332"
           id="path4690" />
      </g>
      <g
         aria-label="Gears
Spring
Battery
Watch Arms
Crystal
Glass
Strap"
         transform="matrix(0.26458333,0,0,0.26458333,-1.97944,147.08631)"
         style="font-style:normal;font-variant:normal;font-weight:normal;font-stretch:normal;font-size:16px;line-height:1;font-family:DINPro;-inkscape-font-specification:DINPro;text-align:center;letter-spacing:0px;word-spacing:0px;text-anchor:middle;fill:#000000;fill-opacity:1;stroke:none"
         id="flowRoot4585">
        <path
           d="m 639.05971,146.83552 h 1.28 v -8.02134 h -6.67733 v 1.70667 h 4.864 c 0.128,2.77333 -1.74934,4.97067 -4.88534,4.97067 -3.392,0 -5.22666,-2.90134 -5.22666,-6.08 0,-3.264 1.536,-6.464 5.22666,-6.464 2.26134,0 4.11734,1.04533 4.52267,3.34933 h 2.02667 c -0.576,-3.56267 -3.22134,-5.056 -6.54934,-5.056 -4.82133,0 -7.25333,3.84 -7.25333,8.27733 0,3.968 2.70933,7.68 7.25333,7.68 1.792,0 3.712,-0.66133 4.88534,-2.26133 z"
           style="font-style:normal;font-variant:normal;font-weight:normal;font-stretch:normal;font-size:21.33333397px;font-family:'Helvetica Neue LT Std';-inkscape-font-specification:'Helvetica Neue LT Std';text-align:center;text-anchor:middle"
           id="path4693" />
        <path
           d="m 650.66004,143.33685 c -0.32,1.42933 -1.36533,2.15467 -2.85866,2.15467 -2.41067,0 -3.49867,-1.70667 -3.43467,-3.62667 h 8.256 c 0.10667,-2.66667 -1.088,-6.31467 -4.992,-6.31467 -3.008,0 -5.184,2.432 -5.184,5.73867 0.10667,3.37067 1.77067,5.80267 5.29067,5.80267 2.47466,0 4.224,-1.32267 4.71466,-3.75467 z m -6.29333,-3.072 c 0.128,-1.68533 1.25867,-3.11467 3.15733,-3.11467 1.792,0 3.09334,1.38667 3.17867,3.11467 z"
           style="font-style:normal;font-variant:normal;font-weight:normal;font-stretch:normal;font-size:21.33333397px;font-family:'Helvetica Neue LT Std';-inkscape-font-specification:'Helvetica Neue LT Std';text-align:center;text-anchor:middle"
           id="path4695" />
        <path
           d="m 661.32904,142.99552 c 0,1.00266 -0.98133,2.496 -3.37066,2.496 -1.10934,0 -2.13334,-0.42667 -2.13334,-1.62134 0,-1.344 1.024,-1.77066 2.21867,-1.984 1.216,-0.21333 2.58133,-0.23466 3.28533,-0.74666 z m 2.94401,2.38933 c -0.23467,0.0853 -0.40534,0.10667 -0.55467,0.10667 -0.576,0 -0.576,-0.384 -0.576,-1.23734 v -5.67466 c 0,-2.58134 -2.15467,-3.02934 -4.13867,-3.02934 -2.45333,0 -4.56533,0.96 -4.672,3.69067 h 1.81333 c 0.0853,-1.62133 1.216,-2.09067 2.752,-2.09067 1.152,0 2.45334,0.256 2.45334,1.83467 0,1.36533 -1.70667,1.23733 -3.712,1.62133 -1.87734,0.36267 -3.73334,0.896 -3.73334,3.392 0,2.19734 1.64267,3.09334 3.648,3.09334 1.536,0 2.88,-0.53334 3.88267,-1.70667 0,1.19467 0.59733,1.70667 1.536,1.70667 0.576,0 0.98134,-0.10667 1.30134,-0.29867 z"
           style="font-style:normal;font-variant:normal;font-weight:normal;font-stretch:normal;font-size:21.33333397px;font-family:'Helvetica Neue LT Std';-inkscape-font-specification:'Helvetica Neue LT Std';text-align:center;text-anchor:middle"
           id="path4697" />
        <path
           d="m 665.89671,146.83552 h 1.81333 v -4.90667 c 0,-2.79467 1.06667,-4.45867 3.98934,-4.45867 v -1.92 c -1.96267,-0.064 -3.17867,0.81067 -4.05334,2.58134 h -0.0427 v -2.32534 h -1.70667 z"
           style="font-style:normal;font-variant:normal;font-weight:normal;font-stretch:normal;font-size:21.33333397px;font-family:'Helvetica Neue LT Std';-inkscape-font-specification:'Helvetica Neue LT Std';text-align:center;text-anchor:middle"
           id="path4699" />
        <path
           d="m 672.38171,143.35818 c 0.10667,2.73067 2.19733,3.73334 4.672,3.73334 2.24,0 4.69333,-0.85334 4.69333,-3.47734 0,-2.13333 -1.792,-2.73066 -3.60533,-3.136 -1.68533,-0.40533 -3.60533,-0.61866 -3.60533,-1.92 0,-1.10933 1.25866,-1.408 2.34666,-1.408 1.19467,0 2.432,0.448 2.56,1.856 h 1.81334 c -0.14934,-2.688 -2.09067,-3.456 -4.52267,-3.456 -1.92,0 -4.11733,0.91734 -4.11733,3.136 0,2.112 1.81333,2.70934 3.60533,3.11467 1.81333,0.40533 3.60533,0.64 3.60533,2.048 0,1.38667 -1.536,1.64267 -2.66666,1.64267 -1.49334,0 -2.90134,-0.512 -2.96534,-2.13334 z"
           style="font-style:normal;font-variant:normal;font-weight:normal;font-stretch:normal;font-size:21.33333397px;font-family:'Helvetica Neue LT Std';-inkscape-font-specification:'Helvetica Neue LT Std';text-align:center;text-anchor:middle"
           id="path4701" />
        <path
           d="m 635.07338,157.39551 c -0.128,-3.34933 -2.496,-4.82133 -5.61067,-4.82133 -2.77333,0 -5.52533,1.36533 -5.52533,4.45866 0,2.79467 2.45333,3.49867 4.88533,4.032 2.432,0.53334 4.864,0.896 4.864,2.98667 0,2.19733 -2.02667,2.77333 -3.86133,2.77333 -2.304,0 -4.43734,-1.10933 -4.43734,-3.66933 h -1.92 c 0,3.712 2.88,5.376 6.29334,5.376 2.77333,0 5.952,-1.30133 5.952,-4.544 0,-2.98667 -2.432,-3.84 -4.864,-4.39467 -2.45334,-0.55466 -4.88534,-0.832 -4.88534,-2.70933 0,-1.984 1.70667,-2.60267 3.41334,-2.60267 2.09066,0 3.54133,0.93867 3.776,3.11467 z"
           style="font-style:normal;font-variant:normal;font-weight:normal;font-stretch:normal;font-size:21.33333397px;font-family:'Helvetica Neue LT Std';-inkscape-font-specification:'Helvetica Neue LT Std';text-align:center;text-anchor:middle"
           id="path4703" />
        <path
           d="m 646.47471,162.55818 c 0,2.15466 -0.832,4.26666 -3.30667,4.26666 -2.496,0 -3.47733,-2.00533 -3.47733,-4.18133 0,-2.06933 0.93867,-4.16 3.37067,-4.16 2.34666,0 3.41333,2.00533 3.41333,4.07467 z m -8.53333,9.83466 h 1.81333 v -5.696 h 0.0427 c 0.81066,1.30134 2.432,1.728 3.56266,1.728 3.37067,0 5.03467,-2.624 5.03467,-5.73866 0,-3.11467 -1.68533,-5.80267 -5.07733,-5.80267 -1.51467,0 -2.92267,0.53333 -3.52,1.74933 h -0.0427 v -1.49333 h -1.81333 z"
           style="font-style:normal;font-variant:normal;font-weight:normal;font-stretch:normal;font-size:21.33333397px;font-family:'Helvetica Neue LT Std';-inkscape-font-specification:'Helvetica Neue LT Std';text-align:center;text-anchor:middle"
           id="path4705" />
        <path
           d="m 650.48004,168.16884 h 1.81334 v -4.90666 c 0,-2.79467 1.06666,-4.45867 3.98933,-4.45867 v -1.92 c -1.96267,-0.064 -3.17867,0.81067 -4.05333,2.58133 h -0.0427 v -2.32533 h -1.70667 z"
           style="font-style:normal;font-variant:normal;font-weight:normal;font-stretch:normal;font-size:21.33333397px;font-family:'Helvetica Neue LT Std';-inkscape-font-specification:'Helvetica Neue LT Std';text-align:center;text-anchor:middle"
           id="path4707" />
        <path
           d="m 657.77571,168.16884 h 1.81333 v -11.02933 h -1.81333 z m 1.81333,-15.232 h -1.81333 v 2.21867 h 1.81333 z"
           style="font-style:normal;font-variant:normal;font-weight:normal;font-stretch:normal;font-size:21.33333397px;font-family:'Helvetica Neue LT Std';-inkscape-font-specification:'Helvetica Neue LT Std';text-align:center;text-anchor:middle"
           id="path4709" />
        <path
           d="m 662.41904,168.16884 h 1.81334 v -6.22933 c 0,-1.984 1.06666,-3.456 3.264,-3.456 1.38666,0 2.24,0.87467 2.24,2.21867 v 7.46666 h 1.81333 v -7.25333 c 0,-2.368 -0.896,-4.032 -3.79733,-4.032 -1.57867,0 -2.816,0.64 -3.584,2.00533 h -0.0427 v -1.74933 h -1.70667 z"
           style="font-style:normal;font-variant:normal;font-weight:normal;font-stretch:normal;font-size:21.33333397px;font-family:'Helvetica Neue LT Std';-inkscape-font-specification:'Helvetica Neue LT Std';text-align:center;text-anchor:middle"
           id="path4711" />
        <path
           d="m 678.73138,166.69684 c -2.38934,0 -3.11467,-2.21866 -3.11467,-4.20266 0,-2.112 0.93867,-4.01067 3.264,-4.01067 2.28267,0 3.136,2.00533 3.136,3.94667 0,2.06933 -0.896,4.26666 -3.28533,4.26666 z m 5.07733,-9.55733 h -1.70667 v 1.57867 h -0.0213 c -0.66133,-1.216 -1.89867,-1.83467 -3.28533,-1.83467 -3.81867,0 -5.09867,3.22133 -5.09867,5.824 0,3.008 1.64267,5.58933 4.928,5.58933 1.38667,0 2.83733,-0.66133 3.43467,-2.00533 h 0.0427 v 0.72533 c 0,2.47467 -0.93866,4.18134 -3.30666,4.18134 -1.19467,0 -2.77334,-0.46934 -2.85867,-1.792 h -1.81333 c 0.10666,2.41066 2.496,3.24266 4.56533,3.24266 3.47733,0 5.12,-1.83466 5.12,-5.41866 z"
           style="font-style:normal;font-variant:normal;font-weight:normal;font-stretch:normal;font-size:21.33333397px;font-family:'Helvetica Neue LT Std';-inkscape-font-specification:'Helvetica Neue LT Std';text-align:center;text-anchor:middle"
           id="path4713" />
        <path
           d="m 623.24438,182.52617 h 4.62933 c 1.70667,0 3.30667,0.55467 3.30667,2.53867 0,1.664 -1.10934,2.73067 -2.85867,2.73067 h -5.07733 z m -2.02667,6.976 h 7.36 c 3.02933,0 4.62933,-2.13333 4.62933,-4.37333 0,-1.87733 -1.024,-3.28533 -2.90133,-3.66933 v -0.0427 c 1.408,-0.576 2.26133,-1.792 2.26133,-3.41333 0,-1.49334 -0.78933,-2.58134 -1.792,-3.17867 -0.91733,-0.55467 -2.688,-0.55467 -4.032,-0.55467 h -5.52533 z m 2.02667,-13.52533 h 4.05333 c 1.74933,0 3.24267,0.29867 3.24267,2.41067 0,1.6 -0.93867,2.432 -3.24267,2.432 h -4.05333 z"
           style="font-style:normal;font-variant:normal;font-weight:normal;font-stretch:normal;font-size:21.33333397px;font-family:'Helvetica Neue LT Std';-inkscape-font-specification:'Helvetica Neue LT Std';text-align:center;text-anchor:middle"
           id="path4715" />
        <path
           d="m 642.37071,185.66217 c 0,1.00267 -0.98133,2.496 -3.37067,2.496 -1.10933,0 -2.13333,-0.42666 -2.13333,-1.62133 0,-1.344 1.024,-1.77067 2.21867,-1.984 1.216,-0.21333 2.58133,-0.23467 3.28533,-0.74667 z m 2.944,2.38934 c -0.23467,0.0853 -0.40533,0.10666 -0.55467,0.10666 -0.576,0 -0.576,-0.384 -0.576,-1.23733 v -5.67467 c 0,-2.58133 -2.15466,-3.02933 -4.13866,-3.02933 -2.45334,0 -4.56534,0.96 -4.672,3.69067 h 1.81333 c 0.0853,-1.62134 1.216,-2.09067 2.752,-2.09067 1.152,0 2.45333,0.256 2.45333,1.83467 0,1.36533 -1.70666,1.23733 -3.712,1.62133 -1.87733,0.36267 -3.73333,0.896 -3.73333,3.392 0,2.19733 1.64267,3.09333 3.648,3.09333 1.536,0 2.88,-0.53333 3.88267,-1.70666 0,1.19466 0.59733,1.70666 1.536,1.70666 0.576,0 0.98133,-0.10666 1.30133,-0.29866 z"
           style="font-style:normal;font-variant:normal;font-weight:normal;font-stretch:normal;font-size:21.33333397px;font-family:'Helvetica Neue LT Std';-inkscape-font-specification:'Helvetica Neue LT Std';text-align:center;text-anchor:middle"
           id="path4717" />
        <path
           d="m 649.51971,175.16617 h -1.81333 v 3.30667 h -1.87734 v 1.6 h 1.87734 v 7.01867 c 0,2.02666 0.74666,2.41066 2.624,2.41066 h 1.38666 v -1.6 h -0.832 c -1.13066,0 -1.36533,-0.14933 -1.36533,-0.98133 v -6.848 h 2.19733 v -1.6 h -2.19733 z"
           style="font-style:normal;font-variant:normal;font-weight:normal;font-stretch:normal;font-size:21.33333397px;font-family:'Helvetica Neue LT Std';-inkscape-font-specification:'Helvetica Neue LT Std';text-align:center;text-anchor:middle"
           id="path4719" />
        <path
           d="m 656.22804,175.16617 h -1.81333 v 3.30667 h -1.87733 v 1.6 h 1.87733 v 7.01867 c 0,2.02666 0.74667,2.41066 2.624,2.41066 h 1.38667 v -1.6 h -0.832 c -1.13067,0 -1.36534,-0.14933 -1.36534,-0.98133 v -6.848 h 2.19734 v -1.6 h -2.19734 z"
           style="font-style:normal;font-variant:normal;font-weight:normal;font-stretch:normal;font-size:21.33333397px;font-family:'Helvetica Neue LT Std';-inkscape-font-specification:'Helvetica Neue LT Std';text-align:center;text-anchor:middle"
           id="path4721" />
        <path
           d="m 668.03504,186.00351 c -0.32,1.42933 -1.36533,2.15466 -2.85866,2.15466 -2.41067,0 -3.49867,-1.70666 -3.43467,-3.62666 h 8.256 c 0.10667,-2.66667 -1.088,-6.31467 -4.992,-6.31467 -3.008,0 -5.184,2.432 -5.184,5.73867 0.10667,3.37066 1.77067,5.80266 5.29067,5.80266 2.47466,0 4.224,-1.32266 4.71466,-3.75466 z m -6.29333,-3.072 c 0.128,-1.68534 1.25867,-3.11467 3.15733,-3.11467 1.792,0 3.09334,1.38667 3.17867,3.11467 z"
           style="font-style:normal;font-variant:normal;font-weight:normal;font-stretch:normal;font-size:21.33333397px;font-family:'Helvetica Neue LT Std';-inkscape-font-specification:'Helvetica Neue LT Std';text-align:center;text-anchor:middle"
           id="path4723" />
        <path
           d="m 671.81338,189.50217 h 1.81333 v -4.90666 c 0,-2.79467 1.06667,-4.45867 3.98934,-4.45867 v -1.92 c -1.96267,-0.064 -3.17867,0.81067 -4.05334,2.58133 h -0.0427 v -2.32533 h -1.70667 z"
           style="font-style:normal;font-variant:normal;font-weight:normal;font-stretch:normal;font-size:21.33333397px;font-family:'Helvetica Neue LT Std';-inkscape-font-specification:'Helvetica Neue LT Std';text-align:center;text-anchor:middle"
           id="path4725" />
        <path
           d="m 688.13305,178.47284 h -1.92 l -3.09334,9.024 h -0.0427 l -3.22134,-9.024 h -2.048 l 4.37334,10.96533 -0.74667,1.87734 c -0.34133,0.64 -0.74667,1.00266 -1.49333,1.00266 -0.36267,0 -0.72534,-0.14933 -1.06667,-0.256 v 1.664 c 0.40533,0.14934 0.832,0.192 1.25867,0.192 1.62133,0 2.368,-0.78933 3.2,-2.944 z"
           style="font-style:normal;font-variant:normal;font-weight:normal;font-stretch:normal;font-size:21.33333397px;font-family:'Helvetica Neue LT Std';-inkscape-font-specification:'Helvetica Neue LT Std';text-align:center;text-anchor:middle"
           id="path4727" />
        <path
           d="m 615.32321,195.6035 h -2.02667 l -3.09333,12.672 h -0.0427 l -3.37066,-12.672 h -2.19734 l -3.41333,12.672 h -0.0427 l -2.98666,-12.672 h -2.06934 l 3.904,15.232 h 2.112 l 3.52,-12.8 h 0.0427 l 3.47733,12.8 h 2.112 z"
           style="font-style:normal;font-variant:normal;font-weight:normal;font-stretch:normal;font-size:21.33333397px;font-family:'Helvetica Neue LT Std';-inkscape-font-specification:'Helvetica Neue LT Std';text-align:center;text-anchor:middle"
           id="path4729" />
        <path
           d="m 622.97488,206.9955 c 0,1.00267 -0.98134,2.496 -3.37067,2.496 -1.10933,0 -2.13333,-0.42667 -2.13333,-1.62133 0,-1.344 1.024,-1.77067 2.21866,-1.984 1.216,-0.21334 2.58134,-0.23467 3.28534,-0.74667 z m 2.944,2.38933 c -0.23467,0.0853 -0.40534,0.10667 -0.55467,0.10667 -0.576,0 -0.576,-0.384 -0.576,-1.23733 v -5.67467 c 0,-2.58133 -2.15467,-3.02933 -4.13867,-3.02933 -2.45333,0 -4.56533,0.96 -4.672,3.69066 h 1.81334 c 0.0853,-1.62133 1.216,-2.09066 2.752,-2.09066 1.152,0 2.45333,0.256 2.45333,1.83466 0,1.36534 -1.70667,1.23734 -3.712,1.62134 -1.87733,0.36266 -3.73333,0.896 -3.73333,3.392 0,2.19733 1.64266,3.09333 3.648,3.09333 1.536,0 2.88,-0.53333 3.88266,-1.70667 0,1.19467 0.59734,1.70667 1.536,1.70667 0.576,0 0.98134,-0.10667 1.30134,-0.29867 z"
           style="font-style:normal;font-variant:normal;font-weight:normal;font-stretch:normal;font-size:21.33333397px;font-family:'Helvetica Neue LT Std';-inkscape-font-specification:'Helvetica Neue LT Std';text-align:center;text-anchor:middle"
           id="path4731" />
        <path
           d="m 630.12388,196.4995 h -1.81334 v 3.30667 h -1.87733 v 1.6 h 1.87733 v 7.01866 c 0,2.02667 0.74667,2.41067 2.624,2.41067 h 1.38667 v -1.6 h -0.832 c -1.13067,0 -1.36533,-0.14933 -1.36533,-0.98133 v -6.848 h 2.19733 v -1.6 h -2.19733 z"
           style="font-style:normal;font-variant:normal;font-weight:normal;font-stretch:normal;font-size:21.33333397px;font-family:'Helvetica Neue LT Std';-inkscape-font-specification:'Helvetica Neue LT Std';text-align:center;text-anchor:middle"
           id="path4733" />
        <path
           d="m 643.68021,203.3475 c -0.256,-2.624 -2.26133,-3.79733 -4.75733,-3.79733 -3.49867,0 -5.20534,2.60266 -5.20534,5.90933 0,3.28533 1.792,5.632 5.16267,5.632 2.77333,0 4.45867,-1.6 4.864,-4.288 h -1.856 c -0.23467,1.664 -1.28,2.688 -3.02933,2.688 -2.304,0 -3.22134,-2.00533 -3.22134,-4.032 0,-2.24 0.81067,-4.30933 3.43467,-4.30933 1.49333,0 2.45333,0.81066 2.73067,2.19733 z"
           style="font-style:normal;font-variant:normal;font-weight:normal;font-stretch:normal;font-size:21.33333397px;font-family:'Helvetica Neue LT Std';-inkscape-font-specification:'Helvetica Neue LT Std';text-align:center;text-anchor:middle"
           id="path4735" />
        <path
           d="m 645.77321,210.8355 h 1.81334 v -6.22933 c 0,-1.984 1.06666,-3.456 3.264,-3.456 1.38666,0 2.24,0.87466 2.24,2.21866 v 7.46667 h 1.81333 v -7.25333 c 0,-2.368 -0.896,-4.032 -3.79733,-4.032 -1.32267,0 -2.88,0.55466 -3.47734,1.87733 h -0.0427 v -5.824 h -1.81334 z"
           style="font-style:normal;font-variant:normal;font-weight:normal;font-stretch:normal;font-size:21.33333397px;font-family:'Helvetica Neue LT Std';-inkscape-font-specification:'Helvetica Neue LT Std';text-align:center;text-anchor:middle"
           id="path4737" />
        <path
           d="m 662.05021,210.8355 h 2.09067 l 1.70666,-4.58667 h 6.44267 l 1.664,4.58667 h 2.24 l -5.952,-15.232 h -2.24 z m 7.01867,-13.39733 h 0.0427 l 2.53867,7.104 h -5.16267 z"
           style="font-style:normal;font-variant:normal;font-weight:normal;font-stretch:normal;font-size:21.33333397px;font-family:'Helvetica Neue LT Std';-inkscape-font-specification:'Helvetica Neue LT Std';text-align:center;text-anchor:middle"
           id="path4739" />
        <path
           d="m 677.33421,210.8355 h 1.81334 v -4.90667 c 0,-2.79466 1.06666,-4.45866 3.98933,-4.45866 v -1.92 c -1.96267,-0.064 -3.17867,0.81066 -4.05333,2.58133 h -0.0427 v -2.32533 h -1.70667 z"
           style="font-style:normal;font-variant:normal;font-weight:normal;font-stretch:normal;font-size:21.33333397px;font-family:'Helvetica Neue LT Std';-inkscape-font-specification:'Helvetica Neue LT Std';text-align:center;text-anchor:middle"
           id="path4741" />
        <path
           d="m 684.52321,210.8355 h 1.81334 v -6.86933 c 0,-0.832 0.78933,-2.816 2.944,-2.816 1.62133,0 2.06933,1.024 2.06933,2.45333 v 7.232 h 1.81333 v -6.86933 c 0,-1.70667 1.13067,-2.816 2.88,-2.816 1.77067,0 2.13334,1.088 2.13334,2.45333 v 7.232 h 1.81333 v -8.08533 c 0,-2.28267 -1.472,-3.2 -3.66933,-3.2 -1.408,0 -2.70934,0.704 -3.456,1.87733 -0.448,-1.344 -1.68534,-1.87733 -3.02934,-1.87733 -1.51466,0 -2.752,0.64 -3.56266,1.87733 h -0.0427 v -1.62133 h -1.70667 z"
           style="font-style:normal;font-variant:normal;font-weight:normal;font-stretch:normal;font-size:21.33333397px;font-family:'Helvetica Neue LT Std';-inkscape-font-specification:'Helvetica Neue LT Std';text-align:center;text-anchor:middle"
           id="path4743" />
        <path
           d="m 702.02755,207.35817 c 0.10666,2.73066 2.19733,3.73333 4.672,3.73333 2.24,0 4.69333,-0.85333 4.69333,-3.47733 0,-2.13334 -1.792,-2.73067 -3.60533,-3.136 -1.68534,-0.40534 -3.60534,-0.61867 -3.60534,-1.92 0,-1.10934 1.25867,-1.408 2.34667,-1.408 1.19467,0 2.432,0.448 2.56,1.856 h 1.81333 c -0.14933,-2.688 -2.09066,-3.456 -4.52266,-3.456 -1.92,0 -4.11734,0.91733 -4.11734,3.136 0,2.112 1.81334,2.70933 3.60534,3.11466 1.81333,0.40534 3.60533,0.64 3.60533,2.048 0,1.38667 -1.536,1.64267 -2.66667,1.64267 -1.49333,0 -2.90133,-0.512 -2.96533,-2.13333 z"
           style="font-style:normal;font-variant:normal;font-weight:normal;font-stretch:normal;font-size:21.33333397px;font-family:'Helvetica Neue LT Std';-inkscape-font-specification:'Helvetica Neue LT Std';text-align:center;text-anchor:middle"
           id="path4745" />
        <path
           d="m 634.93288,221.5235 c -0.46934,-3.24267 -3.09334,-4.94934 -6.272,-4.94934 -4.69334,0 -7.21067,3.60534 -7.21067,8.02134 0,4.43733 2.304,7.936 7.04,7.936 3.84,0 6.208,-2.304 6.592,-6.10134 h -2.02667 c -0.192,2.51734 -1.728,4.39467 -4.39466,4.39467 -3.648,0 -5.184,-2.90133 -5.184,-6.37867 0,-3.17866 1.536,-6.16533 5.16266,-6.16533 2.112,0 3.84,1.088 4.26667,3.24267 z"
           style="font-style:normal;font-variant:normal;font-weight:normal;font-stretch:normal;font-size:21.33333397px;font-family:'Helvetica Neue LT Std';-inkscape-font-specification:'Helvetica Neue LT Std';text-align:center;text-anchor:middle"
           id="path4747" />
        <path
           d="m 637.25088,232.16883 h 1.81333 v -4.90667 c 0,-2.79466 1.06667,-4.45866 3.98933,-4.45866 v -1.92 c -1.96266,-0.064 -3.17866,0.81066 -4.05333,2.58133 h -0.0427 v -2.32533 h -1.70666 z"
           style="font-style:normal;font-variant:normal;font-weight:normal;font-stretch:normal;font-size:21.33333397px;font-family:'Helvetica Neue LT Std';-inkscape-font-specification:'Helvetica Neue LT Std';text-align:center;text-anchor:middle"
           id="path4749" />
        <path
           d="m 653.57054,221.1395 h -1.92 l -3.09333,9.024 h -0.0427 l -3.22133,-9.024 h -2.048 l 4.37333,10.96533 -0.74666,1.87733 c -0.34134,0.64 -0.74667,1.00267 -1.49334,1.00267 -0.36266,0 -0.72533,-0.14933 -1.06666,-0.256 v 1.664 c 0.40533,0.14933 0.832,0.192 1.25866,0.192 1.62134,0 2.368,-0.78933 3.2,-2.944 z"
           style="font-style:normal;font-variant:normal;font-weight:normal;font-stretch:normal;font-size:21.33333397px;font-family:'Helvetica Neue LT Std';-inkscape-font-specification:'Helvetica Neue LT Std';text-align:center;text-anchor:middle"
           id="path4751" />
        <path
           d="m 654.40255,228.6915 c 0.10666,2.73066 2.19733,3.73333 4.672,3.73333 2.24,0 4.69333,-0.85333 4.69333,-3.47733 0,-2.13334 -1.792,-2.73067 -3.60533,-3.136 -1.68534,-0.40534 -3.60534,-0.61867 -3.60534,-1.92 0,-1.10934 1.25867,-1.408 2.34667,-1.408 1.19467,0 2.432,0.448 2.56,1.856 h 1.81333 c -0.14933,-2.688 -2.09066,-3.456 -4.52266,-3.456 -1.92,0 -4.11734,0.91733 -4.11734,3.136 0,2.112 1.81334,2.70933 3.60534,3.11466 1.81333,0.40534 3.60533,0.64 3.60533,2.048 0,1.38667 -1.536,1.64267 -2.66667,1.64267 -1.49333,0 -2.90133,-0.512 -2.96533,-2.13333 z"
           style="font-style:normal;font-variant:normal;font-weight:normal;font-stretch:normal;font-size:21.33333397px;font-family:'Helvetica Neue LT Std';-inkscape-font-specification:'Helvetica Neue LT Std';text-align:center;text-anchor:middle"
           id="path4753" />
        <path
           d="m 668.29054,217.83283 h -1.81333 v 3.30667 h -1.87733 v 1.6 h 1.87733 v 7.01866 c 0,2.02667 0.74667,2.41067 2.624,2.41067 h 1.38667 v -1.6 h -0.832 c -1.13067,0 -1.36534,-0.14933 -1.36534,-0.98133 v -6.848 h 2.19734 v -1.6 h -2.19734 z"
           style="font-style:normal;font-variant:normal;font-weight:normal;font-stretch:normal;font-size:21.33333397px;font-family:'Helvetica Neue LT Std';-inkscape-font-specification:'Helvetica Neue LT Std';text-align:center;text-anchor:middle"
           id="path4755" />
        <path
           d="m 679.30821,228.32883 c 0,1.00267 -0.98133,2.496 -3.37066,2.496 -1.10934,0 -2.13334,-0.42667 -2.13334,-1.62133 0,-1.344 1.024,-1.77067 2.21867,-1.984 1.216,-0.21334 2.58133,-0.23467 3.28533,-0.74667 z m 2.944,2.38933 c -0.23466,0.0853 -0.40533,0.10667 -0.55466,0.10667 -0.576,0 -0.576,-0.384 -0.576,-1.23733 v -5.67467 c 0,-2.58133 -2.15467,-3.02933 -4.13867,-3.02933 -2.45333,0 -4.56533,0.96 -4.672,3.69066 h 1.81333 c 0.0853,-1.62133 1.216,-2.09066 2.752,-2.09066 1.152,0 2.45334,0.256 2.45334,1.83466 0,1.36534 -1.70667,1.23734 -3.712,1.62134 -1.87734,0.36266 -3.73334,0.896 -3.73334,3.392 0,2.19733 1.64267,3.09333 3.648,3.09333 1.536,0 2.88,-0.53333 3.88267,-1.70667 0,1.19467 0.59733,1.70667 1.536,1.70667 0.576,0 0.98133,-0.10667 1.30133,-0.29867 z"
           style="font-style:normal;font-variant:normal;font-weight:normal;font-stretch:normal;font-size:21.33333397px;font-family:'Helvetica Neue LT Std';-inkscape-font-specification:'Helvetica Neue LT Std';text-align:center;text-anchor:middle"
           id="path4757" />
        <path
           d="m 684.04654,232.16883 h 1.81334 v -15.232 h -1.81334 z"
           style="font-style:normal;font-variant:normal;font-weight:normal;font-stretch:normal;font-size:21.33333397px;font-family:'Helvetica Neue LT Std';-inkscape-font-specification:'Helvetica Neue LT Std';text-align:center;text-anchor:middle"
           id="path4759" />
        <path
           d="m 640.64304,253.50216 h 1.28 v -8.02134 h -6.67733 v 1.70667 h 4.864 c 0.128,2.77333 -1.74933,4.97067 -4.88533,4.97067 -3.392,0 -5.22667,-2.90134 -5.22667,-6.08 0,-3.264 1.536,-6.464 5.22667,-6.464 2.26133,0 4.11733,1.04533 4.52266,3.34933 h 2.02667 c -0.576,-3.56267 -3.22133,-5.056 -6.54933,-5.056 -4.82134,0 -7.25334,3.84 -7.25334,8.27733 0,3.968 2.70934,7.68 7.25334,7.68 1.792,0 3.712,-0.66133 4.88533,-2.26133 z"
           style="font-style:normal;font-variant:normal;font-weight:normal;font-stretch:normal;font-size:21.33333397px;font-family:'Helvetica Neue LT Std';-inkscape-font-specification:'Helvetica Neue LT Std';text-align:center;text-anchor:middle"
           id="path4761" />
        <path
           d="m 644.73404,253.50216 h 1.81334 v -15.232 h -1.81334 z"
           style="font-style:normal;font-variant:normal;font-weight:normal;font-stretch:normal;font-size:21.33333397px;font-family:'Helvetica Neue LT Std';-inkscape-font-specification:'Helvetica Neue LT Std';text-align:center;text-anchor:middle"
           id="path4763" />
        <path
           d="m 656.20404,249.66216 c 0,1.00266 -0.98133,2.496 -3.37066,2.496 -1.10934,0 -2.13334,-0.42667 -2.13334,-1.62134 0,-1.344 1.024,-1.77066 2.21867,-1.984 1.216,-0.21333 2.58133,-0.23466 3.28533,-0.74666 z m 2.944,2.38933 c -0.23466,0.0853 -0.40533,0.10667 -0.55466,0.10667 -0.576,0 -0.576,-0.384 -0.576,-1.23734 v -5.67466 c 0,-2.58134 -2.15467,-3.02934 -4.13867,-3.02934 -2.45333,0 -4.56533,0.96 -4.672,3.69067 h 1.81333 c 0.0853,-1.62133 1.216,-2.09067 2.752,-2.09067 1.152,0 2.45334,0.256 2.45334,1.83467 0,1.36533 -1.70667,1.23733 -3.712,1.62133 -1.87734,0.36267 -3.73334,0.896 -3.73334,3.392 0,2.19734 1.64267,3.09334 3.648,3.09334 1.536,0 2.88,-0.53334 3.88267,-1.70667 0,1.19467 0.59733,1.70667 1.536,1.70667 0.576,0 0.98133,-0.10667 1.30133,-0.29867 z"
           style="font-style:normal;font-variant:normal;font-weight:normal;font-stretch:normal;font-size:21.33333397px;font-family:'Helvetica Neue LT Std';-inkscape-font-specification:'Helvetica Neue LT Std';text-align:center;text-anchor:middle"
           id="path4765" />
        <path
           d="m 660.13171,250.02482 c 0.10667,2.73067 2.19733,3.73334 4.672,3.73334 2.24,0 4.69334,-0.85334 4.69334,-3.47734 0,-2.13333 -1.79201,-2.73066 -3.60534,-3.136 -1.68533,-0.40533 -3.60533,-0.61866 -3.60533,-1.92 0,-1.10933 1.25866,-1.408 2.34666,-1.408 1.19467,0 2.432,0.448 2.56,1.856 h 1.81334 c -0.14933,-2.688 -2.09067,-3.456 -4.52267,-3.456 -1.92,0 -4.11733,0.91734 -4.11733,3.136 0,2.112 1.81333,2.70934 3.60533,3.11467 1.81333,0.40533 3.60533,0.64 3.60533,2.048 0,1.38667 -1.536,1.64267 -2.66666,1.64267 -1.49334,0 -2.90134,-0.512 -2.96534,-2.13334 z"
           style="font-style:normal;font-variant:normal;font-weight:normal;font-stretch:normal;font-size:21.33333397px;font-family:'Helvetica Neue LT Std';-inkscape-font-specification:'Helvetica Neue LT Std';text-align:center;text-anchor:middle"
           id="path4767" />
        <path
           d="m 670.79838,250.02482 c 0.10667,2.73067 2.19733,3.73334 4.672,3.73334 2.24,0 4.69333,-0.85334 4.69333,-3.47734 0,-2.13333 -1.792,-2.73066 -3.60533,-3.136 -1.68533,-0.40533 -3.60533,-0.61866 -3.60533,-1.92 0,-1.10933 1.25866,-1.408 2.34666,-1.408 1.19467,0 2.432,0.448 2.56,1.856 h 1.81334 c -0.14934,-2.688 -2.09067,-3.456 -4.52267,-3.456 -1.92,0 -4.11733,0.91734 -4.11733,3.136 0,2.112 1.81333,2.70934 3.60533,3.11467 1.81333,0.40533 3.60533,0.64 3.60533,2.048 0,1.38667 -1.536,1.64267 -2.66666,1.64267 -1.49334,0 -2.90134,-0.512 -2.96534,-2.13334 z"
           style="font-style:normal;font-variant:normal;font-weight:normal;font-stretch:normal;font-size:21.33333397px;font-family:'Helvetica Neue LT Std';-inkscape-font-specification:'Helvetica Neue LT Std';text-align:center;text-anchor:middle"
           id="path4769" />
        <path
           d="m 640.42754,264.06215 c -0.128,-3.34933 -2.496,-4.82133 -5.61066,-4.82133 -2.77334,0 -5.52534,1.36533 -5.52534,4.45867 0,2.79466 2.45334,3.49866 4.88534,4.032 2.432,0.53333 4.864,0.896 4.864,2.98666 0,2.19734 -2.02667,2.77334 -3.86134,2.77334 -2.304,0 -4.43733,-1.10934 -4.43733,-3.66934 h -1.92 c 0,3.712 2.88,5.376 6.29333,5.376 2.77334,0 5.952,-1.30133 5.952,-4.544 0,-2.98666 -2.432,-3.84 -4.864,-4.39466 -2.45333,-0.55467 -4.88533,-0.832 -4.88533,-2.70934 0,-1.984 1.70667,-2.60266 3.41333,-2.60266 2.09067,0 3.54134,0.93866 3.776,3.11466 z"
           style="font-style:normal;font-variant:normal;font-weight:normal;font-stretch:normal;font-size:21.33333397px;font-family:'Helvetica Neue LT Std';-inkscape-font-specification:'Helvetica Neue LT Std';text-align:center;text-anchor:middle"
           id="path4771" />
        <path
           d="m 645.74888,260.49949 h -1.81334 v 3.30666 h -1.87733 v 1.6 h 1.87733 v 7.01867 c 0,2.02667 0.74667,2.41067 2.624,2.41067 h 1.38667 v -1.6 h -0.832 c -1.13067,0 -1.36533,-0.14934 -1.36533,-0.98134 v -6.848 h 2.19733 v -1.6 h -2.19733 z"
           style="font-style:normal;font-variant:normal;font-weight:normal;font-stretch:normal;font-size:21.33333397px;font-family:'Helvetica Neue LT Std';-inkscape-font-specification:'Helvetica Neue LT Std';text-align:center;text-anchor:middle"
           id="path4773" />
        <path
           d="m 649.87588,274.83549 h 1.81333 v -4.90667 c 0,-2.79467 1.06667,-4.45867 3.98933,-4.45867 v -1.92 c -1.96266,-0.064 -3.17866,0.81067 -4.05333,2.58134 h -0.0427 v -2.32534 h -1.70666 z"
           style="font-style:normal;font-variant:normal;font-weight:normal;font-stretch:normal;font-size:21.33333397px;font-family:'Helvetica Neue LT Std';-inkscape-font-specification:'Helvetica Neue LT Std';text-align:center;text-anchor:middle"
           id="path4775" />
        <path
           d="m 663.89155,270.99549 c 0,1.00266 -0.98134,2.496 -3.37067,2.496 -1.10934,0 -2.13334,-0.42667 -2.13334,-1.62134 0,-1.344 1.024,-1.77066 2.21867,-1.984 1.216,-0.21333 2.58133,-0.23466 3.28534,-0.74666 z m 2.944,2.38933 c -0.23467,0.0853 -0.40534,0.10667 -0.55467,0.10667 -0.576,0 -0.576,-0.384 -0.576,-1.23734 v -5.67466 c 0,-2.58134 -2.15467,-3.02934 -4.13867,-3.02934 -2.45333,0 -4.56533,0.96 -4.672,3.69067 h 1.81333 c 0.0853,-1.62133 1.216,-2.09067 2.752,-2.09067 1.152,0 2.45334,0.256 2.45334,1.83467 0,1.36533 -1.70667,1.23733 -3.712,1.62133 -1.87734,0.36267 -3.73334,0.896 -3.73334,3.392 0,2.19734 1.64267,3.09334 3.648,3.09334 1.536,0 2.88,-0.53334 3.88267,-1.70667 0,1.19467 0.59734,1.70667 1.536,1.70667 0.576,0 0.98134,-0.10667 1.30134,-0.29867 z"
           style="font-style:normal;font-variant:normal;font-weight:normal;font-stretch:normal;font-size:21.33333397px;font-family:'Helvetica Neue LT Std';-inkscape-font-specification:'Helvetica Neue LT Std';text-align:center;text-anchor:middle"
           id="path4777" />
        <path
           d="m 677.12054,269.22482 c 0,2.15467 -0.832,4.26667 -3.30666,4.26667 -2.496,0 -3.47734,-2.00534 -3.47734,-4.18134 0,-2.06933 0.93867,-4.16 3.37067,-4.16 2.34667,0 3.41333,2.00534 3.41333,4.07467 z m -8.53333,9.83467 h 1.81333 v -5.696 h 0.0427 c 0.81067,1.30133 2.432,1.728 3.56267,1.728 3.37066,0 5.03466,-2.624 5.03466,-5.73867 0,-3.11467 -1.68533,-5.80267 -5.07733,-5.80267 -1.51467,0 -2.92267,0.53334 -3.52,1.74934 h -0.0427 v -1.49334 h -1.81333 z"
           style="font-style:normal;font-variant:normal;font-weight:normal;font-stretch:normal;font-size:21.33333397px;font-family:'Helvetica Neue LT Std';-inkscape-font-specification:'Helvetica Neue LT Std';text-align:center;text-anchor:middle"
           id="path4779" />
      </g>
    </g>
    <path
       style="opacity:1;fill:#000000;fill-opacity:1;stroke:none;stroke-width:0.79318172;stroke-linecap:square;stroke-linejoin:miter;stroke-miterlimit:4;stroke-dasharray:none;stroke-opacity:1;paint-order:stroke fill markers"
       d="m 45.263191,217.7081 2.023687,-24.88373 1.424068,25.03362 -1.424068,7.94481 z"
       id="rect4634"
       inkscape:connector-curvature="0"
       sodipodi:nodetypes="ccccc" />
    <path
       style="opacity:1;fill:#000000;fill-opacity:1;stroke:none;stroke-width:0.79318172;stroke-linecap:square;stroke-linejoin:miter;stroke-miterlimit:4;stroke-dasharray:none;stroke-opacity:1;paint-order:stroke fill markers"
       d="m 50.521398,217.06051 13.120539,-9.97513 -10.788596,12.51905 -6.624797,4.61086 z"
       id="rect4634-5"
       inkscape:connector-curvature="0"
       sodipodi:nodetypes="ccccc" />
    <circle
       style="opacity:1;fill:#000000;fill-opacity:1;stroke:none;stroke-width:0.5;stroke-linecap:square;stroke-linejoin:miter;stroke-miterlimit:4;stroke-dasharray:none;stroke-opacity:1;paint-order:stroke fill markers"
       id="path4652"
       cx="47.077892"
       cy="221.89314"
       r="4.572484" />
  </g>
</svg>
