<?xml version="1.0" encoding="UTF-8" standalone="no"?>
<!-- Created with Inkscape (http://www.inkscape.org/) -->

<svg
   xmlns:dc="http://purl.org/dc/elements/1.1/"
   xmlns:cc="http://creativecommons.org/ns#"
   xmlns:rdf="http://www.w3.org/1999/02/22-rdf-syntax-ns#"
   xmlns:svg="http://www.w3.org/2000/svg"
   xmlns="http://www.w3.org/2000/svg"
   xmlns:sodipodi="http://sodipodi.sourceforge.net/DTD/sodipodi-0.dtd"
   xmlns:inkscape="http://www.inkscape.org/namespaces/inkscape"
   width="210mm"
   height="297mm"
   viewBox="0 0 210 297"
   version="1.1"
   id="svg8"
   inkscape:version="0.92.1 r15371"
   sodipodi:docname="toolwarning-paths.svg">
  <defs
     id="defs2" />
  <sodipodi:namedview
     id="base"
     pagecolor="#ffffff"
     bordercolor="#666666"
     borderopacity="1.0"
     inkscape:pageopacity="0.0"
     inkscape:pageshadow="2"
     inkscape:zoom="0.98994949"
     inkscape:cx="93.594926"
     inkscape:cy="792.04093"
     inkscape:document-units="mm"
     inkscape:current-layer="layer1"
     showgrid="false"
     inkscape:measure-start="0,0"
     inkscape:measure-end="0,0"
     inkscape:window-width="1920"
     inkscape:window-height="1001"
     inkscape:window-x="-9"
     inkscape:window-y="-9"
     inkscape:window-maximized="1" />
  <metadata
     id="metadata5">
    <rdf:RDF>
      <cc:Work
         rdf:about="">
        <dc:format>image/svg+xml</dc:format>
        <dc:type
           rdf:resource="http://purl.org/dc/dcmitype/StillImage" />
        <dc:title></dc:title>
      </cc:Work>
    </rdf:RDF>
  </metadata>
  <g
     inkscape:label="Layer 1"
     inkscape:groupmode="layer"
     id="layer1">
    <path
       style="opacity:1;fill:#d40000;fill-opacity:1;stroke:none;stroke-width:0.5;stroke-linecap:square;stroke-linejoin:miter;stroke-miterlimit:4;stroke-dasharray:none;stroke-opacity:1;paint-order:stroke fill markers"
       d="M -17.63979,7.2798319 H 228.42494 V 159.35619 H -17.63979 Z"
       id="rect4519" />
    <g
       aria-label="REMEMBER!"
       transform="matrix(0.32975655,0,0,0.32975655,-23.321287,-8.6504176)"
       style="font-style:normal;font-variant:normal;font-weight:normal;font-stretch:normal;font-size:16px;line-height:1;font-family:DINPro;-inkscape-font-specification:DINPro;letter-spacing:0px;word-spacing:0px;fill:#ffffff;fill-opacity:1;stroke:none"
       id="flowRoot4485">
      <path
         d="m 131.97263,163.19363 h 13.39733 v -23.808 h 13.39734 c 6.74133,0 9.216,2.816 10.15466,9.216 0.68267,4.864 0.512,10.752 2.13334,14.592 h 13.39733 c -2.38933,-3.41334 -2.304,-10.58134 -2.56,-14.42134 -0.42667,-6.144 -2.304,-12.544 -8.87467,-14.25066 v -0.17067 c 6.74134,-2.73067 9.64267,-8.10667 9.64267,-15.27467 0,-9.216 -6.912,-16.81067 -17.83467,-16.81067 h -32.85333 z m 13.39733,-50.51734 h 14.67734 c 5.97333,0 9.216,2.56 9.216,8.448 0,6.144 -3.24267,8.704 -9.216,8.704 h -14.67734 z"
         style="font-style:normal;font-variant:normal;font-weight:bold;font-stretch:normal;font-size:85.33333588px;font-family:'Helvetica Neue LT Std';-inkscape-font-specification:'Helvetica Neue LT Std Bold';text-align:center;text-anchor:middle;fill:#ffffff"
         id="path5416" />
      <path
         d="m 193.6393,163.19363 h 46.25066 v -11.264 h -32.85333 v -14.93334 h 29.52533 v -10.41066 h -29.52533 v -13.056 h 32.17067 v -11.26401 h -45.568 z"
         style="font-style:normal;font-variant:normal;font-weight:bold;font-stretch:normal;font-size:85.33333588px;font-family:'Helvetica Neue LT Std';-inkscape-font-specification:'Helvetica Neue LT Std Bold';text-align:center;text-anchor:middle;fill:#ffffff"
         id="path5418" />
      <path
         d="m 248.97263,163.19363 h 12.544 v -42.752 h 0.17066 l 14.93334,42.752 h 10.32533 l 14.93334,-43.17867 h 0.17066 v 43.17867 h 12.544 V 102.26562 H 295.7353 l -13.48267,41.89867 h -0.17067 l -14.25067,-41.89867 h -18.85866 z"
         style="font-style:normal;font-variant:normal;font-weight:bold;font-stretch:normal;font-size:85.33333588px;font-family:'Helvetica Neue LT Std';-inkscape-font-specification:'Helvetica Neue LT Std Bold';text-align:center;text-anchor:middle;fill:#ffffff"
         id="path5420" />
      <path
         d="m 326.30597,163.19363 h 46.25067 v -11.264 H 339.7033 v -14.93334 h 29.52534 V 126.58563 H 339.7033 v -13.056 h 32.17067 v -11.26401 h -45.568 z"
         style="font-style:normal;font-variant:normal;font-weight:bold;font-stretch:normal;font-size:85.33333588px;font-family:'Helvetica Neue LT Std';-inkscape-font-specification:'Helvetica Neue LT Std Bold';text-align:center;text-anchor:middle;fill:#ffffff"
         id="path5422" />
      <path
         d="m 381.6393,163.19363 h 12.544 v -42.752 h 0.17067 l 14.93333,42.752 h 10.32533 l 14.93334,-43.17867 h 0.17066 v 43.17867 h 12.544 v -60.92801 h -18.85866 l -13.48267,41.89867 h -0.17067 L 400.49797,102.26562 H 381.6393 Z"
         style="font-style:normal;font-variant:normal;font-weight:bold;font-stretch:normal;font-size:85.33333588px;font-family:'Helvetica Neue LT Std';-inkscape-font-specification:'Helvetica Neue LT Std Bold';text-align:center;text-anchor:middle;fill:#ffffff"
         id="path5424" />
      <path
         d="m 472.36996,136.05763 h 14.592 c 5.71734,0 9.64267,2.47466 9.64267,8.704 0,6.31466 -4.608,8.02133 -9.89867,8.02133 h -14.336 z m -13.39733,27.136 h 29.52533 c 11.008,0 21.504,-5.29067 21.504,-17.664 0,-7.59467 -3.75466,-13.312 -11.17866,-15.44534 5.29066,-2.56 8.27733,-6.74133 8.27733,-12.71466 0,-11.34934 -7.85067,-15.10401 -19.456,-15.10401 h -28.672 z m 13.39733,-50.51734 h 12.544 c 4.77867,0 9.216,1.19467 9.216,6.99734 0,5.12 -3.49866,7.25333 -8.192,7.25333 h -13.568 z"
         style="font-style:normal;font-variant:normal;font-weight:bold;font-stretch:normal;font-size:85.33333588px;font-family:'Helvetica Neue LT Std';-inkscape-font-specification:'Helvetica Neue LT Std Bold';text-align:center;text-anchor:middle;fill:#ffffff"
         id="path5426" />
      <path
         d="m 518.97263,163.19363 h 46.25067 v -11.264 h -32.85334 v -14.93334 h 29.52534 v -10.41066 h -29.52534 v -13.056 h 32.17067 v -11.26401 h -45.568 z"
         style="font-style:normal;font-variant:normal;font-weight:bold;font-stretch:normal;font-size:85.33333588px;font-family:'Helvetica Neue LT Std';-inkscape-font-specification:'Helvetica Neue LT Std Bold';text-align:center;text-anchor:middle;fill:#ffffff"
         id="path5428" />
      <path
         d="m 574.30597,163.19363 h 13.39733 v -23.808 h 13.39734 c 6.74133,0 9.216,2.816 10.15467,9.216 0.68266,4.864 0.512,10.752 2.13333,14.592 h 13.39733 c -2.38933,-3.41334 -2.304,-10.58134 -2.56,-14.42134 -0.42666,-6.144 -2.304,-12.544 -8.87466,-14.25066 v -0.17067 c 6.74133,-2.73067 9.64266,-8.10667 9.64266,-15.27467 0,-9.216 -6.912,-16.81067 -17.83466,-16.81067 h -32.85334 z m 13.39733,-50.51734 h 14.67734 c 5.97333,0 9.216,2.56 9.216,8.448 0,6.144 -3.24267,8.704 -9.216,8.704 H 587.7033 Z"
         style="font-style:normal;font-variant:normal;font-weight:bold;font-stretch:normal;font-size:85.33333588px;font-family:'Helvetica Neue LT Std';-inkscape-font-specification:'Helvetica Neue LT Std Bold';text-align:center;text-anchor:middle;fill:#ffffff"
         id="path5430" />
      <path
         d="m 648.26063,102.26562 h -12.62934 v 16.38401 l 3.24267,26.28266 h 6.05867 l 3.328,-26.28266 z m -12.97067,60.92801 h 13.39733 v -13.14134 h -13.39733 z"
         style="font-style:normal;font-variant:normal;font-weight:bold;font-stretch:normal;font-size:85.33333588px;font-family:'Helvetica Neue LT Std';-inkscape-font-specification:'Helvetica Neue LT Std Bold';text-align:center;text-anchor:middle;fill:#ffffff"
         id="path5432" />
    </g>
    <g
       aria-label="Each tool only works on one part."
       transform="matrix(0.26458333,0,0,0.26458333,0.41484279,-3.0921081)"
       style="font-style:normal;font-variant:normal;font-weight:normal;font-stretch:normal;font-size:16px;line-height:1;font-family:DINPro;-inkscape-font-specification:DINPro;text-align:center;letter-spacing:0px;word-spacing:0px;text-anchor:middle;fill:#ffffff;fill-opacity:1;stroke:none"
       id="flowRoot4493">
      <path
         d="m 104.41973,275.24092 h 31.744 v -5.12 h -25.664 v -15.808 h 23.744 v -5.12 h -23.744 v -14.528 h 25.472 v -5.12 h -31.552 z"
         style="font-style:normal;font-variant:normal;font-weight:normal;font-stretch:normal;font-size:64px;font-family:'Helvetica Neue LT Std';-inkscape-font-specification:'Helvetica Neue LT Std';text-align:center;text-anchor:middle;fill:#ffffff"
         id="path5361" />
      <path
         d="m 163.12873,263.72092 c 0,3.008 -2.944,7.488 -10.112,7.488 -3.328,0 -6.4,-1.28 -6.4,-4.864 0,-4.032 3.072,-5.312 6.656,-5.952 3.648,-0.64 7.744,-0.704 9.856,-2.24 z m 8.832,7.168 c -0.704,0.256 -1.216,0.32 -1.664,0.32 -1.728,0 -1.728,-1.152 -1.728,-3.712 v -17.024 c 0,-7.744 -6.464,-9.088 -12.416,-9.088 -7.36,0 -13.696,2.88 -14.016,11.072 h 5.44 c 0.256,-4.864 3.648,-6.272 8.256,-6.272 3.456,0 7.36,0.768 7.36,5.504 0,4.096 -5.12,3.712 -11.136,4.864 -5.632,1.088 -11.2,2.688 -11.2,10.176 0,6.592 4.928,9.28 10.944,9.28 4.608,0 8.64,-1.6 11.648,-5.12 0,3.584 1.792,5.12 4.608,5.12 1.728,0 2.944,-0.32 3.904,-0.896 z"
         style="font-style:normal;font-variant:normal;font-weight:normal;font-stretch:normal;font-size:64px;font-family:'Helvetica Neue LT Std';-inkscape-font-specification:'Helvetica Neue LT Std';text-align:center;text-anchor:middle;fill:#ffffff"
         id="path5363" />
      <path
         d="m 205.11973,252.77692 c -0.768,-7.872 -6.784,-11.392 -14.272,-11.392 -10.496,0 -15.616,7.808 -15.616,17.728 0,9.856 5.376,16.896 15.488,16.896 8.32,0 13.376,-4.8 14.592,-12.864 h -5.568 c -0.704,4.992 -3.84,8.064 -9.088,8.064 -6.912,0 -9.664,-6.016 -9.664,-12.096 0,-6.72 2.432,-12.928 10.304,-12.928 4.48,0 7.36,2.432 8.192,6.592 z"
         style="font-style:normal;font-variant:normal;font-weight:normal;font-stretch:normal;font-size:64px;font-family:'Helvetica Neue LT Std';-inkscape-font-specification:'Helvetica Neue LT Std';text-align:center;text-anchor:middle;fill:#ffffff"
         id="path5365" />
      <path
         d="m 211.39873,275.24092 h 5.44 v -18.688 c 0,-5.952 3.2,-10.368 9.792,-10.368 4.16,0 6.72,2.624 6.72,6.656 v 22.4 h 5.44 v -21.76 c 0,-7.104 -2.688,-12.096 -11.392,-12.096 -3.968,0 -8.64,1.664 -10.432,5.632 h -0.128 v -17.472 h -5.44 z"
         style="font-style:normal;font-variant:normal;font-weight:normal;font-stretch:normal;font-size:64px;font-family:'Helvetica Neue LT Std';-inkscape-font-specification:'Helvetica Neue LT Std';text-align:center;text-anchor:middle;fill:#ffffff"
         id="path5367" />
      <path
         d="m 272.32573,232.23292 h -5.44 v 9.92 h -5.632 v 4.8 h 5.632 v 21.056 c 0,6.08 2.24,7.232 7.872,7.232 h 4.16 v -4.8 h -2.496 c -3.392,0 -4.096,-0.448 -4.096,-2.944 v -20.544 h 6.592 v -4.8 h -6.592 z"
         style="font-style:normal;font-variant:normal;font-weight:normal;font-stretch:normal;font-size:64px;font-family:'Helvetica Neue LT Std';-inkscape-font-specification:'Helvetica Neue LT Std';text-align:center;text-anchor:middle;fill:#ffffff"
         id="path5369" />
      <path
         d="m 283.10673,258.72892 c 0,9.664 5.568,17.28 16.064,17.28 10.496,0 16.064,-7.616 16.064,-17.28 0,-9.728 -5.568,-17.344 -16.064,-17.344 -10.496,0 -16.064,7.616 -16.064,17.344 z m 5.76,0 c 0,-8.064 4.608,-12.544 10.304,-12.544 5.696,0 10.304,4.48 10.304,12.544 0,8 -4.608,12.48 -10.304,12.48 -5.696,0 -10.304,-4.48 -10.304,-12.48 z"
         style="font-style:normal;font-variant:normal;font-weight:normal;font-stretch:normal;font-size:64px;font-family:'Helvetica Neue LT Std';-inkscape-font-specification:'Helvetica Neue LT Std';text-align:center;text-anchor:middle;fill:#ffffff"
         id="path5371" />
      <path
         d="m 319.85673,258.72892 c 0,9.664 5.568,17.28 16.064,17.28 10.496,0 16.064,-7.616 16.064,-17.28 0,-9.728 -5.568,-17.344 -16.064,-17.344 -10.496,0 -16.064,7.616 -16.064,17.344 z m 5.76,0 c 0,-8.064 4.608,-12.544 10.304,-12.544 5.696,0 10.304,4.48 10.304,12.544 0,8 -4.608,12.48 -10.304,12.48 -5.696,0 -10.304,-4.48 -10.304,-12.48 z"
         style="font-style:normal;font-variant:normal;font-weight:normal;font-stretch:normal;font-size:64px;font-family:'Helvetica Neue LT Std';-inkscape-font-specification:'Helvetica Neue LT Std';text-align:center;text-anchor:middle;fill:#ffffff"
         id="path5373" />
      <path
         d="m 358.71873,275.24092 h 5.44 v -45.696 h -5.44 z"
         style="font-style:normal;font-variant:normal;font-weight:normal;font-stretch:normal;font-size:64px;font-family:'Helvetica Neue LT Std';-inkscape-font-specification:'Helvetica Neue LT Std';text-align:center;text-anchor:middle;fill:#ffffff"
         id="path5375" />
      <path
         d="m 388.60673,258.72892 c 0,9.664 5.568,17.28 16.064,17.28 10.496,0 16.064,-7.616 16.064,-17.28 0,-9.728 -5.568,-17.344 -16.064,-17.344 -10.496,0 -16.064,7.616 -16.064,17.344 z m 5.76,0 c 0,-8.064 4.608,-12.544 10.304,-12.544 5.696,0 10.304,4.48 10.304,12.544 0,8 -4.608,12.48 -10.304,12.48 -5.696,0 -10.304,-4.48 -10.304,-12.48 z"
         style="font-style:normal;font-variant:normal;font-weight:normal;font-stretch:normal;font-size:64px;font-family:'Helvetica Neue LT Std';-inkscape-font-specification:'Helvetica Neue LT Std';text-align:center;text-anchor:middle;fill:#ffffff"
         id="path5377" />
      <path
         d="m 427.14873,275.24092 h 5.44 v -18.688 c 0,-5.952 3.2,-10.368 9.792,-10.368 4.16,0 6.72,2.624 6.72,6.656 v 22.4 h 5.44 v -21.76 c 0,-7.104 -2.688,-12.096 -11.392,-12.096 -4.736,0 -8.448,1.92 -10.752,6.016 h -0.128 v -5.248 h -5.12 z"
         style="font-style:normal;font-variant:normal;font-weight:normal;font-stretch:normal;font-size:64px;font-family:'Helvetica Neue LT Std';-inkscape-font-specification:'Helvetica Neue LT Std';text-align:center;text-anchor:middle;fill:#ffffff"
         id="path5379" />
      <path
         d="m 463.09373,275.24092 h 5.44 v -45.696 h -5.44 z"
         style="font-style:normal;font-variant:normal;font-weight:normal;font-stretch:normal;font-size:64px;font-family:'Helvetica Neue LT Std';-inkscape-font-specification:'Helvetica Neue LT Std';text-align:center;text-anchor:middle;fill:#ffffff"
         id="path5381" />
      <path
         d="m 504.41573,242.15292 h -5.76 l -9.28,27.072 h -0.128 l -9.664,-27.072 h -6.144 l 13.12,32.896 -2.24,5.632 c -1.024,1.92 -2.24,3.008 -4.48,3.008 -1.088,0 -2.176,-0.448 -3.2,-0.768 v 4.992 c 1.216,0.448 2.496,0.576 3.776,0.576 4.864,0 7.104,-2.368 9.6,-8.832 z"
         style="font-style:normal;font-variant:normal;font-weight:normal;font-stretch:normal;font-size:64px;font-family:'Helvetica Neue LT Std';-inkscape-font-specification:'Helvetica Neue LT Std';text-align:center;text-anchor:middle;fill:#ffffff"
         id="path5383" />
      <path
         d="m 570.10173,242.15292 h -5.632 l -7.424,27.072 h -0.128 l -6.912,-27.072 h -5.952 l -6.656,27.072 h -0.128 l -7.488,-27.072 h -6.016 l 10.624,33.088 h 5.888 l 6.656,-26.304 h 0.128 l 6.72,26.304 h 5.76 z"
         style="font-style:normal;font-variant:normal;font-weight:normal;font-stretch:normal;font-size:64px;font-family:'Helvetica Neue LT Std';-inkscape-font-specification:'Helvetica Neue LT Std';text-align:center;text-anchor:middle;fill:#ffffff"
         id="path5385" />
      <path
         d="m 573.48173,258.72892 c 0,9.664 5.568,17.28 16.064,17.28 10.496,0 16.064,-7.616 16.064,-17.28 0,-9.728 -5.568,-17.344 -16.064,-17.344 -10.496,0 -16.064,7.616 -16.064,17.344 z m 5.76,0 c 0,-8.064 4.608,-12.544 10.304,-12.544 5.696,0 10.304,4.48 10.304,12.544 0,8 -4.608,12.48 -10.304,12.48 -5.696,0 -10.304,-4.48 -10.304,-12.48 z"
         style="font-style:normal;font-variant:normal;font-weight:normal;font-stretch:normal;font-size:64px;font-family:'Helvetica Neue LT Std';-inkscape-font-specification:'Helvetica Neue LT Std';text-align:center;text-anchor:middle;fill:#ffffff"
         id="path5387" />
      <path
         d="m 611.83173,275.24092 h 5.44 v -14.72 c 0,-8.384 3.2,-13.376 11.968,-13.376 v -5.76 c -5.888,-0.192 -9.536,2.432 -12.16,7.744 h -0.128 v -6.976 h -5.12 z"
         style="font-style:normal;font-variant:normal;font-weight:normal;font-stretch:normal;font-size:64px;font-family:'Helvetica Neue LT Std';-inkscape-font-specification:'Helvetica Neue LT Std';text-align:center;text-anchor:middle;fill:#ffffff"
         id="path5389" />
      <path
         d="m 633.71873,275.24092 h 5.44 v -12.544 l 5.12,-4.736 11.328,17.28 h 6.912 l -14.08,-21.056 13.12,-12.032 h -7.296 l -15.104,14.464 v -27.072 h -5.44 z"
         style="font-style:normal;font-variant:normal;font-weight:normal;font-stretch:normal;font-size:64px;font-family:'Helvetica Neue LT Std';-inkscape-font-specification:'Helvetica Neue LT Std';text-align:center;text-anchor:middle;fill:#ffffff"
         id="path5391" />
      <path
         d="m 664.53673,264.80892 c 0.32,8.192 6.592,11.2 14.016,11.2 6.72,0 14.08,-2.56 14.08,-10.432 0,-6.4 -5.376,-8.192 -10.816,-9.408 -5.056,-1.216 -10.816,-1.856 -10.816,-5.76 0,-3.328 3.776,-4.224 7.04,-4.224 3.584,0 7.296,1.344 7.68,5.568 h 5.44 c -0.448,-8.064 -6.272,-10.368 -13.568,-10.368 -5.76,0 -12.352,2.752 -12.352,9.408 0,6.336 5.44,8.128 10.816,9.344 5.44,1.216 10.816,1.92 10.816,6.144 0,4.16 -4.608,4.928 -8,4.928 -4.48,0 -8.704,-1.536 -8.896,-6.4 z"
         style="font-style:normal;font-variant:normal;font-weight:normal;font-stretch:normal;font-size:64px;font-family:'Helvetica Neue LT Std';-inkscape-font-specification:'Helvetica Neue LT Std';text-align:center;text-anchor:middle;fill:#ffffff"
         id="path5393" />
      <path
         d="m 226.16923,322.72892 c 0,9.664 5.568,17.28 16.064,17.28 10.496,0 16.064,-7.616 16.064,-17.28 0,-9.728 -5.568,-17.344 -16.064,-17.344 -10.496,0 -16.064,7.616 -16.064,17.344 z m 5.76,0 c 0,-8.064 4.608,-12.544 10.304,-12.544 5.696,0 10.304,4.48 10.304,12.544 0,8 -4.608,12.48 -10.304,12.48 -5.696,0 -10.304,-4.48 -10.304,-12.48 z"
         style="font-style:normal;font-variant:normal;font-weight:normal;font-stretch:normal;font-size:64px;font-family:'Helvetica Neue LT Std';-inkscape-font-specification:'Helvetica Neue LT Std';text-align:center;text-anchor:middle;fill:#ffffff"
         id="path5395" />
      <path
         d="m 264.71123,339.24092 h 5.44 v -18.688 c 0,-5.952 3.2,-10.368 9.792,-10.368 4.16,0 6.72,2.624 6.72,6.656 v 22.4 h 5.44 v -21.76 c 0,-7.104 -2.688,-12.096 -11.392,-12.096 -4.736,0 -8.448,1.92 -10.752,6.016 h -0.128 v -5.248 h -5.12 z"
         style="font-style:normal;font-variant:normal;font-weight:normal;font-stretch:normal;font-size:64px;font-family:'Helvetica Neue LT Std';-inkscape-font-specification:'Helvetica Neue LT Std';text-align:center;text-anchor:middle;fill:#ffffff"
         id="path5397" />
      <path
         d="m 316.29423,322.72892 c 0,9.664 5.568,17.28 16.064,17.28 10.496,0 16.064,-7.616 16.064,-17.28 0,-9.728 -5.568,-17.344 -16.064,-17.344 -10.496,0 -16.064,7.616 -16.064,17.344 z m 5.76,0 c 0,-8.064 4.608,-12.544 10.304,-12.544 5.696,0 10.304,4.48 10.304,12.544 0,8 -4.608,12.48 -10.304,12.48 -5.696,0 -10.304,-4.48 -10.304,-12.48 z"
         style="font-style:normal;font-variant:normal;font-weight:normal;font-stretch:normal;font-size:64px;font-family:'Helvetica Neue LT Std';-inkscape-font-specification:'Helvetica Neue LT Std';text-align:center;text-anchor:middle;fill:#ffffff"
         id="path5399" />
      <path
         d="m 354.83623,339.24092 h 5.44 v -18.688 c 0,-5.952 3.2,-10.368 9.792,-10.368 4.16,0 6.72,2.624 6.72,6.656 v 22.4 h 5.44 v -21.76 c 0,-7.104 -2.688,-12.096 -11.392,-12.096 -4.736,0 -8.448,1.92 -10.752,6.016 h -0.128 v -5.248 h -5.12 z"
         style="font-style:normal;font-variant:normal;font-weight:normal;font-stretch:normal;font-size:64px;font-family:'Helvetica Neue LT Std';-inkscape-font-specification:'Helvetica Neue LT Std';text-align:center;text-anchor:middle;fill:#ffffff"
         id="path5401" />
      <path
         d="m 413.30923,328.74492 c -0.96,4.288 -4.096,6.464 -8.576,6.464 -7.232,0 -10.496,-5.12 -10.304,-10.88 h 24.768 c 0.32,-8 -3.264,-18.944 -14.976,-18.944 -9.024,0 -15.552,7.296 -15.552,17.216 0.32,10.112 5.312,17.408 15.872,17.408 7.424,0 12.672,-3.968 14.144,-11.264 z m -18.88,-9.216 c 0.384,-5.056 3.776,-9.344 9.472,-9.344 5.376,0 9.28,4.16 9.536,9.344 z"
         style="font-style:normal;font-variant:normal;font-weight:normal;font-stretch:normal;font-size:64px;font-family:'Helvetica Neue LT Std';-inkscape-font-specification:'Helvetica Neue LT Std';text-align:center;text-anchor:middle;fill:#ffffff"
         id="path5403" />
      <path
         d="m 468.37823,322.40892 c 0,6.464 -2.496,12.8 -9.92,12.8 -7.488,0 -10.432,-6.016 -10.432,-12.544 0,-6.208 2.816,-12.48 10.112,-12.48 7.04,0 10.24,6.016 10.24,12.224 z m -25.6,29.504 h 5.44 v -17.088 h 0.128 c 2.432,3.904 7.296,5.184 10.688,5.184 10.112,0 15.104,-7.872 15.104,-17.216 0,-9.344 -5.056,-17.408 -15.232,-17.408 -4.544,0 -8.768,1.6 -10.56,5.248 h -0.128 v -4.48 h -5.44 z"
         style="font-style:normal;font-variant:normal;font-weight:normal;font-stretch:normal;font-size:64px;font-family:'Helvetica Neue LT Std';-inkscape-font-specification:'Helvetica Neue LT Std';text-align:center;text-anchor:middle;fill:#ffffff"
         id="path5405" />
      <path
         d="m 501.06623,327.72092 c 0,3.008 -2.944,7.488 -10.112,7.488 -3.328,0 -6.4,-1.28 -6.4,-4.864 0,-4.032 3.072,-5.312 6.656,-5.952 3.648,-0.64 7.744,-0.704 9.856,-2.24 z m 8.832,7.168 c -0.704,0.256 -1.216,0.32 -1.664,0.32 -1.728,0 -1.728,-1.152 -1.728,-3.712 v -17.024 c 0,-7.744 -6.464,-9.088 -12.416,-9.088 -7.36,0 -13.696,2.88 -14.016,11.072 h 5.44 c 0.256,-4.864 3.648,-6.272 8.256,-6.272 3.456,0 7.36,0.768 7.36,5.504 0,4.096 -5.12,3.712 -11.136,4.864 -5.632,1.088 -11.2,2.688 -11.2,10.176 0,6.592 4.928,9.28 10.944,9.28 4.608,0 8.64,-1.6 11.648,-5.12 0,3.584 1.792,5.12 4.608,5.12 1.728,0 2.944,-0.32 3.904,-0.896 z"
         style="font-style:normal;font-variant:normal;font-weight:normal;font-stretch:normal;font-size:64px;font-family:'Helvetica Neue LT Std';-inkscape-font-specification:'Helvetica Neue LT Std';text-align:center;text-anchor:middle;fill:#ffffff"
         id="path5407" />
      <path
         d="m 514.76923,339.24092 h 5.44 v -14.72 c 0,-8.384 3.2,-13.376 11.968,-13.376 v -5.76 c -5.888,-0.192 -9.536,2.432 -12.16,7.744 h -0.128 v -6.976 h -5.12 z"
         style="font-style:normal;font-variant:normal;font-weight:normal;font-stretch:normal;font-size:64px;font-family:'Helvetica Neue LT Std';-inkscape-font-specification:'Helvetica Neue LT Std';text-align:center;text-anchor:middle;fill:#ffffff"
         id="path5409" />
      <path
         d="m 543.88823,296.23292 h -5.44 v 9.92 h -5.632 v 4.8 h 5.632 v 21.056 c 0,6.08 2.24,7.232 7.872,7.232 h 4.16 v -4.8 h -2.496 c -3.392,0 -4.096,-0.448 -4.096,-2.944 v -20.544 h 6.592 v -4.8 h -6.592 z"
         style="font-style:normal;font-variant:normal;font-weight:normal;font-stretch:normal;font-size:64px;font-family:'Helvetica Neue LT Std';-inkscape-font-specification:'Helvetica Neue LT Std';text-align:center;text-anchor:middle;fill:#ffffff"
         id="path5411" />
      <path
         d="m 557.67723,339.24092 h 7.104 v -7.104 h -7.104 z"
         style="font-style:normal;font-variant:normal;font-weight:normal;font-stretch:normal;font-size:64px;font-family:'Helvetica Neue LT Std';-inkscape-font-specification:'Helvetica Neue LT Std';text-align:center;text-anchor:middle;fill:#ffffff"
         id="path5413" />
    </g>
    <g
       aria-label="You may complain about this
on our GGJ page.

-The Management"
       transform="matrix(0.26458333,0,0,0.26458333,-1.2584703,-6.879167)"
       style="font-style:normal;font-variant:normal;font-weight:normal;font-stretch:normal;font-size:16px;line-height:1;font-family:DINPro;-inkscape-font-specification:DINPro;letter-spacing:0px;word-spacing:0px;fill:#ffffff;fill-opacity:1;stroke:none"
       id="flowRoot4501">
      <path
         d="m 136.44722,437.79603 h 3.968 l 2.64534,-12.24533 14.76266,-18.21867 h -4.69333 l -11.56267,14.76267 -6.22933,-14.76267 h -4.30933 l 8.02133,18.21867 z"
         style="font-style:italic;font-variant:normal;font-weight:normal;font-stretch:normal;font-size:42.66666794px;font-family:'Helvetica Neue LT Std';-inkscape-font-specification:'Helvetica Neue LT Std Italic';text-align:center;text-anchor:middle;fill:#ffffff"
         id="path5259" />
      <path
         d="m 156.31456,429.04937 c 0,-4.56534 2.90133,-10.62401 8.448,-10.62401 3.968,0 5.80266,2.77334 5.80266,6.22934 0,4.352 -2.90133,10.45333 -8.192,10.45333 -3.968,0 -6.05866,-2.432 -6.05866,-6.05866 z m -3.62667,0.0427 c 0,5.33334 3.49867,9.216 9.30133,9.216 7.72267,0 12.20267,-6.74133 12.20267,-13.952 0,-5.888 -3.28533,-9.13067 -9.17333,-9.13067 -7.72267,0 -12.33067,6.65601 -12.33067,13.86667 z"
         style="font-style:italic;font-variant:normal;font-weight:normal;font-stretch:normal;font-size:42.66666794px;font-family:'Helvetica Neue LT Std';-inkscape-font-specification:'Helvetica Neue LT Std Italic';text-align:center;text-anchor:middle;fill:#ffffff"
         id="path5261" />
      <path
         d="m 198.64922,415.73736 h -3.62666 l -2.56,12.20267 c -0.768,3.66934 -3.88267,7.168 -7.89334,7.168 -2.13333,0 -3.84,-0.98133 -3.84,-3.072 0,-0.768 0.34134,-2.60266 0.512,-3.41333 l 2.816,-12.88534 h -3.62666 l -2.688,12.58667 c -0.384,1.70667 -0.64,3.37067 -0.64,4.30934 0,3.88266 2.00533,5.67466 6.144,5.67466 3.02933,0 6.016,-1.36533 7.85066,-3.84 h 0.0853 l -0.68267,3.328 h 3.49867 z"
         style="font-style:italic;font-variant:normal;font-weight:normal;font-stretch:normal;font-size:42.66666794px;font-family:'Helvetica Neue LT Std';-inkscape-font-specification:'Helvetica Neue LT Std Italic';text-align:center;text-anchor:middle;fill:#ffffff"
         id="path5263" />
      <path
         d="m 211.83256,437.79603 h 3.62667 l 2.47466,-11.56266 c 0.46934,-2.176 0.81067,-3.49867 2.34667,-4.99201 1.28,-1.45066 3.41333,-2.816 5.41867,-2.816 1.96266,0 3.072,1.06667 3.072,2.90134 0,0.512 -0.29867,2.176 -0.68267,3.88267 l -2.64533,12.58666 h 3.62666 l 2.432,-11.392 c 0.384,-1.87733 0.85334,-3.66933 2.048,-4.94933 1.23734,-1.57867 3.49867,-3.02934 5.54667,-3.02934 1.92,0 3.37067,1.28 3.37067,2.98667 0,0.64 -0.17067,1.70667 -0.34134,2.38934 l -3.072,13.99466 h 3.62667 l 2.77333,-13.22666 c 0.29867,-1.23734 0.64,-3.11467 0.64,-4.39467 0,-3.584 -3.02933,-4.94934 -6.144,-4.94934 -2.944,0 -5.84533,1.62134 -7.552,3.968 -0.64,-2.85866 -2.77333,-3.968 -5.54666,-3.968 -3.02934,0 -5.80267,1.57867 -7.68,3.88267 l -0.0853,-0.0853 0.81067,-3.28534 h -3.37067 z"
         style="font-style:italic;font-variant:normal;font-weight:normal;font-stretch:normal;font-size:42.66666794px;font-family:'Helvetica Neue LT Std';-inkscape-font-specification:'Helvetica Neue LT Std Italic';text-align:center;text-anchor:middle;fill:#ffffff"
         id="path5265" />
      <path
         d="m 251.57923,432.03603 c 0,-2.816 2.304,-3.62666 4.90667,-4.01066 2.64533,-0.34134 5.504,-0.55467 7.08266,-1.49334 h 0.0853 c -0.512,2.048 -0.72534,4.01067 -1.92,5.67467 -1.28,1.96267 -3.37067,2.90133 -6.18667,2.90133 -2.048,0 -3.968,-1.024 -3.968,-3.072 z m 2.688,-9.64266 c 0.42667,-2.85867 3.15733,-3.96801 5.93067,-3.96801 1.92,0 4.43733,0.512 4.43733,2.90134 0,2.944 -1.70667,3.15733 -5.54667,3.49867 -4.864,0.42666 -11.136,0.85333 -11.136,7.25333 0,4.52267 3.072,6.22933 6.74134,6.22933 3.712,0 5.84533,-1.152 7.38133,-3.2 l 0.0853,0.0853 c -0.21333,1.92 0.85334,3.11466 2.85867,3.11466 0.64,0 1.664,-0.21333 2.21867,-0.512 l 0.55466,-2.688 c -0.34133,0.128 -0.81066,0.29867 -1.152,0.29867 -0.59733,0 -1.06666,-0.34133 -1.06666,-1.36533 0,-1.024 0.42666,-2.26134 0.59733,-3.15734 l 1.408,-6.016 c 0.256,-1.19466 0.68267,-2.77333 0.68267,-4.01067 0,-4.48 -3.79734,-5.632 -8.064,-5.632 -4.69334,0 -8.832,2.26134 -9.55734,7.16801 z"
         style="font-style:italic;font-variant:normal;font-weight:normal;font-stretch:normal;font-size:42.66666794px;font-family:'Helvetica Neue LT Std';-inkscape-font-specification:'Helvetica Neue LT Std Italic';text-align:center;text-anchor:middle;fill:#ffffff"
         id="path5267" />
      <path
         d="m 292.09257,415.73736 h -3.968 l -9.25867,17.53601 h -0.0853 l -2.56,-17.53601 h -3.88267 l 3.88267,22.05867 -2.21867,3.66934 c -0.85333,1.408 -1.792,2.38933 -3.41333,2.38933 -0.64,0 -1.536,-0.256 -2.09067,-0.59733 l -0.64,2.944 c 0.68267,0.34133 1.664,0.55466 2.51733,0.55466 3.712,0 5.33334,-2.34666 7.12534,-5.20533 z"
         style="font-style:italic;font-variant:normal;font-weight:normal;font-stretch:normal;font-size:42.66666794px;font-family:'Helvetica Neue LT Std';-inkscape-font-specification:'Helvetica Neue LT Std Italic';text-align:center;text-anchor:middle;fill:#ffffff"
         id="path5269" />
      <path
         d="m 324.25523,422.7347 c -0.17067,-5.12 -3.28533,-7.50934 -8.27733,-7.50934 -7.89334,0 -12.20267,6.57067 -12.20267,13.56801 0,5.93066 3.072,9.51466 9.088,9.51466 5.07733,0 8.78933,-2.816 10.06933,-7.72266 h -3.62666 c -1.024,2.688 -3.328,4.52266 -6.44267,4.52266 -4.05333,0 -5.46133,-2.90133 -5.46133,-6.31466 0,-4.82134 2.98666,-10.36801 8.576,-10.36801 2.816,0 4.65066,1.62134 4.65066,4.30934 z"
         style="font-style:italic;font-variant:normal;font-weight:normal;font-stretch:normal;font-size:42.66666794px;font-family:'Helvetica Neue LT Std';-inkscape-font-specification:'Helvetica Neue LT Std Italic';text-align:center;text-anchor:middle;fill:#ffffff"
         id="path5271" />
      <path
         d="m 330.1479,429.04937 c 0,-4.56534 2.90133,-10.62401 8.448,-10.62401 3.968,0 5.80267,2.77334 5.80267,6.22934 0,4.352 -2.90134,10.45333 -8.192,10.45333 -3.968,0 -6.05867,-2.432 -6.05867,-6.05866 z m -3.62667,0.0427 c 0,5.33334 3.49867,9.216 9.30134,9.216 7.72266,0 12.20266,-6.74133 12.20266,-13.952 0,-5.888 -3.28533,-9.13067 -9.17333,-9.13067 -7.72267,0 -12.33067,6.65601 -12.33067,13.86667 z"
         style="font-style:italic;font-variant:normal;font-weight:normal;font-stretch:normal;font-size:42.66666794px;font-family:'Helvetica Neue LT Std';-inkscape-font-specification:'Helvetica Neue LT Std Italic';text-align:center;text-anchor:middle;fill:#ffffff"
         id="path5273" />
      <path
         d="m 350.08257,437.79603 h 3.62666 l 2.47467,-11.56266 c 0.46933,-2.176 0.81067,-3.49867 2.34667,-4.99201 1.28,-1.45066 3.41333,-2.816 5.41866,-2.816 1.96267,0 3.072,1.06667 3.072,2.90134 0,0.512 -0.29866,2.176 -0.68266,3.88267 l -2.64534,12.58666 h 3.62667 l 2.432,-11.392 c 0.384,-1.87733 0.85333,-3.66933 2.048,-4.94933 1.23733,-1.57867 3.49867,-3.02934 5.54667,-3.02934 1.92,0 3.37066,1.28 3.37066,2.98667 0,0.64 -0.17066,1.70667 -0.34133,2.38934 l -3.072,13.99466 h 3.62667 l 2.77333,-13.22666 c 0.29867,-1.23734 0.64,-3.11467 0.64,-4.39467 0,-3.584 -3.02933,-4.94934 -6.144,-4.94934 -2.944,0 -5.84533,1.62134 -7.552,3.968 -0.64,-2.85866 -2.77333,-3.968 -5.54667,-3.968 -3.02933,0 -5.80266,1.57867 -7.68,3.88267 l -0.0853,-0.0853 0.81067,-3.28534 h -3.37067 z"
         style="font-style:italic;font-variant:normal;font-weight:normal;font-stretch:normal;font-size:42.66666794px;font-family:'Helvetica Neue LT Std';-inkscape-font-specification:'Helvetica Neue LT Std Italic';text-align:center;text-anchor:middle;fill:#ffffff"
         id="path5275" />
      <path
         d="m 406.04258,424.2707 c 0,4.864 -2.98667,10.83733 -8.74667,10.83733 -3.584,0 -5.54667,-2.432 -5.54667,-5.71733 0,-4.608 3.11467,-10.96534 8.61867,-10.96534 3.968,0 5.67467,2.26134 5.67467,5.84534 z m -21.504,21.97333 h 3.584 l 2.34666,-11.81866 h 0.0853 c 0.85333,2.944 4.18133,3.88266 6.86933,3.88266 7.72267,0 12.24533,-7.33866 12.24533,-14.03733 0,-5.376 -3.02933,-9.04534 -8.66133,-9.04534 -2.944,0 -5.12,0.81067 -7.296,3.66934 h -0.0853 l 0.768,-3.15734 h -3.41334 z"
         style="font-style:italic;font-variant:normal;font-weight:normal;font-stretch:normal;font-size:42.66666794px;font-family:'Helvetica Neue LT Std';-inkscape-font-specification:'Helvetica Neue LT Std Italic';text-align:center;text-anchor:middle;fill:#ffffff"
         id="path5277" />
      <path
         d="m 411.74922,437.79603 h 3.62667 l 6.4,-30.464 h -3.62667 z"
         style="font-style:italic;font-variant:normal;font-weight:normal;font-stretch:normal;font-size:42.66666794px;font-family:'Helvetica Neue LT Std';-inkscape-font-specification:'Helvetica Neue LT Std Italic';text-align:center;text-anchor:middle;fill:#ffffff"
         id="path5279" />
      <path
         d="m 424.66256,432.03603 c 0,-2.816 2.304,-3.62666 4.90666,-4.01066 2.64534,-0.34134 5.504,-0.55467 7.08267,-1.49334 h 0.0853 c -0.512,2.048 -0.72533,4.01067 -1.92,5.67467 -1.28,1.96267 -3.37066,2.90133 -6.18666,2.90133 -2.048,0 -3.968,-1.024 -3.968,-3.072 z m 2.688,-9.64266 c 0.42666,-2.85867 3.15733,-3.96801 5.93066,-3.96801 1.92,0 4.43734,0.512 4.43734,2.90134 0,2.944 -1.70667,3.15733 -5.54667,3.49867 -4.864,0.42666 -11.136,0.85333 -11.136,7.25333 0,4.52267 3.072,6.22933 6.74133,6.22933 3.712,0 5.84534,-1.152 7.38134,-3.2 l 0.0853,0.0853 c -0.21333,1.92 0.85333,3.11466 2.85867,3.11466 0.64,0 1.664,-0.21333 2.21866,-0.512 l 0.55467,-2.688 c -0.34133,0.128 -0.81067,0.29867 -1.152,0.29867 -0.59733,0 -1.06667,-0.34133 -1.06667,-1.36533 0,-1.024 0.42667,-2.26134 0.59734,-3.15734 l 1.408,-6.016 c 0.256,-1.19466 0.68266,-2.77333 0.68266,-4.01067 0,-4.48 -3.79733,-5.632 -8.064,-5.632 -4.69333,0 -8.832,2.26134 -9.55733,7.16801 z"
         style="font-style:italic;font-variant:normal;font-weight:normal;font-stretch:normal;font-size:42.66666794px;font-family:'Helvetica Neue LT Std';-inkscape-font-specification:'Helvetica Neue LT Std Italic';text-align:center;text-anchor:middle;fill:#ffffff"
         id="path5281" />
      <path
         d="m 443.41591,437.79603 h 3.62667 l 4.608,-22.05867 h -3.62667 z m 10.02667,-30.464 h -3.66934 l -0.93866,4.43733 h 3.66933 z"
         style="font-style:italic;font-variant:normal;font-weight:normal;font-stretch:normal;font-size:42.66666794px;font-family:'Helvetica Neue LT Std';-inkscape-font-specification:'Helvetica Neue LT Std Italic';text-align:center;text-anchor:middle;fill:#ffffff"
         id="path5283" />
      <path
         d="m 452.91591,437.79603 h 3.62667 l 2.56,-12.20266 c 0.46933,-1.74934 1.152,-3.49867 2.432,-4.60801 1.36533,-1.45066 3.456,-2.56 5.46133,-2.56 2.13333,0 3.84,0.98134 3.84,3.07201 0,0.768 -0.34133,2.60266 -0.512,3.41333 l -2.816,12.88533 h 3.62667 l 2.688,-12.58666 c 0.384,-1.70667 0.64,-3.37067 0.64,-4.30934 0,-3.88267 -2.00534,-5.67467 -6.144,-5.67467 -3.02934,0 -6.016,1.36534 -7.85067,3.84 h -0.0853 l 0.68266,-3.328 h -3.49866 z"
         style="font-style:italic;font-variant:normal;font-weight:normal;font-stretch:normal;font-size:42.66666794px;font-family:'Helvetica Neue LT Std';-inkscape-font-specification:'Helvetica Neue LT Std Italic';text-align:center;text-anchor:middle;fill:#ffffff"
         id="path5285" />
      <path
         d="m 491.91256,432.03603 c 0,-2.816 2.304,-3.62666 4.90666,-4.01066 2.64534,-0.34134 5.504,-0.55467 7.08267,-1.49334 h 0.0853 c -0.512,2.048 -0.72533,4.01067 -1.92,5.67467 -1.28,1.96267 -3.37066,2.90133 -6.18666,2.90133 -2.048,0 -3.968,-1.024 -3.968,-3.072 z m 2.688,-9.64266 c 0.42666,-2.85867 3.15733,-3.96801 5.93066,-3.96801 1.92,0 4.43734,0.512 4.43734,2.90134 0,2.944 -1.70667,3.15733 -5.54667,3.49867 -4.864,0.42666 -11.136,0.85333 -11.136,7.25333 0,4.52267 3.072,6.22933 6.74133,6.22933 3.712,0 5.84534,-1.152 7.38134,-3.2 l 0.0853,0.0853 c -0.21333,1.92 0.85333,3.11466 2.85867,3.11466 0.64,0 1.664,-0.21333 2.21866,-0.512 l 0.55467,-2.688 c -0.34133,0.128 -0.81067,0.29867 -1.152,0.29867 -0.59733,0 -1.06667,-0.34133 -1.06667,-1.36533 0,-1.024 0.42667,-2.26134 0.59734,-3.15734 l 1.408,-6.016 c 0.256,-1.19466 0.68266,-2.77333 0.68266,-4.01067 0,-4.48 -3.79733,-5.632 -8.064,-5.632 -4.69333,0 -8.832,2.26134 -9.55733,7.16801 z"
         style="font-style:italic;font-variant:normal;font-weight:normal;font-stretch:normal;font-size:42.66666794px;font-family:'Helvetica Neue LT Std';-inkscape-font-specification:'Helvetica Neue LT Std Italic';text-align:center;text-anchor:middle;fill:#ffffff"
         id="path5287" />
      <path
         d="m 530.24991,424.74003 c 0,4.30934 -2.77333,10.368 -8.02133,10.368 -3.584,0 -6.016,-2.048 -6.016,-5.504 0,-4.69333 2.64533,-11.17867 9.00266,-11.17867 3.37067,0 5.03467,2.816 5.03467,6.31467 z m -19.584,13.056 h 3.24267 l 0.81066,-4.096 h 0.0853 c 0.46933,2.176 3.37066,4.608 7.424,4.608 7.46666,0 11.648,-6.69866 11.648,-13.568 0,-5.632 -2.77334,-9.51467 -8.66134,-9.51467 -2.688,0 -5.12,1.23734 -6.74133,3.328 l -0.0853,-0.0853 2.34666,-11.136 h -3.62666 z"
         style="font-style:italic;font-variant:normal;font-weight:normal;font-stretch:normal;font-size:42.66666794px;font-family:'Helvetica Neue LT Std';-inkscape-font-specification:'Helvetica Neue LT Std Italic';text-align:center;text-anchor:middle;fill:#ffffff"
         id="path5289" />
      <path
         d="m 540.56456,429.04937 c 0,-4.56534 2.90133,-10.62401 8.448,-10.62401 3.968,0 5.80266,2.77334 5.80266,6.22934 0,4.352 -2.90133,10.45333 -8.192,10.45333 -3.968,0 -6.05866,-2.432 -6.05866,-6.05866 z m -3.62667,0.0427 c 0,5.33334 3.49867,9.216 9.30133,9.216 7.72267,0 12.20267,-6.74133 12.20267,-13.952 0,-5.888 -3.28533,-9.13067 -9.17333,-9.13067 -7.72267,0 -12.33067,6.65601 -12.33067,13.86667 z"
         style="font-style:italic;font-variant:normal;font-weight:normal;font-stretch:normal;font-size:42.66666794px;font-family:'Helvetica Neue LT Std';-inkscape-font-specification:'Helvetica Neue LT Std Italic';text-align:center;text-anchor:middle;fill:#ffffff"
         id="path5291" />
      <path
         d="m 582.89922,415.73736 h -3.62666 l -2.56,12.20267 c -0.768,3.66934 -3.88267,7.168 -7.89334,7.168 -2.13333,0 -3.84,-0.98133 -3.84,-3.072 0,-0.768 0.34134,-2.60266 0.512,-3.41333 l 2.816,-12.88534 h -3.62666 l -2.688,12.58667 c -0.384,1.70667 -0.64,3.37067 -0.64,4.30934 0,3.88266 2.00533,5.67466 6.144,5.67466 3.02933,0 6.016,-1.36533 7.85066,-3.84 h 0.0853 l -0.68267,3.328 h 3.49867 z"
         style="font-style:italic;font-variant:normal;font-weight:normal;font-stretch:normal;font-size:42.66666794px;font-family:'Helvetica Neue LT Std';-inkscape-font-specification:'Helvetica Neue LT Std Italic';text-align:center;text-anchor:middle;fill:#ffffff"
         id="path5293" />
      <path
         d="m 595.25722,409.20936 h -3.62666 l -1.36534,6.528 h -3.712 l -0.68266,3.2 h 3.712 l -2.90134,13.69601 c -0.128,0.68266 -0.21333,1.19466 -0.21333,1.83466 0,2.816 2.26133,3.584 4.94933,3.584 0.85334,0 1.70667,-0.0853 2.56,-0.256 l 0.64,-3.328 c -0.68266,0.21334 -1.36533,0.384 -2.09066,0.384 -1.10934,0 -2.176,-0.34133 -2.176,-1.49333 0,-0.512 0.0853,-0.93867 0.128,-1.45067 l 2.73066,-12.97067 h 4.39467 l 0.68267,-3.2 h -4.39467 z"
         style="font-style:italic;font-variant:normal;font-weight:normal;font-stretch:normal;font-size:42.66666794px;font-family:'Helvetica Neue LT Std';-inkscape-font-specification:'Helvetica Neue LT Std Italic';text-align:center;text-anchor:middle;fill:#ffffff"
         id="path5295" />
      <path
         d="m 620.50722,409.20936 h -3.62666 l -1.36534,6.528 h -3.712 l -0.68266,3.2 h 3.712 l -2.90134,13.69601 c -0.128,0.68266 -0.21333,1.19466 -0.21333,1.83466 0,2.816 2.26133,3.584 4.94933,3.584 0.85334,0 1.70667,-0.0853 2.56,-0.256 l 0.64,-3.328 c -0.68266,0.21334 -1.36533,0.384 -2.09066,0.384 -1.10934,0 -2.176,-0.34133 -2.176,-1.49333 0,-0.512 0.0853,-0.93867 0.128,-1.45067 l 2.73066,-12.97067 h 4.39467 l 0.68267,-3.2 h -4.39467 z"
         style="font-style:italic;font-variant:normal;font-weight:normal;font-stretch:normal;font-size:42.66666794px;font-family:'Helvetica Neue LT Std';-inkscape-font-specification:'Helvetica Neue LT Std Italic';text-align:center;text-anchor:middle;fill:#ffffff"
         id="path5297" />
      <path
         d="m 622.91591,437.79603 h 3.62667 l 2.56,-12.20266 c 0.46933,-1.74934 1.152,-3.49867 2.432,-4.60801 1.36533,-1.45066 3.456,-2.56 5.46133,-2.56 2.13333,0 3.84,0.98134 3.84,3.07201 0,0.768 -0.34133,2.60266 -0.512,3.41333 l -2.816,12.88533 h 3.62667 l 2.688,-12.58666 c 0.384,-1.70667 0.64,-3.37067 0.64,-4.30934 0,-3.88267 -2.00534,-5.67467 -6.144,-5.67467 -3.02934,0 -6.016,1.36534 -7.85067,3.84 l -0.0853,-0.0853 2.60266,-11.648 h -3.62666 z"
         style="font-style:italic;font-variant:normal;font-weight:normal;font-stretch:normal;font-size:42.66666794px;font-family:'Helvetica Neue LT Std';-inkscape-font-specification:'Helvetica Neue LT Std Italic';text-align:center;text-anchor:middle;fill:#ffffff"
         id="path5299" />
      <path
         d="m 646.66591,437.79603 h 3.62667 l 4.608,-22.05867 h -3.62667 z m 10.02667,-30.464 h -3.66934 l -0.93866,4.43733 h 3.66933 z"
         style="font-style:italic;font-variant:normal;font-weight:normal;font-stretch:normal;font-size:42.66666794px;font-family:'Helvetica Neue LT Std';-inkscape-font-specification:'Helvetica Neue LT Std Italic';text-align:center;text-anchor:middle;fill:#ffffff"
         id="path5301" />
      <path
         d="m 675.15258,422.2227 c 0,-5.16267 -4.224,-6.99734 -8.32,-6.99734 -4.096,0 -8.192,2.26134 -8.192,6.35734 0,3.328 2.90133,4.82133 5.84533,5.97333 2.90133,1.19467 5.80267,2.048 5.80267,4.18134 0,2.51733 -2.688,3.37066 -5.03467,3.37066 -3.02933,0 -5.80267,-0.98133 -5.632,-4.26666 h -3.62667 c -0.0427,5.632 3.88267,7.46666 8.91734,7.46666 4.26666,0 9.00266,-1.92 9.00266,-6.82666 0,-3.456 -2.944,-4.992 -5.84533,-6.18667 -2.90133,-1.19467 -5.80267,-2.00533 -5.80267,-4.05334 0,-2.21866 2.47467,-2.816 4.69334,-2.816 2.51733,0 4.736,1.28 4.56533,3.79734 z"
         style="font-style:italic;font-variant:normal;font-weight:normal;font-stretch:normal;font-size:42.66666794px;font-family:'Helvetica Neue LT Std';-inkscape-font-specification:'Helvetica Neue LT Std Italic';text-align:center;text-anchor:middle;fill:#ffffff"
         id="path5303" />
      <path
         d="m 236.89789,471.71602 c 0,-4.56533 2.90134,-10.624 8.448,-10.624 3.968,0 5.80267,2.77333 5.80267,6.22933 0,4.35201 -2.90133,10.45334 -8.192,10.45334 -3.968,0 -6.05867,-2.432 -6.05867,-6.05867 z m -3.62666,0.0427 c 0,5.33333 3.49866,9.216 9.30133,9.216 7.72267,0 12.20267,-6.74133 12.20267,-13.952 0,-5.888 -3.28534,-9.13067 -9.17334,-9.13067 -7.72266,0 -12.33066,6.656 -12.33066,13.86667 z"
         style="font-style:italic;font-variant:normal;font-weight:normal;font-stretch:normal;font-size:42.66666794px;font-family:'Helvetica Neue LT Std';-inkscape-font-specification:'Helvetica Neue LT Std Italic';text-align:center;text-anchor:middle;fill:#ffffff"
         id="path5305" />
      <path
         d="m 256.83256,480.46269 h 3.62667 l 2.56,-12.20267 c 0.46933,-1.74933 1.152,-3.49867 2.432,-4.608 1.36533,-1.45067 3.456,-2.56 5.46133,-2.56 2.13333,0 3.84,0.98133 3.84,3.072 0,0.768 -0.34133,2.60267 -0.512,3.41333 l -2.816,12.88534 h 3.62667 l 2.688,-12.58667 c 0.384,-1.70667 0.64,-3.37067 0.64,-4.30933 0,-3.88267 -2.00534,-5.67467 -6.144,-5.67467 -3.02934,0 -6.016,1.36533 -7.85067,3.84 h -0.0853 l 0.68266,-3.328 h -3.49866 z"
         style="font-style:italic;font-variant:normal;font-weight:normal;font-stretch:normal;font-size:42.66666794px;font-family:'Helvetica Neue LT Std';-inkscape-font-specification:'Helvetica Neue LT Std Italic';text-align:center;text-anchor:middle;fill:#ffffff"
         id="path5307" />
      <path
         d="m 296.98123,471.71602 c 0,-4.56533 2.90133,-10.624 8.448,-10.624 3.968,0 5.80267,2.77333 5.80267,6.22933 0,4.35201 -2.90134,10.45334 -8.192,10.45334 -3.968,0 -6.05867,-2.432 -6.05867,-6.05867 z m -3.62667,0.0427 c 0,5.33333 3.49867,9.216 9.30134,9.216 7.72266,0 12.20266,-6.74133 12.20266,-13.952 0,-5.888 -3.28533,-9.13067 -9.17333,-9.13067 -7.72267,0 -12.33067,6.656 -12.33067,13.86667 z"
         style="font-style:italic;font-variant:normal;font-weight:normal;font-stretch:normal;font-size:42.66666794px;font-family:'Helvetica Neue LT Std';-inkscape-font-specification:'Helvetica Neue LT Std Italic';text-align:center;text-anchor:middle;fill:#ffffff"
         id="path5309" />
      <path
         d="m 339.3159,458.40402 h -3.62667 l -2.56,12.20267 c -0.768,3.66933 -3.88267,7.168 -7.89333,7.168 -2.13334,0 -3.84,-0.98133 -3.84,-3.072 0,-0.768 0.34133,-2.60267 0.512,-3.41333 l 2.816,-12.88534 h -3.62667 l -2.688,12.58667 c -0.384,1.70667 -0.64,3.37067 -0.64,4.30933 0,3.88267 2.00533,5.67467 6.144,5.67467 3.02933,0 6.016,-1.36533 7.85067,-3.84 h 0.0853 l -0.68267,3.328 h 3.49867 z"
         style="font-style:italic;font-variant:normal;font-weight:normal;font-stretch:normal;font-size:42.66666794px;font-family:'Helvetica Neue LT Std';-inkscape-font-specification:'Helvetica Neue LT Std Italic';text-align:center;text-anchor:middle;fill:#ffffff"
         id="path5311" />
      <path
         d="m 340.6659,480.46269 h 3.62666 l 2.09067,-9.77067 c 0.34133,-1.664 0.85333,-3.75467 1.83467,-5.16267 1.152,-1.74933 2.688,-3.072 4.69333,-3.584 0.85333,-0.21333 1.28,-0.21333 2.176,-0.21333 0.34133,0 0.72533,0 1.06667,0.0427 l 0.85333,-3.88267 c -0.42667,-0.0853 -0.85333,0 -1.28,0 -3.712,0 -6.31467,2.21867 -8.02133,5.248 h -0.0853 l 1.06667,-4.736 h -3.41333 z"
         style="font-style:italic;font-variant:normal;font-weight:normal;font-stretch:normal;font-size:42.66666794px;font-family:'Helvetica Neue LT Std';-inkscape-font-specification:'Helvetica Neue LT Std Italic';text-align:center;text-anchor:middle;fill:#ffffff"
         id="path5313" />
      <path
         d="m 390.9839,480.46269 h 2.56 l 3.328,-16.04267 h -13.26933 l -0.68267,3.41333 h 9.728 c -1.45067,5.88801 -4.56533,9.94134 -11.008,9.94134 -6.10133,0 -9.00267,-4.05333 -9.00267,-9.94134 0,-7.33866 4.18134,-15.14666 12.672,-15.14666 4.43734,0 8.192,2.13333 8.192,6.784 h 4.05334 c 0,-7.04 -5.504,-10.19734 -12.24534,-10.19734 -10.41066,0 -16.72533,8.704 -16.72533,18.56 0,8.40534 4.736,13.35467 13.056,13.35467 3.28533,0 6.784,-1.19466 9.088,-3.75466 z"
         style="font-style:italic;font-variant:normal;font-weight:normal;font-stretch:normal;font-size:42.66666794px;font-family:'Helvetica Neue LT Std';-inkscape-font-specification:'Helvetica Neue LT Std Italic';text-align:center;text-anchor:middle;fill:#ffffff"
         id="path5315" />
      <path
         d="m 423.40057,480.46269 h 2.56 l 3.328,-16.04267 h -13.26933 l -0.68267,3.41333 h 9.728 c -1.45067,5.88801 -4.56533,9.94134 -11.008,9.94134 -6.10133,0 -9.00267,-4.05333 -9.00267,-9.94134 0,-7.33866 4.18134,-15.14666 12.672,-15.14666 4.43734,0 8.192,2.13333 8.192,6.784 h 4.05334 c 0,-7.04 -5.504,-10.19734 -12.24534,-10.19734 -10.41066,0 -16.72533,8.704 -16.72533,18.56 0,8.40534 4.736,13.35467 13.056,13.35467 3.28533,0 6.784,-1.19466 9.088,-3.75466 z"
         style="font-style:italic;font-variant:normal;font-weight:normal;font-stretch:normal;font-size:42.66666794px;font-family:'Helvetica Neue LT Std';-inkscape-font-specification:'Helvetica Neue LT Std Italic';text-align:center;text-anchor:middle;fill:#ffffff"
         id="path5317" />
      <path
         d="m 454.19589,449.99869 h -4.01066 l -4.43734,20.864 c -0.72533,3.328 -1.70666,6.912 -5.80266,6.912 -2.77334,0 -4.48,-1.23733 -4.48,-4.13867 0.0427,-1.06666 0.21333,-2.13333 0.42666,-3.15733 h -4.096 c -0.29866,1.62133 -0.384,3.2 -0.384,4.224 0,4.224 3.54134,6.48533 8.448,6.48533 6.10134,0 8.40534,-2.98666 9.51467,-8.23466 z"
         style="font-style:italic;font-variant:normal;font-weight:normal;font-stretch:normal;font-size:42.66666794px;font-family:'Helvetica Neue LT Std';-inkscape-font-specification:'Helvetica Neue LT Std Italic';text-align:center;text-anchor:middle;fill:#ffffff"
         id="path5319" />
      <path
         d="m 485.20923,466.93735 c 0,4.86401 -2.98667,10.83734 -8.74667,10.83734 -3.584,0 -5.54667,-2.432 -5.54667,-5.71733 0,-4.60801 3.11467,-10.96534 8.61867,-10.96534 3.968,0 5.67467,2.26133 5.67467,5.84533 z m -21.504,21.97334 h 3.584 l 2.34666,-11.81867 h 0.0853 c 0.85333,2.944 4.18133,3.88267 6.86933,3.88267 7.72267,0 12.24533,-7.33867 12.24533,-14.03734 0,-5.376 -3.02933,-9.04533 -8.66133,-9.04533 -2.944,0 -5.12,0.81067 -7.296,3.66933 h -0.0853 l 0.768,-3.15733 h -3.41334 z"
         style="font-style:italic;font-variant:normal;font-weight:normal;font-stretch:normal;font-size:42.66666794px;font-family:'Helvetica Neue LT Std';-inkscape-font-specification:'Helvetica Neue LT Std Italic';text-align:center;text-anchor:middle;fill:#ffffff"
         id="path5321" />
      <path
         d="m 494.32924,474.70269 c 0,-2.816 2.304,-3.62667 4.90666,-4.01067 2.64534,-0.34133 5.504,-0.55466 7.08267,-1.49333 h 0.0853 c -0.512,2.048 -0.72533,4.01067 -1.92,5.67467 -1.28,1.96266 -3.37066,2.90133 -6.18666,2.90133 -2.048,0 -3.968,-1.024 -3.968,-3.072 z m 2.688,-9.64267 c 0.42666,-2.85867 3.15733,-3.968 5.93066,-3.968 1.92,0 4.43734,0.512 4.43734,2.90133 0,2.944 -1.70667,3.15734 -5.54667,3.49867 -4.864,0.42667 -11.136,0.85333 -11.136,7.25334 0,4.52266 3.072,6.22933 6.74133,6.22933 3.712,0 5.84534,-1.152 7.38134,-3.2 l 0.0853,0.0853 c -0.21333,1.92 0.85333,3.11467 2.85867,3.11467 0.64,0 1.664,-0.21333 2.21866,-0.512 l 0.55467,-2.688 c -0.34133,0.128 -0.81067,0.29867 -1.152,0.29867 -0.59733,0 -1.06667,-0.34134 -1.06667,-1.36534 0,-1.024 0.42667,-2.26133 0.59734,-3.15733 l 1.408,-6.016 c 0.256,-1.19467 0.68266,-2.77334 0.68266,-4.01067 0,-4.48 -3.79733,-5.632 -8.064,-5.632 -4.69333,0 -8.832,2.26133 -9.55733,7.168 z"
         style="font-style:italic;font-variant:normal;font-weight:normal;font-stretch:normal;font-size:42.66666794px;font-family:'Helvetica Neue LT Std';-inkscape-font-specification:'Helvetica Neue LT Std Italic';text-align:center;text-anchor:middle;fill:#ffffff"
         id="path5323" />
      <path
         d="m 517.81856,471.50269 c 0,-4.05334 2.73067,-10.41067 7.808,-10.41067 3.79733,0 5.632,2.304 5.632,5.76 0,4.43734 -2.56,10.58134 -8.02133,10.58134 -3.62667,0 -5.41867,-2.77334 -5.41867,-5.93067 z m 19.02933,-13.09867 h -3.41333 l -0.68267,4.05333 h -0.0853 v -0.0853 c -0.64,-2.77333 -3.79733,-4.48 -6.99733,-4.48 -7.168,0 -11.47734,7.08267 -11.47734,13.61067 0,5.248 2.816,9.13067 8.27734,9.13067 2.77333,0 5.29066,-1.024 6.86933,-3.37067 l 0.0853,0.0853 c -1.152,4.39467 -2.26133,8.87467 -7.89333,8.87467 -2.77333,0 -5.33333,-0.68267 -5.54667,-3.62667 h -3.62666 c 0.128,4.90667 4.30933,6.82667 8.78933,6.82667 4.69333,0 8.14933,-1.74933 10.02667,-6.144 0.64,-1.536 1.19466,-3.75467 1.70666,-6.016 z"
         style="font-style:italic;font-variant:normal;font-weight:normal;font-stretch:normal;font-size:42.66666794px;font-family:'Helvetica Neue LT Std';-inkscape-font-specification:'Helvetica Neue LT Std Italic';text-align:center;text-anchor:middle;fill:#ffffff"
         id="path5325" />
      <path
         d="m 542.48923,467.32135 c 1.06666,-3.41333 3.37066,-6.22933 7.63733,-6.22933 4.01067,0 5.41867,3.11467 5.16267,6.22933 z m 16.08533,3.20001 c 0.128,-0.59734 0.34133,-1.70667 0.34133,-2.85867 0,-6.22934 -2.85866,-9.77067 -9.344,-9.77067 -6.05866,0 -11.34933,5.76 -11.34933,14.208 0,3.84 2.048,8.87467 9.344,8.87467 4.82133,0 8.832,-2.56 9.984,-7.424 h -3.62667 c -1.024,2.73067 -3.2,4.224 -6.35733,4.224 -2.944,0 -5.71733,-1.92 -5.71733,-5.33333 0,-0.64 0.0427,-1.28 0.128,-1.92 z"
         style="font-style:italic;font-variant:normal;font-weight:normal;font-stretch:normal;font-size:42.66666794px;font-family:'Helvetica Neue LT Std';-inkscape-font-specification:'Helvetica Neue LT Std Italic';text-align:center;text-anchor:middle;fill:#ffffff"
         id="path5327" />
      <path
         d="m 561.35258,480.46269 h 4.736 l 1.024,-4.736 h -4.736 z"
         style="font-style:italic;font-variant:normal;font-weight:normal;font-stretch:normal;font-size:42.66666794px;font-family:'Helvetica Neue LT Std';-inkscape-font-specification:'Helvetica Neue LT Std Italic';text-align:center;text-anchor:middle;fill:#ffffff"
         id="path5329" />
      <path
         d="m 213.92756,535.08949 q 0.10666,-0.21334 0.64,-0.32 0.58666,-0.16 2.4,-0.42667 l 0.74666,-0.10667 1.22667,-0.10666 1.54667,-0.10667 1.70666,-0.10667 h 1.12 l 1.06667,-0.0533 2.34667,0.10667 q 1.76,0.16 2.50666,0.48 0.8,0.32 1.17334,0.96 0.90666,1.92 0.90666,2.45333 0,0.8 -1.92,0.96 l -2.72,0.16 -0.8,0.0533 -2.08,-0.0533 -0.26666,0.0533 -2.61334,0.10667 h -1.33333 q -1.6,0 -2.50667,-0.26667 -0.85333,-0.26666 -1.49333,-0.85333 l -1.01333,-1.38667 q -0.48,-0.58666 -0.64,-0.96 -0.10667,-0.42666 0,-0.58666 z"
         style="font-style:normal;font-variant:normal;font-weight:normal;font-stretch:normal;font-size:53.33333588px;font-family:Martina;-inkscape-font-specification:Martina;text-align:center;text-anchor:middle;fill:#ffffff"
         id="path5331" />
      <path
         d="m 254.09506,517.11615 q -0.64,1.65334 -0.8,2.56 -0.16,0.90667 -0.16,5.28 l -0.0533,0.74667 -0.21333,2.82667 -0.0533,0.26666 -0.10667,2.61334 v 0.21333 l -0.21333,2.72 -0.26667,5.86667 -0.0533,1.49333 v 1.49333 l -0.16,2.50667 -0.0533,2.29333 v 1.01334 q -0.37333,0.90666 -1.92,0.90666 -2.77333,0 -3.2,-0.32 -0.64,-0.48 -0.64,-3.14666 0,-1.01334 0.0533,-3.73334 0.0533,-2.72 0.0533,-3.62666 l 0.0533,-1.49334 0.10667,-1.70666 v -0.42667 -2.13333 l 0.16,-3.09334 q 0,-0.37333 0.10667,-3.30666 0.10666,-2.93334 0.10666,-6.29334 v -0.48 l 0.21334,-2.50666 q -1.54667,-0.16 -2.34667,-0.16 -0.8,0 -2.88,0.0533 -2.08,0.0533 -3.68,0.0533 h -0.53333 l -2.45334,-0.0533 q -2.66666,0 -3.84,-0.53333 -1.17333,-0.53334 -1.54666,-1.76 -0.10667,-0.42667 -0.10667,-0.69334 0,-1.01333 0.69333,-1.12 l 1.81334,-0.10666 q 1.65333,0 4.05333,-0.26667 2.45333,-0.26667 4.21333,-0.48 l 0.69334,-0.10667 1.81333,-0.26666 h 0.32 l 2.24,-0.26667 0.32,-0.0533 2.34667,-0.32 3.36,-0.32 0.85333,-0.0533 2.61333,-0.16 3.36,-0.32 2.66667,0.16 q 2.29333,0 3.04,0.37334 0.8,0.32 1.44,1.6 l 0.0533,0.16 0.32,1.28 q 0.26667,0.90666 0.53334,1.33333 0.10666,0.37333 -0.53334,0.69333 -0.16,0.10667 -1.28,0.16 -1.12,0 -2.56,0 l -3.94666,0.26667 -2.50667,0.21333 z"
         style="font-style:normal;font-variant:normal;font-weight:normal;font-stretch:normal;font-size:53.33333588px;font-family:Martina;-inkscape-font-specification:Martina;text-align:center;text-anchor:middle;fill:#ffffff"
         id="path5333" />
      <path
         d="m 274.68422,531.94282 q 0.90667,-0.69333 1.97334,-2.24 0.26666,-0.42667 1.28,-0.8 l 1.49333,-0.37333 q 1.01333,-0.21334 1.76,-0.21334 1.06667,0 2.4,0.69334 1.38667,0.64 2.02667,1.28 0.64,0.64 1.17333,1.92 0.53334,1.22666 0.74667,2.66666 0.21333,1.44 0.21333,3.89334 l -0.0533,1.38666 q 0,3.36 0.48,4.05334 0.48,0.64 1.12,0.64 1.01333,0 2.56,-2.08 l 0.37333,-0.53334 q 1.01334,-1.76 2.24,-1.76 0.42667,0 0.64,0.10667 1.12,0.58667 0.74667,1.70667 l -0.48,0.90666 -0.90667,1.22667 -0.16,0.16 -0.64,0.74667 q -1.28,1.44 -2.13333,1.97333 -0.85333,0.53333 -1.97333,0.53333 -1.06667,0 -3.14667,-0.74666 -2.13334,-0.85334 -3.04,-2.34667 -0.85334,-1.49333 -1.17334,-4.96 l -0.0533,-0.90667 q 0,-0.37333 0,-0.58666 0,-0.90667 -0.0533,-1.81334 0,-0.90666 0,-1.81333 0,-0.37333 0,-0.53333 -0.0533,-0.69334 -0.58667,-1.01334 -0.48,-0.37333 -1.06667,-0.21333 -0.58666,0.16 -1.12,0.64 -0.48,0.48 -1.01333,1.49333 l -1.38667,2.72 q -0.58666,1.22667 -1.17333,3.46667 -0.58667,2.18667 -0.74667,3.68 -0.37333,2.93333 -0.74666,3.78667 -0.53334,1.06666 -1.81334,1.06666 -0.8,0 -1.92,-0.21333 -1.12,-0.26667 -1.44,-1.17333 -0.32,-0.96 -0.32,-4.74667 l 0.0533,-2.72 v -1.38667 l 0.0533,-1.92 0.10667,-2.13333 0.0533,-1.97333 0.16,-2.82667 v -0.42667 l 0.10667,-4.32 0.42666,-9.54666 q 0,-2.29334 0.0533,-3.14667 0.0533,-0.90667 0.10666,-1.65333 l -0.21333,-1.76 q -0.10667,-0.74667 -0.10667,-1.01334 0,-1.44 1.92,-1.44 2.66667,0 3.52,0.37334 0.90667,0.32 0.90667,1.6 0,0.32 -0.16,1.06666 -0.10667,0.69334 -0.21333,1.22667 -0.0533,0.53333 -0.16,1.17333 -0.0533,0.64 -0.0533,1.49334 l -0.10666,2.18666 -0.0533,0.85334 -0.16,5.28 v 2.08 l -0.0533,0.26666 -0.16,2.13334 -0.10667,2.4 v 1.44 z"
         style="font-style:normal;font-variant:normal;font-weight:normal;font-stretch:normal;font-size:53.33333588px;font-family:Martina;-inkscape-font-specification:Martina;text-align:center;text-anchor:middle;fill:#ffffff"
         id="path5335" />
      <path
         d="m 299.90589,541.11615 -0.16,1.17334 q 0,2.34666 0.58667,3.25333 0.64,0.85333 2.4,0.85333 0.74667,0 1.81334,-0.16 l 0.58666,-0.10666 0.32,-0.10667 1.12,-0.48 1.12,-0.42667 0.21334,-0.10666 0.16,-0.10667 1.17333,-0.64 q 1.06667,-0.64 1.70667,-1.12 0.69333,-0.48 1.06666,-0.85333 l 0.74667,-0.8 1.12,-1.22667 q 0.26667,-0.26667 0.74667,-0.26667 0.8,0 1.22666,0.85334 0.16,0.42666 0.16,0.74666 0,1.01334 -1.86666,3.25334 -1.17334,1.44 -2.24,2.18666 -1.06667,0.74667 -3.62667,1.97334 -1.01333,0.48 -1.92,0.69333 -0.90667,0.21333 -1.49333,0.32 -0.58667,0.10667 -1.28,0.10667 -1.06667,0 -2.18667,-0.42667 -1.06667,-0.37333 -3.09334,-1.44 -3.62666,-1.97333 -4,-5.76 l -0.10666,-0.74667 -0.0533,-0.90666 -0.0533,-1.01334 v -0.64 q 0,-1.86666 0.21333,-4.10666 0.26667,-2.24 0.58667,-3.57334 0.37333,-1.38666 1.06667,-2.66666 l 0.53333,-0.96 q 0.96,-1.44 1.70667,-2.02667 0.8,-0.58667 1.92,-0.58667 0.74666,0 1.97333,0.26667 0.37333,0.10667 1.70667,0.42667 l 1.44,0.53333 q 2.77333,1.33333 3.94667,2.24 1.22666,0.85333 1.81333,2.13333 0.58667,1.28 0.58667,2.50667 0,1.97333 -1.49334,3.68 -0.42666,0.53333 -0.69333,0.8 -0.26667,0.21333 -0.53333,0.42667 -1.65334,1.22666 -2.24,1.49333 -0.58667,0.26667 -2.50667,0.74667 l -1.86667,0.42666 -0.21333,0.0533 q -0.48,0.0533 -0.96,0.10666 -0.42667,0 -1.17334,0 z m 6.13334,-7.04 q 0.48,-1.44 0.48,-2.29333 0,-0.48 -0.0533,-0.74667 -0.21334,-0.85333 -0.96,-1.33333 -0.69334,-0.48 -1.54667,-0.26667 -1.22667,0.37334 -2.08,1.81334 -1.01334,1.70666 -1.54667,5.01333 l -0.16,1.54667 q 0.74667,0 1.33333,-0.16 0.64,-0.16 1.38667,-0.48 1.12,-0.58667 1.92,-1.38667 0.85334,-0.8 1.22667,-1.70667 z"
         style="font-style:normal;font-variant:normal;font-weight:normal;font-stretch:normal;font-size:53.33333588px;font-family:Martina;-inkscape-font-specification:Martina;text-align:center;text-anchor:middle;fill:#ffffff"
         id="path5337" />
      <path
         d="m 348.68173,540.31615 q 0.37333,-0.69333 0.64,-1.49333 0.32,-0.8 0.64,-2.02667 l 0.26667,-1.06666 0.21333,-0.8 0.74667,-2.18667 0.10666,-0.32 0.58667,-1.86667 0.0533,-0.26666 0.69334,-1.97334 0.0533,-0.16 0.42667,-1.33333 0.21333,-0.64 0.37333,-0.96 0.32,-0.85333 0.74667,-1.97334 0.96,-2.93333 0.32,-0.85333 0.69333,-1.97334 1.06667,-3.14666 q 0.96,-1.65334 2.56,-1.86667 1.6,-0.26667 2.29333,-0.26667 2.24,0 2.50667,3.2 0.10667,1.38667 0.10667,6.56 0,1.38667 0.0533,4.8 0.10667,3.36 0.10667,3.46667 l 0.10666,2.45333 0.10667,1.65334 v 0.26666 1.6 0.32 l 0.21333,2.29334 0.0533,0.69333 0.21333,1.97333 0.32,2.13334 q 0.26667,1.22666 1.86667,1.22666 0.85333,0 1.76,-0.53333 1.17333,-0.74667 1.65333,-0.85333 0.53333,-0.10667 1.01333,0.26666 0.48,0.37334 0.58667,1.01334 0.10667,0.74666 -0.64,1.6 -1.01333,1.12 -3.30667,2.50666 -1.6,0.96 -3.30666,0.96 -0.90667,0 -1.54667,-0.16 -0.64,-0.16 -1.49333,-0.69333 -1.33334,-0.85333 -1.92,-1.97333 -0.58667,-1.12 -1.44,-4.42667 -0.21334,-0.74667 -0.37334,-1.81333 -0.16,-1.06667 -0.32,-1.97334 l -0.32,-3.09333 -0.0533,-3.09333 -0.21333,-4.90667 -1.28,3.41333 -0.21334,0.8 -0.85333,2.66667 -1.12,3.52 -0.32,1.06667 -0.69333,2.45333 -0.32,0.90667 q -1.28,3.84 -2.02667,4.58666 -0.74667,0.74667 -3.2,0.74667 l -1.01333,-0.10667 -1.28,-0.10666 q -1.33334,-0.10667 -1.97334,-0.53334 -0.58666,-0.42666 -0.90666,-1.54666 l -0.37334,-1.17334 -0.10666,-0.32 -0.37334,-1.12 -0.42666,-1.28 -0.58667,-2.4 -0.96,-4.26666 -0.48,-2.02667 v -0.21333 l -0.32,-2.13334 q -0.0533,-0.58666 -0.16,-0.85333 -0.16,-0.42667 -0.69334,-1.38667 l -0.26666,1.76 -0.16,1.33334 -0.42667,2.98666 -0.21333,1.49334 -0.16,1.22666 -0.0533,0.8 -0.21333,1.97334 -0.32,2.77333 q -0.21333,1.81333 -0.37333,3.25333 -0.16,1.38667 -0.16,2.29334 l -0.0533,1.6 q 0.10667,0.53333 -0.69333,1.01333 -0.8,0.48 -1.92,0.32 -1.22667,-0.16 -1.6,-0.8 -0.32,-0.58667 -0.32,-2.50667 v -0.21333 l 0.26667,-1.97333 0.16,-2.24 v -0.42667 l 0.21333,-1.76 v -0.21333 l 0.0533,-1.06667 0.48,-3.30667 0.10667,-0.64 0.32,-2.66666 q 0.32,-2.72 0.64,-5.38667 0.37333,-2.72 0.37333,-4.53333 l 0.21334,-2.72 q 0,-2.4 0.0533,-3.46667 0.10667,-1.12 0.21333,-1.97333 l -0.0533,-2.18667 q 0.21333,-0.53333 0.90667,-0.90667 0.69333,-0.42666 1.6,-0.58666 0.96,-0.21334 1.44,-0.21334 0.53333,0 0.8,0 2.24,0 2.93333,0.53334 0.69334,0.53333 0.69334,2.02666 v 0.32 l 0.0533,1.28 q 0,0.42667 0.16,1.65334 0.21333,1.17333 0.8,4.16 l 1.12,5.92 0.21333,1.17333 0.42667,1.65333 0.37333,1.6 0.48,2.13334 0.8,3.68 q 0.10667,0.69333 0.42667,1.76 0.10667,0.32 0.64,1.86666 z"
         style="font-style:normal;font-variant:normal;font-weight:normal;font-stretch:normal;font-size:53.33333588px;font-family:Martina;-inkscape-font-specification:Martina;text-align:center;text-anchor:middle;fill:#ffffff"
         id="path5339" />
      <path
         d="m 390.24423,530.34282 0.64,-0.16 q 2.02667,0 2.34667,0.90667 l -0.58667,1.54666 q -0.10667,0.48 -0.26667,1.44 -0.10666,0.96 -0.32,2.72 l -0.10666,0.74667 v 0.32 l -0.0533,2.08 v 0.90667 l -0.10666,2.24 q 0,1.33333 0.48,2.02666 0.48,0.64 1.12,0.42667 0.37333,-0.10667 0.64,-0.26667 0.74666,-0.37333 1.70666,-1.06666 l 0.58667,-0.53334 1.54667,-1.44 q 0.48,-0.48 1.01333,0.26667 0.32,0.42667 0.32,1.01333 0,0.96 -1.06667,2.61334 -1.6,2.45333 -4.32,2.45333 -0.8,0 -1.22666,-0.0533 -0.42667,-0.0533 -1.33334,-0.37334 -2.34666,-0.74666 -3.46666,-2.98666 l -0.8,0.74666 -0.10667,0.10667 -0.85333,1.22667 -0.37334,0.48 q -1.28,1.38666 -2.45333,1.81333 -1.17333,0.37333 -3.46667,0.37333 -3.84,0 -5.70667,-2.02666 -1.81333,-2.08 -1.81333,-6.24 v -0.85334 l 0.0533,-0.8 0.10667,-1.38666 0.16,-1.92 0.58667,-1.92 0.53333,-1.92 0.16,-0.53334 0.90667,-1.76 0.74666,-1.28 0.16,-0.21333 0.8,-0.85333 q 2.02667,-2.18667 4.21334,-2.18667 1.22667,0 3.14667,0.48 2.88,0.69333 4,1.28 1.12,0.58667 2.02666,1.86667 z m -11.36,15.78667 q 0.26666,0.74666 1.06666,0.74666 0.64,0 1.28,-0.48 l 0.53334,-0.58666 0.8,-1.01334 0.48,-0.69333 0.85333,-1.17333 0.32,-0.48 0.85334,-1.65334 q 0.48,-1.22666 0.69333,-2.61333 l 0.10667,-0.8 0.21333,-1.54667 0.10667,-0.64 0.21333,-1.44 0.10667,-0.74666 0.21333,-1.06667 q 0.10667,-0.8 -0.8,-1.49333 -0.90667,-0.74667 -2.08,-0.53334 -1.22667,0.21334 -2.18667,1.33334 -0.96,1.12 -1.76,3.41333 l -0.21333,0.53333 -0.37334,1.06667 -0.37333,1.17333 -0.10667,0.37334 q -0.10666,0.42666 -0.16,0.8 -0.21333,1.33333 -0.21333,3.09333 v 0.64 0.48 q 0,1.49333 0.0533,2.02667 0.10667,0.53333 0.37334,1.28 z"
         style="font-style:normal;font-variant:normal;font-weight:normal;font-stretch:normal;font-size:53.33333588px;font-family:Martina;-inkscape-font-specification:Martina;text-align:center;text-anchor:middle;fill:#ffffff"
         id="path5341" />
      <path
         d="m 404.47839,533.06282 1.06667,-1.70667 q 2.34667,-3.62666 4.26667,-3.62666 1.06667,0 3.46667,0.85333 0.37333,0.16 0.74666,0.32 0.37334,0.16 0.90667,0.53333 1.81333,1.28 2.50667,2.56 0.69333,1.28 0.69333,3.41334 0,0.48 0,0.90666 -0.10667,0.69334 -0.10667,1.06667 l -0.10666,0.53333 q -0.32,1.86667 -0.32,3.73334 0,1.6 0.48,2.34666 0.53333,0.69334 1.38666,0.58667 0.42667,-0.10667 0.8,-0.21333 0.42667,-0.10667 0.96,-0.42667 l 0.37334,-0.16 0.96,-0.53333 0.90666,-0.42667 q 1.17334,-0.26667 1.44,0.96 0.21334,1.01333 -0.64,1.97333 -0.85333,0.96 -3.30666,2.08 -0.96,0.48 -2.13334,0.48 -3.14666,0 -4.64,-1.01333 -1.49333,-1.01333 -2.08,-3.57333 l -0.16,-1.33334 0.10667,-3.30666 0.10667,-1.76 0.0533,-1.12 q 0,-0.64 0,-0.90667 0,-1.49333 -0.10667,-1.92 -0.10666,-0.48 -0.74666,-1.17333 -1.22667,0 -1.86667,0.64 -0.64,0.58666 -1.49333,2.56 l -1.12,2.50666 -0.85334,2.61334 -0.26667,1.06666 -0.48,1.65334 q -0.32,1.22666 -0.48,1.81333 -0.10666,0.53333 -0.10666,0.96 -0.53334,3.78667 -2.18667,3.78667 -0.8,0 -2.66667,-0.85334 -0.85333,-0.42666 -1.12,-0.96 -0.26666,-0.53333 -0.26666,-1.81333 v -0.37333 l 0.16,-1.28 v -2.29334 -0.21333 l 0.26666,-4.42667 0.10667,-3.73333 0.0533,-0.53333 0.16,-2.98667 q 0,-2.56 0.58667,-3.41333 0.64,-0.85334 2.18667,-0.85334 1.65333,0 2.29333,0.42667 0.69333,0.37333 0.69333,1.28 0,0.42667 -0.16,1.06667 l -0.26666,1.54666 q -0.0533,0.32 -0.0533,0.64 0,0.42667 0,0.64 0,0.90667 0,1.38667 z"
         style="font-style:normal;font-variant:normal;font-weight:normal;font-stretch:normal;font-size:53.33333588px;font-family:Martina;-inkscape-font-specification:Martina;text-align:center;text-anchor:middle;fill:#ffffff"
         id="path5343" />
      <path
         d="m 440.6609,530.34282 0.64,-0.16 q 2.02667,0 2.34667,0.90667 l -0.58667,1.54666 q -0.10667,0.48 -0.26667,1.44 -0.10666,0.96 -0.32,2.72 l -0.10666,0.74667 v 0.32 l -0.0533,2.08 v 0.90667 l -0.10666,2.24 q 0,1.33333 0.48,2.02666 0.48,0.64 1.12,0.42667 0.37333,-0.10667 0.64,-0.26667 0.74666,-0.37333 1.70666,-1.06666 l 0.58667,-0.53334 1.54667,-1.44 q 0.48,-0.48 1.01333,0.26667 0.32,0.42667 0.32,1.01333 0,0.96 -1.06667,2.61334 -1.6,2.45333 -4.32,2.45333 -0.8,0 -1.22666,-0.0533 -0.42667,-0.0533 -1.33334,-0.37334 -2.34666,-0.74666 -3.46666,-2.98666 l -0.8,0.74666 -0.10667,0.10667 -0.85333,1.22667 -0.37334,0.48 q -1.28,1.38666 -2.45333,1.81333 -1.17333,0.37333 -3.46667,0.37333 -3.84,0 -5.70666,-2.02666 -1.81334,-2.08 -1.81334,-6.24 v -0.85334 l 0.0533,-0.8 0.10666,-1.38666 0.16,-1.92 0.58667,-1.92 0.53333,-1.92 0.16,-0.53334 0.90667,-1.76 0.74667,-1.28 0.16,-0.21333 0.8,-0.85333 q 2.02666,-2.18667 4.21333,-2.18667 1.22667,0 3.14667,0.48 2.88,0.69333 4,1.28 1.12,0.58667 2.02666,1.86667 z m -11.36,15.78667 q 0.26667,0.74666 1.06667,0.74666 0.64,0 1.28,-0.48 l 0.53333,-0.58666 0.8,-1.01334 0.48,-0.69333 0.85333,-1.17333 0.32,-0.48 0.85334,-1.65334 q 0.48,-1.22666 0.69333,-2.61333 l 0.10667,-0.8 0.21333,-1.54667 0.10667,-0.64 0.21333,-1.44 0.10667,-0.74666 0.21333,-1.06667 q 0.10667,-0.8 -0.8,-1.49333 -0.90667,-0.74667 -2.08,-0.53334 -1.22667,0.21334 -2.18667,1.33334 -0.96,1.12 -1.76,3.41333 l -0.21333,0.53333 -0.37333,1.06667 -0.37334,1.17333 -0.10666,0.37334 q -0.10667,0.42666 -0.16,0.8 -0.21334,1.33333 -0.21334,3.09333 v 0.64 0.48 q 0,1.49333 0.0533,2.02667 0.10666,0.53333 0.37333,1.28 z"
         style="font-style:normal;font-variant:normal;font-weight:normal;font-stretch:normal;font-size:53.33333588px;font-family:Martina;-inkscape-font-specification:Martina;text-align:center;text-anchor:middle;fill:#ffffff"
         id="path5345" />
      <path
         d="m 462.84173,528.95615 q -0.10666,-0.85333 0.58667,-1.38666 0.74667,-0.58667 1.86667,-0.48 l 0.96,0.21333 q 1.49333,0.48 1.65333,1.17333 0.21333,0.64 0.21333,4.26667 l -0.26666,4.37333 q 0,1.49334 -0.0533,2.50667 -0.0533,0.96 -0.10666,1.86667 v 0.37333 l 0.0533,1.28 0.0533,0.37333 -0.0533,1.33334 v 1.44 l -0.0533,1.76 0.0533,2.93333 v 2.77333 q 0,0.90667 -0.0533,1.33334 0,5.28 -1.44,7.36 -1.38667,2.08 -4.58667,2.08 -0.37333,0 -0.85333,-0.0533 -0.48,-0.0533 -0.74667,-0.0533 l -1.28,-0.16 q -1.44,-0.26667 -2.08,-0.53333 -0.64,-0.21334 -2.77333,-1.28 l -0.32,-0.16 -1.92,-1.01334 q -0.96,-0.48 -1.44,-0.85333 -0.48,-0.37333 -0.58667,-0.69333 -0.32,-1.01334 0.53333,-1.38667 0.32,-0.16 0.8,-0.16 0.48,0 1.54667,0.32 l 2.18667,1.06667 q 0.48,0.26666 1.38666,0.58666 0.90667,0.37334 1.17334,0.42667 1.38666,0.32 2.02666,0.32 0.85334,0 1.22667,-0.53333 0.37333,-0.53334 0.69333,-2.08 l 0.10667,-0.64 0.0533,-0.64 0.26667,-2.98667 q 0.32,-3.2 0.42667,-4.8 0.16,-1.65333 0.16,-2.34667 v -0.69333 l -0.0533,-1.22667 q -0.32,0.8 -0.90666,1.6 -1.17334,1.65334 -2.66667,2.45334 -1.49333,0.8 -3.25333,0.8 -1.54667,0 -3.30667,-0.74667 -2.56,-1.17333 -3.68,-2.93333 -1.06667,-1.76 -1.06667,-4.90667 0,-0.58667 0,-1.06667 0,-0.53333 0.26667,-2.45333 0.32,-1.97333 0.48,-2.93333 0.21333,-1.01334 0.53333,-1.81334 1.44,-4.16 2.56,-5.28 1.12,-1.12 4.37334,-1.6 0.64,-0.10666 0.96,-0.10666 1.86666,0 4,1.49333 l 0.42666,0.26667 0.85334,0.58666 z m -9.12,14.66667 0.21334,1.28 0.32,0.85333 q 0.21333,0.42667 0.74666,0.42667 0.53334,0 1.12,-0.53333 l 0.85334,-0.96 1.12,-1.38667 0.16,-0.16 1.28,-2.13333 1.12,-2.18667 0.58666,-0.90667 q 0.53334,-0.90666 0.53334,-2.02666 0,-1.76 -0.48,-2.56 -1.44,-2.61334 -2.88,-2.61334 -0.64,0 -1.6,0.58667 -0.90667,0.58667 -1.6,2.29333 l -0.42667,1.06667 -0.37333,1.01333 q -0.53334,1.54667 -0.69334,2.34667 -0.10666,0.8 -0.10666,2.56 0,0.85333 0,1.6 0,0.69333 0.0533,1.28 z"
         style="font-style:normal;font-variant:normal;font-weight:normal;font-stretch:normal;font-size:53.33333588px;font-family:Martina;-inkscape-font-specification:Martina;text-align:center;text-anchor:middle;fill:#ffffff"
         id="path5347" />
      <path
         d="m 478.65591,541.11615 -0.16,1.17334 q 0,2.34666 0.58667,3.25333 0.64,0.85333 2.4,0.85333 0.74666,0 1.81333,-0.16 l 0.58667,-0.10666 0.32,-0.10667 1.12,-0.48 1.12,-0.42667 0.21333,-0.10666 0.16,-0.10667 1.17333,-0.64 q 1.06667,-0.64 1.70667,-1.12 0.69333,-0.48 1.06667,-0.85333 l 0.74666,-0.8 1.12,-1.22667 q 0.26667,-0.26667 0.74667,-0.26667 0.8,0 1.22667,0.85334 0.16,0.42666 0.16,0.74666 0,1.01334 -1.86667,3.25334 -1.17333,1.44 -2.24,2.18666 -1.06667,0.74667 -3.62667,1.97334 -1.01333,0.48 -1.92,0.69333 -0.90666,0.21333 -1.49333,0.32 -0.58667,0.10667 -1.28,0.10667 -1.06667,0 -2.18667,-0.42667 -1.06666,-0.37333 -3.09333,-1.44 -3.62667,-1.97333 -4,-5.76 l -0.10667,-0.74667 -0.0533,-0.90666 -0.0533,-1.01334 v -0.64 q 0,-1.86666 0.21333,-4.10666 0.26667,-2.24 0.58667,-3.57334 0.37333,-1.38666 1.06666,-2.66666 l 0.53334,-0.96 q 0.96,-1.44 1.70666,-2.02667 0.8,-0.58667 1.92,-0.58667 0.74667,0 1.97334,0.26667 0.37333,0.10667 1.70666,0.42667 l 1.44,0.53333 q 2.77334,1.33333 3.94667,2.24 1.22667,0.85333 1.81333,2.13333 0.58667,1.28 0.58667,2.50667 0,1.97333 -1.49333,3.68 -0.42667,0.53333 -0.69334,0.8 -0.26666,0.21333 -0.53333,0.42667 -1.65333,1.22666 -2.24,1.49333 -0.58667,0.26667 -2.50667,0.74667 l -1.86666,0.42666 -0.21334,0.0533 q -0.48,0.0533 -0.96,0.10666 -0.42666,0 -1.17333,0 z m 6.13333,-7.04 q 0.48,-1.44 0.48,-2.29333 0,-0.48 -0.0533,-0.74667 -0.21333,-0.85333 -0.96,-1.33333 -0.69333,-0.48 -1.54667,-0.26667 -1.22666,0.37334 -2.08,1.81334 -1.01333,1.70666 -1.54666,5.01333 l -0.16,1.54667 q 0.74666,0 1.33333,-0.16 0.64,-0.16 1.38667,-0.48 1.12,-0.58667 1.92,-1.38667 0.85333,-0.8 1.22666,-1.70667 z"
         style="font-style:normal;font-variant:normal;font-weight:normal;font-stretch:normal;font-size:53.33333588px;font-family:Martina;-inkscape-font-specification:Martina;text-align:center;text-anchor:middle;fill:#ffffff"
         id="path5349" />
      <path
         d="m 501.34839,532.84949 1.38667,-1.86667 1.06666,-1.65333 q 0.26667,-0.21334 0.8,-0.32 0.53334,-0.16 1.28,-0.16 0.42667,0 0.90667,0 0.0533,0 1.54667,0.26666 1.54666,0.26667 2.29333,0.90667 0.74667,0.64 1.33333,2.45333 l 0.16,0.53334 0.42667,-0.85334 q 1.70667,-3.14666 2.98667,-4.26666 1.33333,-1.17334 3.36,-1.17334 1.81333,0 2.82666,0.48 1.01334,0.42667 1.97334,1.70667 1.01333,1.28 1.22666,1.92 0.26667,0.64 0.26667,2.50667 l 0.0533,2.24 v 0.64 0.48 l -0.16,2.29333 v 0.48 2.56 q 0,2.4 0.32,3.30667 0.37334,0.85333 1.44,0.85333 0.8,0 1.86667,-0.37333 l 0.16,-0.0533 2.13333,-0.90666 0.74667,-0.26667 q 0.32,-0.10667 0.58667,0.10667 0.26666,0.21333 0.37333,0.69333 0.21333,1.22667 -0.8,2.02667 -1.01333,0.8 -4.74667,2.13333 -0.90666,0.32 -1.86666,0.32 -0.90667,0 -1.97334,-0.32 l -0.48,-0.16 q -1.6,-0.69333 -2.29333,-1.81333 -0.69333,-1.12 -1.06667,-3.62667 -0.0533,-0.69333 -0.10666,-1.22667 0,-0.53333 0,-0.96 0,-0.53333 0,-0.85333 l 0.10666,-1.38667 v -0.53333 l -0.0533,-0.69333 v -2.24 l -0.10667,-2.18667 -0.0533,-0.69333 -0.0533,-1.54667 q -0.42667,-0.32 -0.69334,-0.32 -0.42666,0 -1.01333,0.8 -0.58667,0.74667 -1.54667,2.45333 -0.32,0.58667 -0.85333,2.13334 -0.74667,2.13333 -0.8,2.29333 l -0.21333,0.69333 v 0.21334 l -0.48,2.4 -0.53334,2.56 q -0.16,0.69333 -0.21333,1.22666 -0.0533,0.48 -0.0533,1.54667 0,0.42667 -0.69334,0.90667 -0.32,0.16 -0.96,0.16 -0.16,0 -1.6,-0.16 -1.44,-0.16 -1.97333,-0.53334 -0.53333,-0.37333 -0.53333,-1.54666 l 0.0533,-1.01334 0.0533,-0.74666 q 0,-2.24 0,-4.64 0,-2.4 0.0533,-4.90667 l -0.0533,-1.81333 q -0.90666,-0.10667 -1.38666,0.26666 -0.48,0.37334 -1.44,2.13334 l -1.44,2.50666 q -0.16,0.32 -0.37334,1.17334 -0.42666,1.49333 -0.64,2.56 l -0.8,3.68 q -0.32,2.45333 -0.69333,3.36 -0.32,0.85333 -1.12,0.85333 -0.69333,0 -2.24,-0.53333 -1.49333,-0.53334 -1.49333,-3.84 l 0.0533,-2.02667 0.64,-9.38667 0.10667,-1.6 0.0533,-0.16 0.0533,-0.48 0.21334,-1.28 0.10666,-1.97333 q 0,-1.6 0.42667,-2.08 0.42667,-0.48 1.54667,-0.64 1.12,-0.21333 1.44,-0.21333 1.70666,0 1.70666,2.02666 0,0.48 0,0.90667 -0.16,0.74667 -0.21333,1.17333 z"
         style="font-style:normal;font-variant:normal;font-weight:normal;font-stretch:normal;font-size:53.33333588px;font-family:Martina;-inkscape-font-specification:Martina;text-align:center;text-anchor:middle;fill:#ffffff"
         id="path5351" />
      <path
         d="m 535.84341,541.11615 -0.16,1.17334 q 0,2.34666 0.58667,3.25333 0.64,0.85333 2.4,0.85333 0.74666,0 1.81333,-0.16 l 0.58667,-0.10666 0.32,-0.10667 1.12,-0.48 1.12,-0.42667 0.21333,-0.10666 0.16,-0.10667 1.17333,-0.64 q 1.06667,-0.64 1.70667,-1.12 0.69333,-0.48 1.06667,-0.85333 l 0.74666,-0.8 1.12,-1.22667 q 0.26667,-0.26667 0.74667,-0.26667 0.8,0 1.22667,0.85334 0.16,0.42666 0.16,0.74666 0,1.01334 -1.86667,3.25334 -1.17333,1.44 -2.24,2.18666 -1.06667,0.74667 -3.62667,1.97334 -1.01333,0.48 -1.92,0.69333 -0.90666,0.21333 -1.49333,0.32 -0.58667,0.10667 -1.28,0.10667 -1.06667,0 -2.18667,-0.42667 -1.06666,-0.37333 -3.09333,-1.44 -3.62667,-1.97333 -4,-5.76 l -0.10667,-0.74667 -0.0533,-0.90666 -0.0533,-1.01334 v -0.64 q 0,-1.86666 0.21333,-4.10666 0.26667,-2.24 0.58667,-3.57334 0.37333,-1.38666 1.06666,-2.66666 l 0.53334,-0.96 q 0.96,-1.44 1.70666,-2.02667 0.8,-0.58667 1.92,-0.58667 0.74667,0 1.97334,0.26667 0.37333,0.10667 1.70666,0.42667 l 1.44,0.53333 q 2.77334,1.33333 3.94667,2.24 1.22667,0.85333 1.81333,2.13333 0.58667,1.28 0.58667,2.50667 0,1.97333 -1.49333,3.68 -0.42667,0.53333 -0.69334,0.8 -0.26666,0.21333 -0.53333,0.42667 -1.65333,1.22666 -2.24,1.49333 -0.58667,0.26667 -2.50667,0.74667 l -1.86666,0.42666 -0.21334,0.0533 q -0.48,0.0533 -0.96,0.10666 -0.42666,0 -1.17333,0 z m 6.13333,-7.04 q 0.48,-1.44 0.48,-2.29333 0,-0.48 -0.0533,-0.74667 -0.21333,-0.85333 -0.96,-1.33333 -0.69333,-0.48 -1.54667,-0.26667 -1.22666,0.37334 -2.08,1.81334 -1.01333,1.70666 -1.54666,5.01333 l -0.16,1.54667 q 0.74666,0 1.33333,-0.16 0.64,-0.16 1.38667,-0.48 1.12,-0.58667 1.92,-1.38667 0.85333,-0.8 1.22666,-1.70667 z"
         style="font-style:normal;font-variant:normal;font-weight:normal;font-stretch:normal;font-size:53.33333588px;font-family:Martina;-inkscape-font-specification:Martina;text-align:center;text-anchor:middle;fill:#ffffff"
         id="path5353" />
      <path
         d="m 558.74925,533.06282 1.06667,-1.70667 q 2.34667,-3.62666 4.26667,-3.62666 1.06666,0 3.46666,0.85333 0.37334,0.16 0.74667,0.32 0.37333,0.16 0.90667,0.53333 1.81333,1.28 2.50666,2.56 0.69334,1.28 0.69334,3.41334 0,0.48 0,0.90666 -0.10667,0.69334 -0.10667,1.06667 l -0.10667,0.53333 q -0.32,1.86667 -0.32,3.73334 0,1.6 0.48,2.34666 0.53334,0.69334 1.38667,0.58667 0.42667,-0.10667 0.8,-0.21333 0.42667,-0.10667 0.96,-0.42667 l 0.37333,-0.16 0.96,-0.53333 0.90667,-0.42667 q 1.17333,-0.26667 1.44,0.96 0.21333,1.01333 -0.64,1.97333 -0.85333,0.96 -3.30667,2.08 -0.96,0.48 -2.13333,0.48 -3.14667,0 -4.64,-1.01333 -1.49333,-1.01333 -2.08,-3.57333 l -0.16,-1.33334 0.10667,-3.30666 0.10666,-1.76 0.0533,-1.12 q 0,-0.64 0,-0.90667 0,-1.49333 -0.10667,-1.92 -0.10667,-0.48 -0.74667,-1.17333 -1.22666,0 -1.86666,0.64 -0.64,0.58666 -1.49334,2.56 l -1.12,2.50666 -0.85333,2.61334 -0.26667,1.06666 -0.48,1.65334 q -0.32,1.22666 -0.48,1.81333 -0.10666,0.53333 -0.10666,0.96 -0.53334,3.78667 -2.18667,3.78667 -0.8,0 -2.66667,-0.85334 -0.85333,-0.42666 -1.12,-0.96 -0.26666,-0.53333 -0.26666,-1.81333 v -0.37333 l 0.16,-1.28 v -2.29334 -0.21333 l 0.26666,-4.42667 0.10667,-3.73333 0.0533,-0.53333 0.16,-2.98667 q 0,-2.56 0.58667,-3.41333 0.64,-0.85334 2.18667,-0.85334 1.65333,0 2.29333,0.42667 0.69333,0.37333 0.69333,1.28 0,0.42667 -0.16,1.06667 l -0.26666,1.54666 q -0.0533,0.32 -0.0533,0.64 0,0.42667 0,0.64 0,0.90667 0,1.38667 z"
         style="font-style:normal;font-variant:normal;font-weight:normal;font-stretch:normal;font-size:53.33333588px;font-family:Martina;-inkscape-font-specification:Martina;text-align:center;text-anchor:middle;fill:#ffffff"
         id="path5355" />
      <path
         d="m 579.83841,524.47615 q 0.26667,-1.01333 0.32,-1.86666 0.0533,-0.90667 0.0533,-2.66667 0,-2.82667 2.4,-2.82667 l 1.92,0.10667 q 1.38667,0.16 1.76,0.37333 0.21334,0.10667 0.42667,0.53334 0.26667,0.42666 0.0533,0.69333 l -0.53333,0.69333 q -0.10667,0.16 -0.16,0.85334 -0.0533,0.69333 -0.0533,1.33333 v 2.13333 q 1.12,0.37334 3.30666,0.37334 0.64,0 1.17334,0.37333 0.58666,0.32 1.17333,1.22667 0.37333,0.42666 0.37333,0.96 0,0.74666 -0.53333,0.90666 -0.53333,0.10667 -0.90667,0.16 -0.37333,0.0533 -0.8,0.10667 l -2.02666,0.26667 -2.29334,0.48 -0.10666,1.54666 -0.10667,1.44 -0.0533,1.12 -0.10667,1.86667 -0.0533,1.92 v 1.01333 0.53334 l 0.0533,2.45333 0.0533,0.32 0.16,2.66667 q 0,2.4 1.54667,2.4 1.01333,0 2.72,-0.85334 l 2.02667,-1.01333 2.50666,-0.85333 q 0.58667,0.90666 0.58667,1.49333 0,1.17333 -2.82667,2.82667 l -2.4,1.38666 -0.16,0.0533 q -1.81333,0.90666 -3.14666,0.90666 -0.64,0 -1.06667,-0.0533 -2.77333,-0.37333 -4.26667,-2.4 -1.01333,-1.28 -1.33333,-3.2 v -0.26667 l -0.10667,-1.54666 -0.0533,-0.26667 -0.21333,-1.44 q -0.0533,-0.21333 -0.0533,-0.69333 0,-0.53334 0.0533,-2.13334 0.10666,-1.65333 0.10666,-2.45333 l 0.16,-2.66667 v -0.26666 -0.58667 l 0.0533,-1.70667 v -0.48 -1.12 l -0.8,-0.10666 q -1.54667,-0.26667 -1.97334,-0.37334 -0.37333,-0.10666 -1.12,-0.37333 -1.22666,-0.53333 -1.54666,-0.96 -0.21334,-0.42667 -0.21334,-0.58667 0,-0.64 0.48,-0.85333 0.42667,-0.21333 1.49334,-0.37333 1.06666,-0.16 1.28,-0.16 z"
         style="font-style:normal;font-variant:normal;font-weight:normal;font-stretch:normal;font-size:53.33333588px;font-family:Martina;-inkscape-font-specification:Martina;text-align:center;text-anchor:middle;fill:#ffffff"
         id="path5357" />
    </g>
    <rect
       y="13.140492"
       x="-12.546253"
       height="140.35503"
       width="235.87766"
       id="rect4521"
       style="opacity:1;fill:none;fill-opacity:1;stroke:#ffffff;stroke-width:2.03828812;stroke-linecap:square;stroke-linejoin:miter;stroke-miterlimit:4;stroke-dasharray:none;stroke-opacity:1;paint-order:stroke fill markers" />
  </g>
</svg>
